<svg xmlns="http://www.w3.org/2000/svg" viewBox="0 0 387.78 342.04"><defs><style>.cls-1{fill:#263238;}.cls-2,.cls-6{fill:#407bff;}.cls-3,.cls-4{fill:#fff;}.cls-4,.cls-6{opacity:0.3;}.cls-5{opacity:0.2;}.cls-7{fill:#f5f5f5;}</style></defs><g id="Layer_2" data-name="Layer 2"><g id="Layer_9" data-name="Layer 9"><g id="Robot_Parts" data-name="Robot Parts"><path class="cls-1" d="M26.4,330.9A9.62,9.62,0,0,1,19.07,327a.5.5,0,1,1,.82-.57c1.86,2.7,6,4.13,7.8,3.28a1.3,1.3,0,0,0,.47-.34,6.09,6.09,0,0,1-3.53-4.48c-.22-1.27-.4-3,.64-3.22,1.44-.32,3.31,3.15,4,5.78a3.78,3.78,0,0,1,.13,1.34,4.26,4.26,0,0,0,1.78.14,1.94,1.94,0,0,0,1.38-.74A5.86,5.86,0,0,1,30.29,324c-.39-2.74-.09-3.21.21-3.45a.66.66,0,0,1,.69-.07c1.07.45,2.36,4.33,2.61,6.53a2.66,2.66,0,0,1,0,.69,3.91,3.91,0,0,0,1.35.26,4.31,4.31,0,0,0,2.41-.63,4.1,4.1,0,0,1-.4-.29c-1-.89-1.46-2.31-1.28-4.33.13-1.57.49-2.43,1.12-2.7a1.13,1.13,0,0,1,1.21.24,6.88,6.88,0,0,1,1.72,5.56,2.93,2.93,0,0,1-.5,1.15c1.84.32,4.42-.2,6.65-.75a.51.51,0,0,1,.6.37.5.5,0,0,1-.36.6c-2.71.67-5.63,1.22-7.69.62a5.69,5.69,0,0,1-3.5,1.16,4.83,4.83,0,0,1-1.64-.31,2.8,2.8,0,0,1-2.12,1.27,5.33,5.33,0,0,1-2.24-.19,2.32,2.32,0,0,1-1,.89A4.16,4.16,0,0,1,26.4,330.9Zm-.87-8.28a4.59,4.59,0,0,0,.09,2.05,5.05,5.05,0,0,0,2.84,3.7,3.21,3.21,0,0,0-.12-.7C27.56,324.81,26.06,322.84,25.53,322.62Zm5.58-.87a12.84,12.84,0,0,0,.17,2.06A5.18,5.18,0,0,0,32.8,327,15.72,15.72,0,0,0,31.11,321.75Zm6.29-.87h0s-.37.19-.52,1.86.16,2.82.94,3.49a2.25,2.25,0,0,0,.6.37,2.16,2.16,0,0,0,.54-1,6.26,6.26,0,0,0-1.19-4.43C37.55,320.92,37.42,320.88,37.4,320.88Z"/><polygon class="cls-1" points="172.76 338.46 175.47 333.76 172.76 329.06 169.86 329.06 171.5 333.76 169.86 338.46 172.76 338.46"/><path class="cls-1" d="M170.05,336.21a2.45,2.45,0,1,1,0-4.89l-4.61-.92-1.22,3.72,2.06,3.14Z"/><path class="cls-2" d="M170.45,329.06H165l-2.71,4.7,2.71,4.7h5.43l2.71-4.7Zm-2.71,7.15a2.45,2.45,0,1,1,2.44-2.45A2.45,2.45,0,0,1,167.74,336.21Z"/><polygon class="cls-2" points="361.78 328.75 359.77 325.25 361.78 321.76 363.93 321.76 362.72 325.25 363.93 328.75 361.78 328.75"/><path class="cls-2" d="M363.79,327.07a1.82,1.82,0,1,0,0-3.63l3.42-.68.91,2.76-1.53,2.33Z"/><path class="cls-1" d="M363.5,321.76h4l2,3.49-2,3.49h-4l-2-3.49Zm2,5.31a1.82,1.82,0,1,0-1.81-1.82A1.82,1.82,0,0,0,365.51,327.07Z"/><path class="cls-1" d="M286.84,333.38h4.51a2.14,2.14,0,0,0,2.14-2.14h0a2.14,2.14,0,0,0-2.14-2.14h-4.51a2.14,2.14,0,0,0-2.14,2.14h0A2.14,2.14,0,0,0,286.84,333.38Z"/><path class="cls-2" d="M279.62,329.34a4.46,4.46,0,1,1,2,6.18A4.61,4.61,0,0,1,279.62,329.34Z"/><rect class="cls-1" x="282.96" y="326.19" width="1.37" height="10.1" transform="translate(398.94 751.81) rotate(-154.76)"/></g><g id="Character"><path class="cls-1" d="M166.34,219.32c1.39-22.4-1.16-63.13,40.95-57.73,45.13,5.77,32.22,58.55,32.22,58.55Z"/><circle class="cls-3" cx="195.4" cy="187.48" r="18.38"/><path class="cls-1" d="M197.82,169.13c-8.71-1.48-18,4.93-18.93,11.43l34.51,3.18C212.18,176.33,204.72,170.31,197.82,169.13Z"/><path class="cls-1" d="M209.46,187c-.24,4.81-2.86,8.58-5.84,8.42s-5.2-4.17-5-9,2.87-8.58,5.85-8.42S209.71,182.22,209.46,187Z"/><path class="cls-2" d="M195.4,206.85a19.38,19.38,0,1,1,19.38-19.37A19.39,19.39,0,0,1,195.4,206.85Zm0-36.75a17.38,17.38,0,1,0,17.38,17.38A17.4,17.4,0,0,0,195.4,170.1Z"/><path class="cls-4" d="M234.37,218.76l-.11,0a.49.49,0,0,1-.37-.6c0-.13,3.22-13.69-.09-27.4a.5.5,0,1,1,1-.24c3.37,13.95.12,27.74.09,27.87A.51.51,0,0,1,234.37,218.76Z"/><path class="cls-4" d="M231.59,183.24a.52.52,0,0,1-.46-.29,34.93,34.93,0,0,0-4.74-7.66.5.5,0,0,1,.07-.7.49.49,0,0,1,.7.07,36.12,36.12,0,0,1,4.88,7.87.49.49,0,0,1-.24.66A.54.54,0,0,1,231.59,183.24Z"/><path class="cls-1" d="M72.62,324.4h-.37a5,5,0,1,1,.28-10h.09c2.89,0,9.84-3.51,24.38-26.43a5,5,0,0,1,7.51-1.09,206.46,206.46,0,0,0,37.14,25.47,5,5,0,1,1-4.52,8.92,212.75,212.75,0,0,1-34.8-23.14C90.14,316.44,81.1,324.4,72.62,324.4Z"/><path class="cls-1" d="M103.56,286l-.43,0a3,3,0,0,1-2.54-3.39c.71-5-.17-23.63-6.48-38.13a3,3,0,0,1,1.06-3.68c13.7-9.33,42.88-10.45,44.11-10.49a3,3,0,1,1,.21,6c-.27,0-25.78,1-38.88,8.2,5.58,14.44,6.85,32.43,5.92,38.94A3,3,0,0,1,103.56,286Z"/><path class="cls-2" d="M108.6,282.1c-2-4.71-11-4.18-16.27-.14-2.82,2.15-6.64,8.64-7,11a3.54,3.54,0,0,0,4,4.24c3.45-.3,8.18-5.31,8.18-5.31-3.15,3.09.92,5.27,7,.8C107.83,290.2,110.83,287.37,108.6,282.1Z"/><path class="cls-1" d="M280.59,220.64a.3.3,0,0,1-.13,0,.5.5,0,0,1-.35-.62c1.34-4.64,2.79-7.47,4.7-9.05a5.18,5.18,0,0,1,.16-3.26,6.4,6.4,0,0,1,2.36-3,2.54,2.54,0,0,1-.59-2.38,6.16,6.16,0,0,1,2.13-3.16,2.28,2.28,0,0,1-.56-1.51c0-3,5.5-7.52,11.76-8.38a.49.49,0,0,1,.56.43.49.49,0,0,1-.43.56c-5.93.81-10.91,5.11-10.89,7.38a1.31,1.31,0,0,0,.36.91,12.24,12.24,0,0,1,9.28-1.87c3.07.59,4.32,1.24,4.17,2.17-.27,1.75-6.8,2.12-11.19,1.6a6.24,6.24,0,0,1-2.25-.65,5.41,5.41,0,0,0-2,2.73,1.57,1.57,0,0,0,.49,1.64c1.86-1,4.47-1.36,7.92-.6,4.53,1,4.7,1.55,4.8,1.88a.65.65,0,0,1-.16.67c-.95,1-7.9.53-11.39-.33a4.91,4.91,0,0,1-1.21-.45A5.53,5.53,0,0,0,285.9,208a4.31,4.31,0,0,0-.22,2.3,5.77,5.77,0,0,1,.55-.29c2.07-1,4.57-.82,7.66.5,2,.87,3,1.65,3.1,2.44a1.12,1.12,0,0,1-.57,1c-1.53,1-6.87.86-9.65-.62a3.94,3.94,0,0,1-1.54-1.49c-1.63,1.5-3,4.17-4.16,8.36A.49.49,0,0,1,280.59,220.64Zm5.43-9.33a3,3,0,0,0,1.22,1.22c2.26,1.2,6.7,1.47,8.36.8.34-.14.39-.25.39-.25s-.05-.56-2.5-1.61c-2.8-1.2-5-1.37-6.83-.52A5.79,5.79,0,0,0,286,211.31Zm3.33-6.57.26.07a33.09,33.09,0,0,0,9.94.75,21.7,21.7,0,0,0-3.64-1A11.42,11.42,0,0,0,289.35,204.74Zm1.27-5.62a5.92,5.92,0,0,0,1.43.32c5,.59,9.38-.1,10-.73-.17-.15-.84-.58-3.33-1.05A11.19,11.19,0,0,0,290.62,199.12Z"/><path class="cls-1" d="M150.42,322.73c.65-.21.43-.85-.3-.85H136.58c-25.78-2.73-43.79.93-32.44,1.79s-.8.68-9.09,3.82,61.65,3.93,68,0C168.93,323.87,141.28,325.66,150.42,322.73Z"/><polygon class="cls-2" points="247.36 326.72 129.56 322.81 124.67 208.59 263.78 211.7 247.36 326.72"/><path class="cls-1" d="M166.34,324.53a.49.49,0,0,1-.5-.46L156.4,209.35a.51.51,0,0,1,.46-.54.52.52,0,0,1,.54.46L166.84,324a.5.5,0,0,1-.46.54Z"/><polygon class="cls-2" points="247.36 326.72 279.02 321.9 288.99 215.69 263.78 211.7 247.36 326.72"/><polygon class="cls-5" points="247.36 326.72 279.02 321.9 288.99 215.69 263.78 211.7 247.36 326.72"/><path class="cls-1" d="M139.62,300.8l-2.9-67.87a12.27,12.27,0,0,1,12.53-12.79l88.06,2a12.27,12.27,0,0,1,11.87,14l-9.76,68.39A12.27,12.27,0,0,1,226.87,315l-75.4-2.5A12.26,12.26,0,0,1,139.62,300.8Z"/><path class="cls-3" d="M149.14,241l13.62.43-.11,3.51-8.53-.27-.08,2.62,7.91.25-.11,3.36-7.91-.26-.1,3.25,8.77.28-.12,3.72-13.87-.44Z"/><path class="cls-3" d="M165.29,258l.52-16.45,8.48.27a12.09,12.09,0,0,1,3.58.52,3.79,3.79,0,0,1,2,1.56,5.11,5.11,0,0,1,0,5,4.69,4.69,0,0,1-1.66,1.56,6.16,6.16,0,0,1-1.81.6,5.12,5.12,0,0,1,1.31.64,5.51,5.51,0,0,1,.78.9,6.43,6.43,0,0,1,.68,1l2.31,4.85-5.74-.19-2.56-5.11a3.94,3.94,0,0,0-.88-1.3,2.22,2.22,0,0,0-1.23-.42h-.45l-.21,6.67Zm5.42-9.62,2.14.07a8.63,8.63,0,0,0,1.35-.19,1.35,1.35,0,0,0,.85-.49,1.57,1.57,0,0,0,.35-.94,1.54,1.54,0,0,0-.47-1.24,3.1,3.1,0,0,0-1.88-.49l-2.24-.07Z"/><path class="cls-3" d="M183.17,258.52l.52-16.45,8.47.27a12.16,12.16,0,0,1,3.59.52,3.77,3.77,0,0,1,2,1.56,4.52,4.52,0,0,1,.68,2.69,4.42,4.42,0,0,1-2.31,3.9,6,6,0,0,1-1.81.59,5.32,5.32,0,0,1,1.3.65,4.84,4.84,0,0,1,.79.89,6.87,6.87,0,0,1,.68,1.05l2.31,4.84-5.75-.18-2.55-5.11a4,4,0,0,0-.88-1.3,2.08,2.08,0,0,0-1.24-.42l-.45,0-.21,6.68Zm5.41-9.62,2.15.06a7.21,7.21,0,0,0,1.35-.18,1.31,1.31,0,0,0,.84-.49,1.67,1.67,0,0,0-.11-2.18,3,3,0,0,0-1.89-.49l-2.23-.07Z"/><path class="cls-3" d="M200.2,250.84a7.81,7.81,0,0,1,8.77-8.25,8.6,8.6,0,0,1,6.26,2.41,8.32,8.32,0,0,1,2,6.25,10.21,10.21,0,0,1-1.13,4.7,6.92,6.92,0,0,1-2.89,2.78,9.22,9.22,0,0,1-4.61.88,10.58,10.58,0,0,1-4.58-1,7,7,0,0,1-2.86-2.9A9.3,9.3,0,0,1,200.2,250.84Zm5.09.18a5.5,5.5,0,0,0,.81,3.61,3.5,3.5,0,0,0,5.05.19,6,6,0,0,0,1-3.8,5.12,5.12,0,0,0-.82-3.43,3.22,3.22,0,0,0-2.51-1.15,3.1,3.1,0,0,0-2.51,1A5.56,5.56,0,0,0,205.29,251Z"/><path class="cls-3" d="M219.8,259.69l.52-16.46,8.47.27a12.51,12.51,0,0,1,3.59.52,3.87,3.87,0,0,1,2,1.56,4.66,4.66,0,0,1-1.63,6.6,6.61,6.61,0,0,1-1.81.59,5,5,0,0,1,1.3.65,4.84,4.84,0,0,1,.79.89,6.43,6.43,0,0,1,.68,1L236,260.2l-5.75-.18-2.55-5.12a3.91,3.91,0,0,0-.88-1.29,2.16,2.16,0,0,0-1.24-.43h-.45l-.21,6.68Zm5.41-9.63,2.15.07a7.21,7.21,0,0,0,1.35-.18,1.35,1.35,0,0,0,.84-.49,1.54,1.54,0,0,0,.35-1,1.5,1.5,0,0,0-.46-1.23,3,3,0,0,0-1.89-.49l-2.23-.07Z"/><path class="cls-3" d="M227.89,287.64a1.32,1.32,0,0,1-1-.43l-8.56-9.37-9.24,8.44a1.31,1.31,0,0,1-1.85-.08l-8.56-9.37-9.24,8.44a1.32,1.32,0,0,1-1.86-.08l-8.56-9.37-9.23,8.44a1.33,1.33,0,0,1-.95.34,1.35,1.35,0,0,1-.91-.43l-8.56-9.36-9.23,8.43a1.31,1.31,0,1,1-1.78-1.93L158.6,272a1.31,1.31,0,0,1,1.85.08l8.57,9.37,9.23-8.44a1.37,1.37,0,0,1,.95-.34,1.35,1.35,0,0,1,.91.43l8.56,9.37L197.9,274a1.31,1.31,0,0,1,1.86.08l8.56,9.37,9.24-8.44a1.31,1.31,0,0,1,1.85.08l9.45,10.34a1.32,1.32,0,0,1-1,2.2Z"/><polygon class="cls-2" points="69.64 329.15 63.38 326.16 57.8 299 60.83 295.66 69.64 329.15"/><polygon class="cls-2" points="69.64 329.15 77.94 324.3 70.82 301.91 60.83 295.66 69.64 329.15"/><polygon class="cls-5" points="69.64 329.15 77.94 324.3 70.82 301.91 60.83 295.66 69.64 329.15"/><path class="cls-1" d="M205.84,334.09h-.69a5,5,0,0,1,.27-10c7.7.25,24-4.48,33.32-13.52a5,5,0,0,1,2-1.2c15.78-4.74,21.66,4.83,21.9,5.24l-8.6,5.09a1,1,0,0,0,.11.18c-.1-.13-2.33-3-9.45-1.24C233.06,329.3,215.12,334.09,205.84,334.09Z"/><polygon class="cls-2" points="205.28 340.73 187.07 339.58 185.63 306.01 210.11 306.92 205.28 340.73"/><polygon class="cls-2" points="205.28 340.73 209.54 336.5 212.18 315.56 210.11 306.92 205.28 340.73"/><polygon class="cls-5" points="205.28 340.73 209.54 336.5 212.18 315.56 210.11 306.92 205.28 340.73"/><path class="cls-1" d="M310.8,328a3,3,0,0,1-1.81-.61c-10.4-7.9-24.45-21.93-29.84-35.46a2.64,2.64,0,0,1-.17-.61c-2.63-15.64-5.14-48.55-5.25-49.94a3,3,0,1,1,6-.45c0,.33,2.57,33.56,5.13,49.07,5.38,13.16,20,26.67,27.78,32.61A3,3,0,0,1,310.8,328Z"/><path class="cls-1" d="M324.67,329.53c-2.32,0-4.95-1-7.82-3.12a3,3,0,0,1,3.52-4.86c2.48,1.79,3.83,2,4.3,2a3,3,0,1,1,0,6Z"/><path class="cls-2" d="M317.69,326.32c3.21-9.53,16.37-7.65,20.9-6.23a47.39,47.39,0,0,1,11.07,4.8c2.46,1.6,2.5,4.29-.77,5.82-4,1.88-14.17.21-14.17.21,5.25,2.29,0,6-9.2,2.36C322.53,332.1,316.56,329.82,317.69,326.32Z"/><path class="cls-1" d="M285.75,245.52c-1.19,8.1-7.9,14.07-13.36,13.27s-5.68-8-4.49-16.14,3.35-14,8.81-13.2S286.94,237.41,285.75,245.52Z"/><circle class="cls-1" cx="153.76" cy="212.35" r="0.82"/><path class="cls-1" d="M162.1,218.26a.82.82,0,1,1-.82-.82A.82.82,0,0,1,162.1,218.26Z"/><path class="cls-1" d="M163,315.16a.82.82,0,1,1-.82-.82A.81.81,0,0,1,163,315.16Z"/><path class="cls-1" d="M170.53,321.07a.82.82,0,1,1-.82-.82A.82.82,0,0,1,170.53,321.07Z"/></g><g id="_404" data-name="404"><path class="cls-1" d="M72.57,86.06a.57.57,0,0,1-.18,0c-4.5-1.75-7.2-3.45-8.59-5.5a5.18,5.18,0,0,1-3.24-.44,6.54,6.54,0,0,1-2.78-2.62,2.54,2.54,0,0,1-2.42.37,6.14,6.14,0,0,1-3-2.41,2.25,2.25,0,0,1-1.56.43c-3-.24-7-6.16-7.29-12.46a.51.51,0,0,1,.48-.53.5.5,0,0,1,.52.48c.28,6,4.11,11.33,6.37,11.51a1.27,1.27,0,0,0,.94-.27,12.28,12.28,0,0,1-1-9.42c.86-3,1.62-4.18,2.54-4,1.72.43,1.49,7,.58,11.29a6.13,6.13,0,0,1-.85,2.18,5.42,5.42,0,0,0,2.55,2.21,1.58,1.58,0,0,0,1.67-.35c-.78-1.93-.95-4.57.12-7.94,1.4-4.42,2-4.54,2.31-4.62a.67.67,0,0,1,.64.22c.92,1-.18,7.93-1.34,11.33a5,5,0,0,1-.56,1.16A5.56,5.56,0,0,0,61,79.19a4.41,4.41,0,0,0,2.28.43A6,6,0,0,1,63,79c-.79-2.15-.4-4.62,1.19-7.58,1.05-1.95,1.91-2.87,2.7-2.87h0a1.11,1.11,0,0,1,1,.66c.87,1.61.24,6.92-1.48,9.56a4,4,0,0,1-1.62,1.4c1.34,1.76,3.88,3.31,8,4.89a.49.49,0,0,1,.29.64A.51.51,0,0,1,72.57,86.06ZM66.91,69.59s-.56,0-1.82,2.35c-1.45,2.68-1.82,4.89-1.13,6.75a4,4,0,0,0,.3.67,2.93,2.93,0,0,0,1.32-1.1c1.4-2.14,2.07-6.54,1.55-8.26C67,69.65,66.92,69.59,66.91,69.59Zm-7.17-4.21a22.21,22.21,0,0,0-1.34,3.53A11.3,11.3,0,0,0,58,75.46l.09-.26A32.79,32.79,0,0,0,59.74,65.38Zm-6.58-3.15c-.17.15-.66.78-1.36,3.22a11.28,11.28,0,0,0,.73,8.24,6.18,6.18,0,0,0,.45-1.4C54,67.38,53.72,62.94,53.16,62.23Z"/><path class="cls-1" d="M110.59,138.48a9,9,0,0,1-4.56-1.19.51.51,0,0,1-.18-.69.49.49,0,0,1,.68-.17c3.57,2.09,8.18.63,9.13-.9a.88.88,0,0,0,.15-.67,8.11,8.11,0,0,1-5.13-1.46c-2.55-1.59-2.75-2.07-2.73-2.45a.61.61,0,0,1,.34-.52c1-.5,5.51,1.57,7.39,2.81a3.63,3.63,0,0,1,.62.52,3.55,3.55,0,0,0,1.9-1.14,3,3,0,0,0,.59-1.13l-.2,0c-1.6.16-3.2-.53-4.91-2.11-1.18-1.08-1.63-1.83-1.48-2.42a.88.88,0,0,1,.72-.65c1.38-.35,4.79,1.11,6.19,2.64a2.68,2.68,0,0,1,.64,1.18c1.31-.61,2.69-2,4.32-4.27a.5.5,0,1,1,.81.58c-1.88,2.64-3.46,4.14-5,4.75a3.69,3.69,0,0,1-.87,2,4.6,4.6,0,0,1-2.18,1.41,1.84,1.84,0,0,1-.28,1.39C115.66,137.42,113.25,138.48,110.59,138.48Zm-.89-6.94c.34.25.82.58,1.51,1a8,8,0,0,0,3.6,1.32A24.67,24.67,0,0,0,109.7,131.54Zm3.49-4.25a4.17,4.17,0,0,0,1.17,1.39c1.48,1.37,2.83,2,4.13,1.84l.32,0a1.81,1.81,0,0,0-.44-.83C117,128.11,113.87,127.13,113.19,127.29Z"/><path class="cls-2" d="M123.83,137.11l-15.58,2.83L94.1,62.72,64,68.18l-49,87,5.26,28.71,62.84-11.41L87.45,196l30.06-5.46L113.21,167l15.58-2.83ZM45,151.43l26-45.57,7.25,39.54Z"/><path class="cls-2" d="M249.32,57.47a58.84,58.84,0,0,0-3.2-14.22,46.31,46.31,0,0,0-7-12.19,40.37,40.37,0,0,0-12.7-10.36q-8-4.39-21.22-6.11Q177.76,11,162.42,24.33t-20.19,51a138.61,138.61,0,0,0-1,28.34q1,13,4.78,20.93a43.74,43.74,0,0,0,14.65,17.78q9.47,6.65,25.95,8.79Q216,155,230.2,139.89T249,88.79A129.48,129.48,0,0,0,249.32,57.47Z"/><path class="cls-1" d="M195.65,140.91c-2.4-.08-5-.3-7.6-.64-9.16-1.19-16.24-3.51-21.06-6.89A32.66,32.66,0,0,1,156,120l-.05-.11c-1.92-4-3.18-9.75-3.73-17a128.2,128.2,0,0,1,.92-26.1c3.57-27.72,10.94-39.29,16.49-44.11,6.48-5.62,15.22-8.16,26.73-7.76,2.36.08,4.86.29,7.42.62,7.39,1,13.23,2.6,17.37,4.86a29.56,29.56,0,0,1,9.31,7.49,35,35,0,0,1,5.36,9.27,48.25,48.25,0,0,1,2.56,11.55,118.67,118.67,0,0,1-.29,28.72c-2.77,21.54-8.13,36.68-15.92,45-5.78,6.16-14.45,9-26.51,8.54Z"/><path class="cls-2" d="M215.23,57.77l.12-3.79L213,53.22a22.82,22.82,0,0,0-.62-3.8l2-1.46L213,44.4l-2.44.2a22,22,0,0,0-2-3.27l1.27-2.11-2.6-2.77-2.18,1.12a23.82,23.82,0,0,0-3.12-2.26l.35-2.42-3.46-1.57-1.58,1.86a23.13,23.13,0,0,0-3.76-.88l-.58-2.37-3.8-.13-.75,2.32a23.84,23.84,0,0,0-3.81.62l-1.46-2-3.56,1.33.2,2.44a22.39,22.39,0,0,0-3.27,2l-2.1-1.27-2.78,2.59,1.12,2.19a21.78,21.78,0,0,0-2.25,3.13L168,42.86l-1.58,3.46,1.87,1.58a21.43,21.43,0,0,0-.88,3.76l-2.39.6L164.92,56l2.34.76a22.6,22.6,0,0,0,.62,3.81l-2,1.45,1.34,3.56,2.44-.2a21.51,21.51,0,0,0,2,3.27l-1.27,2.11,2.6,2.77,2.18-1.11a23.1,23.1,0,0,0,3.12,2.25L178,77.13l3.46,1.57L183,76.85a23.12,23.12,0,0,0,3.76.87l.58,2.38,3.8.13.75-2.33a22.77,22.77,0,0,0,3.81-.62l1.45,2,3.56-1.33-.19-2.43a24.89,24.89,0,0,0,3.27-2l2.1,1.26,2.78-2.59-1.12-2.19a21.69,21.69,0,0,0,2.25-3.12l2.42.36,1.58-3.46L212,62.12a21.32,21.32,0,0,0,.88-3.75ZM189.63,70a15,15,0,1,1,15.54-14.51A15,15,0,0,1,189.63,70Z"/><path class="cls-6" d="M231,127.35l.28-2.56-1.54-.62a15,15,0,0,0-.23-2.6l1.4-.89-.71-2.47-1.66,0a14,14,0,0,0-1.2-2.31l1-1.36-1.6-2-1.54.64a15.37,15.37,0,0,0-2-1.68l.38-1.62-2.26-1.24-1.17,1.19a15.87,15.87,0,0,0-2.48-.79l-.28-1.63-2.55-.29-.63,1.54a15.06,15.06,0,0,0-2.6.24l-.88-1.42-2.47.73v1.66a14.9,14.9,0,0,0-2.31,1.2l-1.36-1-2,1.6.64,1.53a15.3,15.3,0,0,0-1.67,2l-1.62-.36-1.23,2.25,1.17,1.17a16,16,0,0,0-.78,2.49l-1.64.27-.27,2.55,1.53.64a13.83,13.83,0,0,0,.23,2.58l-1.41.89.72,2.47h1.66a15.22,15.22,0,0,0,1.2,2.3l-1,1.36,1.6,2,1.55-.65a14.55,14.55,0,0,0,2,1.67l-.37,1.63,2.25,1.23,1.17-1.17a16.12,16.12,0,0,0,2.48.77l.28,1.64,2.56.28.62-1.53a16.22,16.22,0,0,0,2.6-.24l.89,1.41,2.45-.72v-1.66a15.82,15.82,0,0,0,2.31-1.2l1.35,1,2-1.61-.65-1.53a16.28,16.28,0,0,0,1.69-2l1.61.36,1.24-2.25-1.18-1.16a16.47,16.47,0,0,0,.77-2.48Zm-12.87-1a4.46,4.46,0,1,1-1.77-6A4.47,4.47,0,0,1,218.14,126.35Z"/><path class="cls-3" d="M245.18,84.13l-3-2.06h0A17.31,17.31,0,0,0,241,79l.76-3-4.32-4.63-3.05.56a16.56,16.56,0,0,0-3-1.41h0l-1.85-3.12-6.33-.21-2.06,3h0a15.92,15.92,0,0,0-3.1,1.2l-3-.77-4.63,4.33.56,3h0a15.68,15.68,0,0,0-1.41,3l-3.12,1.85-.21,6.33,3,2.06a16.11,16.11,0,0,0,1.2,3.12h0l-.76,3,4.32,4.63,3-.55a17.16,17.16,0,0,0,3,1.41h0l1.84,3.11,6.33.22,2.06-3a16.61,16.61,0,0,0,3.13-1.2h0l3,.76L241,98.38l-.55-3a16,16,0,0,0,1.4-3h0L245,90.46Zm-19.73,9.62a7.12,7.12,0,1,1,7.36-6.87A7.13,7.13,0,0,1,225.45,93.75Z"/><path class="cls-2" d="M266.93,33.6l.52-1.25h0a6.35,6.35,0,0,0,1.05-.69l1.16.05,1.36-2-.44-1.07a7,7,0,0,0,.28-1.22h0l1-.92-.41-2.35-1.26-.52h0a6.35,6.35,0,0,0-.69-1.05l.05-1.16-2-1.36-1.08.45h0a5.55,5.55,0,0,0-1.22-.28l-.92-1-2.35.42L261.5,21a6.5,6.5,0,0,0-1.05.68h0l-1.16,0-1.35,1.95.44,1.07a5.55,5.55,0,0,0-.28,1.22h0l-1,.93.42,2.34,1.26.52a5.73,5.73,0,0,0,.68,1.05h0l0,1.15,1.95,1.36,1.07-.44a6.5,6.5,0,0,0,1.22.27h0l.93,1Zm-5.09-6.48A2.68,2.68,0,1,1,265,29.28,2.68,2.68,0,0,1,261.84,27.12Z"/><path class="cls-2" d="M239.5,27l-.77-.65a19.9,19.9,0,0,1,6-5l.46.88A18.93,18.93,0,0,0,239.5,27Z"/><path class="cls-2" d="M247.48,21.28l-.39-.92a23.9,23.9,0,0,1,11.73-1.88l-.09,1A22.79,22.79,0,0,0,247.48,21.28Z"/><path class="cls-2" d="M245.59,28.2l-.82-.56a16.74,16.74,0,0,1,9.87-6.39l.19,1A15.72,15.72,0,0,0,245.59,28.2Z"/><path class="cls-3" d="M179.23,124.44a.52.52,0,0,1-.36-.16l-2.09-2.16a17.49,17.49,0,0,1-3.15-.58L170.36,123a.49.49,0,0,1-.47,0l-5.48-3.63a.49.49,0,0,1-.22-.43l.05-3.56a18,18,0,0,1-1.77-2.68l-2.8-1.08a.5.5,0,0,1-.31-.37l-1.31-6.44a.51.51,0,0,1,.15-.46l2.16-2.09a17.82,17.82,0,0,1,.58-3.15l-1.44-3.27a.49.49,0,0,1,0-.47l3.63-5.48a.47.47,0,0,1,.43-.22l3.56,0a16.52,16.52,0,0,1,2.68-1.76l1.09-2.81a.49.49,0,0,1,.36-.31l6.44-1.3a.49.49,0,0,1,.46.14l2.09,2.16a17.65,17.65,0,0,1,3.15.58l3.27-1.44a.51.51,0,0,1,.48,0l5.47,3.63a.5.5,0,0,1,.22.43l-.05,3.56a16.52,16.52,0,0,1,1.76,2.68l2.81,1.09a.49.49,0,0,1,.31.36l1.31,6.44a.5.5,0,0,1-.15.46l-2.16,2.1a18,18,0,0,1-.58,3.14l1.44,3.27a.51.51,0,0,1,0,.48l-3.63,5.47a.53.53,0,0,1-.43.22l-3.56-.05a18.38,18.38,0,0,1-2.67,1.76l-1.09,2.81a.5.5,0,0,1-.37.31l-6.44,1.31Zm-5.63-3.93a.36.36,0,0,1,.14,0,16.66,16.66,0,0,0,3.31.61.51.51,0,0,1,.31.15l2,2.1,5.9-1.19,1.06-2.74a.55.55,0,0,1,.24-.26,16.05,16.05,0,0,0,2.81-1.85.47.47,0,0,1,.33-.11l3.47.05,3.32-5-1.4-3.18a.45.45,0,0,1,0-.34,17.49,17.49,0,0,0,.61-3.31.51.51,0,0,1,.15-.32l2.1-2-1.19-5.9-2.73-1.06a.49.49,0,0,1-.27-.24,16.43,16.43,0,0,0-1.85-2.81.52.52,0,0,1-.11-.32l.05-3.48-5-3.32-3.17,1.4a.52.52,0,0,1-.35,0,17,17,0,0,0-3.32-.61.56.56,0,0,1-.32-.15l-2-2.1-5.9,1.2-1.06,2.72a.51.51,0,0,1-.23.27,15.94,15.94,0,0,0-2.82,1.85.44.44,0,0,1-.33.11l-3.47,0-3.32,5,1.4,3.18a.5.5,0,0,1,0,.43,17.13,17.13,0,0,0-.58,3.23.56.56,0,0,1-.15.32l-2.1,2,1.2,5.9,2.72,1.06a.49.49,0,0,1,.27.26,16.27,16.27,0,0,0,1.85,2.79.48.48,0,0,1,.11.32l-.05,3.48,5,3.32,3.18-1.4A.52.52,0,0,1,173.6,120.51Zm4.91-3.24a13.32,13.32,0,0,1-11.09-20.68h0a13.33,13.33,0,1,1,11.09,20.68ZM168.25,97.14a12.33,12.33,0,1,0,17.09-3.46,12.31,12.31,0,0,0-17.09,3.46Z"/><path class="cls-2" d="M369.72,146.13,354,144,364.4,66.2l-30.28-4.08-73.45,67.62-3.86,28.93,63.29,8.54-3.16,23.67L347.22,195l3.16-23.66,15.69,2.12ZM290.3,135.41l38.75-35.33-5.31,39.84Z"/><path class="cls-1" d="M338,194.22h-.09a.5.5,0,0,1-.4-.58L360.86,65.7a.51.51,0,0,1,.58-.4.5.5,0,0,1,.4.58L338.51,193.81A.49.49,0,0,1,338,194.22Z"/><path class="cls-1" d="M358.72,67.85a.82.82,0,1,1-1.64-.06.82.82,0,0,1,1.64.06Z"/><path class="cls-1" d="M355.39,85.15a.82.82,0,0,1-.85.79.81.81,0,0,1-.79-.85.82.82,0,0,1,1.64.06Z"/><path class="cls-1" d="M352.06,102.45a.82.82,0,0,1-.85.79.81.81,0,0,1-.79-.84.82.82,0,0,1,.84-.8A.83.83,0,0,1,352.06,102.45Z"/><path class="cls-1" d="M345.5,120.46a.82.82,0,0,1-1.64,0,.83.83,0,0,1,.85-.8A.82.82,0,0,1,345.5,120.46Z"/><path class="cls-1" d="M345.39,137.05a.82.82,0,1,1-.79-.84A.81.81,0,0,1,345.39,137.05Z"/><path class="cls-1" d="M342.06,154.35a.82.82,0,0,1-.85.79.81.81,0,0,1-.79-.84.82.82,0,0,1,1.64,0Z"/><path class="cls-1" d="M338.73,171.65a.83.83,0,0,1-.85.8.82.82,0,0,1-.79-.85.81.81,0,0,1,.84-.79A.82.82,0,0,1,338.73,171.65Z"/><path class="cls-1" d="M335.39,189a.82.82,0,0,1-.84.79.83.83,0,0,1-.8-.85.82.82,0,0,1,.85-.79A.81.81,0,0,1,335.39,189Z"/><path class="cls-1" d="M344.68,120.93a.5.5,0,0,1-.49-.39.52.52,0,0,1,.39-.6l2.48-.53a.5.5,0,1,1,.21,1l-2.48.53Z"/><path class="cls-1" d="M353,111.72a85.06,85.06,0,0,0-3,9.36c-.75,3.53-.8,11.43-.8,11.43"/><path class="cls-1" d="M349.18,133h0a.51.51,0,0,1-.5-.51c0-.32.06-8,.81-11.52a84.22,84.22,0,0,1,3-9.44.5.5,0,1,1,.93.36,84.37,84.37,0,0,0-3,9.29c-.73,3.44-.79,11.24-.79,11.32A.5.5,0,0,1,349.18,133Z"/></g><g id="Shadow"><ellipse id="_Path_" data-name="&lt;Path&gt;" class="cls-7" cx="193.89" cy="330.72" rx="193.89" ry="11.32"/></g><g id="Oops_" data-name="Oops!"><path class="cls-1" d="M30.6,35.13C29.6,30.72,30.05,27,32,24s5-5,9.41-6,8.22-.6,11.2,1.26,5,5,5.95,9.3a17.15,17.15,0,0,1,.17,8.12,11.71,11.71,0,0,1-3.53,5.76A15.58,15.58,0,0,1,48,45.81a17.65,17.65,0,0,1-7.88.27,11.67,11.67,0,0,1-5.9-3.5A15.77,15.77,0,0,1,30.6,35.13ZM39,33.27q.93,4.08,2.85,5.52a5.3,5.3,0,0,0,4.54.85A5.3,5.3,0,0,0,50.1,37c.72-1.39.73-3.6,0-6.61-.57-2.54-1.51-4.28-2.8-5.22a5.36,5.36,0,0,0-4.56-.81A5.18,5.18,0,0,0,39.13,27C38.39,28.44,38.32,30.52,39,33.27Z"/><path class="cls-1" d="M62.48,31.83a10,10,0,0,1,1.34-8.06A11.58,11.58,0,0,1,71.32,19q5.87-1.34,9.64,1.39a10.13,10.13,0,0,1,4,6.2,10.1,10.1,0,0,1-1.31,8.07Q81.26,38.25,76,39.44a11.83,11.83,0,0,1-8.16-.66A9.85,9.85,0,0,1,62.48,31.83ZM70,30.1a6.08,6.08,0,0,0,1.93,3.63,3.56,3.56,0,0,0,5.32-1.19,6.21,6.21,0,0,0,.14-4.2,5.92,5.92,0,0,0-1.9-3.54,3.33,3.33,0,0,0-2.88-.65A3.49,3.49,0,0,0,70.18,26,6,6,0,0,0,70,30.1Z"/><path class="cls-1" d="M92.47,43.05l-6.13-27,7-1.6L94,17.36a9.5,9.5,0,0,1,2.11-3.07,7.87,7.87,0,0,1,3.42-1.69,7.22,7.22,0,0,1,6.75,1.62,12.81,12.81,0,0,1,3.83,6.93q1.11,4.88-.65,8A7.83,7.83,0,0,1,104.15,33a8.57,8.57,0,0,1-3.29.13A7.76,7.76,0,0,1,97.92,32L100,41.33Zm3.61-18.86a5.29,5.29,0,0,0,1.76,3.22,3.19,3.19,0,0,0,2.72.56,2.82,2.82,0,0,0,2-1.57,6,6,0,0,0,0-3.86,5.61,5.61,0,0,0-1.71-3.28,2.91,2.91,0,0,0-2.5-.6,3.12,3.12,0,0,0-2.14,1.67A5.72,5.72,0,0,0,96.08,24.19Z"/><path class="cls-1" d="M113.32,24.78l7.28-2.39a3.75,3.75,0,0,0,1.72,1.6,4.69,4.69,0,0,0,4.53-1.1,1.49,1.49,0,0,0,.37-1.34,1.39,1.39,0,0,0-1.13-1.06,15.58,15.58,0,0,0-3.4,0,33.63,33.63,0,0,1-5.7,0,6,6,0,0,1-3-1.37,5.29,5.29,0,0,1-1.75-2.91,5.27,5.27,0,0,1,.37-3.58,6.68,6.68,0,0,1,2.61-2.79,16.78,16.78,0,0,1,5.13-1.89,18.48,18.48,0,0,1,5.28-.64,6.91,6.91,0,0,1,3.16,1,8.84,8.84,0,0,1,2.53,2.62l-6.94,2.31A2.55,2.55,0,0,0,123.14,12a3.85,3.85,0,0,0-2.27-.1,3.08,3.08,0,0,0-1.75.87,1.35,1.35,0,0,0-.33,1.22,1.2,1.2,0,0,0,1,.92,12.36,12.36,0,0,0,3.36-.07,22.42,22.42,0,0,1,5.82-.08,6.29,6.29,0,0,1,3.28,1.51,5.46,5.46,0,0,1,1.66,2.85,6.18,6.18,0,0,1-.27,3.53A7.08,7.08,0,0,1,131,25.94a15.76,15.76,0,0,1-5.78,2.31q-5.36,1.21-8,.21A7.07,7.07,0,0,1,113.32,24.78Z"/><path class="cls-1" d="M137.74.05,146,0l0,6.3L144.47,19l-5.08,0L137.77,6.35Zm.4,20.88,7.66,0,0,6.78-7.66,0Z"/></g></g></g></svg>