<svg xmlns="http://www.w3.org/2000/svg" xmlns:xlink="http://www.w3.org/1999/xlink" viewBox="0 0 2134.85 1380.38"><defs><style>.cls-1{fill:url(#linear-gradient);}.cls-2{fill:none;}.cls-3{isolation:isolate;}.cls-4{clip-path:url(#clip-path);}.cls-5{fill:url(#linear-gradient-2);}.cls-6{fill:#beb8f2;}.cls-111,.cls-7,.cls-8,.cls-99{fill:#6165d7;}.cls-109,.cls-35,.cls-37,.cls-43,.cls-48,.cls-7,.cls-76,.cls-8,.cls-85,.cls-87,.cls-99{mix-blend-mode:multiply;}.cls-7{opacity:0.19;}.cls-8{opacity:0.32;}.cls-9{fill:url(#linear-gradient-3);}.cls-10{fill:url(#linear-gradient-4);}.cls-11{fill:url(#linear-gradient-5);}.cls-12{clip-path:url(#clip-path-2);}.cls-13{fill:#fcfdfe;}.cls-14,.cls-76{fill:#d8dee8;}.cls-15{fill:#f4f7fa;}.cls-16,.cls-93{fill:#fff;}.cls-17{fill:#c281e8;}.cls-18{fill:url(#linear-gradient-6);}.cls-19{fill:#f8924e;}.cls-20{fill:#ffc244;}.cls-21{fill:#9c73f4;}.cls-22{fill:url(#linear-gradient-7);}.cls-23{fill:#a67ff7;}.cls-24{fill:url(#linear-gradient-8);}.cls-25{fill:url(#linear-gradient-9);}.cls-26{clip-path:url(#clip-path-3);}.cls-27{fill:url(#linear-gradient-10);}.cls-28{fill:url(#linear-gradient-11);}.cls-29{fill:url(#linear-gradient-12);}.cls-30{clip-path:url(#clip-path-4);}.cls-31{fill:url(#linear-gradient-13);}.cls-32{clip-path:url(#clip-path-5);}.cls-33{fill:url(#linear-gradient-14);}.cls-34{fill:url(#linear-gradient-15);}.cls-35{opacity:0.35;}.cls-36{fill:url(#linear-gradient-16);}.cls-37{opacity:0.13;}.cls-38{fill:url(#linear-gradient-17);}.cls-39{fill:#ffa6a4;}.cls-40{fill:url(#linear-gradient-18);}.cls-41{fill:url(#linear-gradient-19);}.cls-42{fill:url(#linear-gradient-20);}.cls-109,.cls-43{opacity:0.24;}.cls-44{fill:#552d63;}.cls-45{fill:url(#linear-gradient-21);}.cls-46{fill:url(#linear-gradient-22);}.cls-47{fill:url(#linear-gradient-23);}.cls-48{opacity:0.2;}.cls-49{fill:url(#linear-gradient-24);}.cls-50{fill:url(#linear-gradient-25);}.cls-51{fill:url(#linear-gradient-26);}.cls-52{fill:#9f73f8;}.cls-53{fill:#ae87f9;}.cls-54{fill:url(#linear-gradient-27);}.cls-55{fill:url(#linear-gradient-28);}.cls-56{fill:url(#linear-gradient-29);}.cls-57{fill:url(#linear-gradient-30);}.cls-58{fill:url(#linear-gradient-31);}.cls-59{fill:#26264f;}.cls-60{fill:#444b8c;}.cls-61{fill:url(#linear-gradient-32);}.cls-62{fill:#1f1f44;}.cls-63{fill:url(#linear-gradient-33);}.cls-64{fill:url(#linear-gradient-34);}.cls-65{fill:url(#linear-gradient-35);}.cls-66{fill:url(#linear-gradient-36);}.cls-67{fill:url(#linear-gradient-37);}.cls-68{fill:url(#linear-gradient-38);}.cls-69{clip-path:url(#clip-path-6);}.cls-70{fill:url(#linear-gradient-39);}.cls-71{clip-path:url(#clip-path-7);}.cls-72{fill:#5a2f71;}.cls-73{fill:url(#linear-gradient-40);}.cls-74{fill:url(#linear-gradient-41);}.cls-75{clip-path:url(#clip-path-8);}.cls-76{opacity:0.47;}.cls-77{fill:url(#linear-gradient-42);}.cls-78{fill:url(#linear-gradient-43);}.cls-79{fill:url(#linear-gradient-44);}.cls-80{fill:url(#linear-gradient-45);}.cls-81{fill:url(#linear-gradient-46);}.cls-82{fill:url(#linear-gradient-47);}.cls-83{fill:url(#linear-gradient-48);}.cls-84{fill:url(#linear-gradient-49);}.cls-85,.cls-87{opacity:0.25;}.cls-85{fill:url(#linear-gradient-50);}.cls-86{fill:url(#linear-gradient-51);}.cls-87{fill:url(#linear-gradient-52);}.cls-88{fill:url(#linear-gradient-53);}.cls-89{fill:url(#linear-gradient-54);}.cls-90{fill:url(#linear-gradient-55);}.cls-91{fill:url(#linear-gradient-56);}.cls-92{mask:url(#mask);}.cls-93{opacity:0.82;}.cls-94{fill:#6567d9;}.cls-95{fill:url(#linear-gradient-57);}.cls-96{fill:url(#linear-gradient-58);}.cls-97{fill:#726bdf;}.cls-98{fill:url(#linear-gradient-59);}.cls-99{opacity:0.3;}.cls-100{fill:url(#linear-gradient-60);}.cls-101{fill:url(#linear-gradient-61);}.cls-102{fill:url(#linear-gradient-62);}.cls-103{fill:url(#linear-gradient-63);}.cls-104{fill:url(#linear-gradient-64);}.cls-105{fill:url(#linear-gradient-65);}.cls-106{fill:url(#linear-gradient-66);}.cls-107{fill:url(#linear-gradient-67);}.cls-108{fill:url(#linear-gradient-68);}.cls-109{fill:#f8944e;}.cls-110{fill:url(#linear-gradient-69);}.cls-112{fill:url(#linear-gradient-70);}.cls-113{fill:url(#linear-gradient-71);}.cls-114{fill:#4c53a5;}.cls-115{fill:url(#linear-gradient-72);}.cls-116{fill:url(#linear-gradient-73);}.cls-117{fill:url(#linear-gradient-74);}.cls-118{fill:url(#linear-gradient-75);}.cls-119{fill:url(#linear-gradient-76);}.cls-120{fill:url(#linear-gradient-77);}</style><linearGradient id="linear-gradient" x1="724.51" y1="1088.16" x2="724.51" y2="690.4" gradientUnits="userSpaceOnUse"><stop offset="0.3"/><stop offset="0.36" stop-color="#070707"/><stop offset="0.45" stop-color="#1b1b1b"/><stop offset="0.56" stop-color="#3b3b3b"/><stop offset="0.68" stop-color="#686868"/><stop offset="0.81" stop-color="#a2a2a2"/><stop offset="0.95" stop-color="#e7e7e7"/><stop offset="1" stop-color="#fff"/></linearGradient><clipPath id="clip-path"><path class="cls-2" d="M1690.7,734.25q-47.73-1.69-95.58-5.58c-.45.52-18.25-66.4,10.12-105.67,56.27-76.22,6.34-133.5-10-168.91-25.4-49.67-22.31-113.8,36.11-108.32,56.76,4,52.51-111.47,33.14-198.64-13-42,21.8-98.64,60.92-115,39.81-17.77,84,4.68,106.1,88.88,30.09,97-35.62,164.78-56.9,217.44-21,51.7,44.72,84.38.16,133.06-37.25,43-86.51,76.4-62,122.53C1737.67,639.53,1737.28,679.05,1690.7,734.25Z"/></clipPath><linearGradient id="linear-gradient-2" x1="488.95" y1="-216.55" x2="262.78" y2="426.26" gradientTransform="matrix(-0.92, -0.4, -0.4, 0.92, 2088.95, 439.71)" gradientUnits="userSpaceOnUse"><stop offset="0" stop-color="#aa80f9"/><stop offset="1" stop-color="#6165d7"/></linearGradient><linearGradient id="linear-gradient-3" x1="1729.81" y1="723.86" x2="1874.56" y2="772.52" gradientUnits="userSpaceOnUse"><stop offset="0" stop-color="#ab316d"/><stop offset="1" stop-color="#792d3d"/></linearGradient><linearGradient id="linear-gradient-4" x1="1715.09" y1="658.57" x2="1828.67" y2="658.57" gradientUnits="userSpaceOnUse"><stop offset="0" stop-color="#ffc444"/><stop offset="1" stop-color="#f36f56"/></linearGradient><linearGradient id="linear-gradient-5" x1="1678.9" y1="426.53" x2="1955.46" y2="426.53" gradientUnits="userSpaceOnUse"><stop offset="0" stop-color="#e38ddd"/><stop offset="1" stop-color="#9571f6"/></linearGradient><clipPath id="clip-path-2"><path class="cls-2" d="M1831.63,660.56,1727.8,695c-10.92-12.7-27.64-37.25-8.13-51.14,27.12-19.3,9.78-72.66-4.89-88.63-18.16-19.76-59.49-66.66-18-97.16,34.51-25.4,62-34.74,47.73-85.46s2.38-91,48.54-103.44c48.59-13.06,66-89.58,112.17-81.67,80.39,13.78,56.27,144.44-15.42,204.31s-14.24,73.5,1.85,113.49c22,54.6-57.29,68.31-69.72,96.93C1812.16,624.65,1823.1,647.32,1831.63,660.56Z"/></clipPath><linearGradient id="linear-gradient-6" x1="950.09" y1="331.71" x2="1072.48" y2="331.71" gradientUnits="userSpaceOnUse"><stop offset="0" stop-color="#ff9085"/><stop offset="1" stop-color="#fb6fbb"/></linearGradient><linearGradient id="linear-gradient-7" x1="1357.08" y1="337.16" x2="1600.67" y2="337.16" xlink:href="#linear-gradient-6"/><linearGradient id="linear-gradient-8" x1="514.92" y1="759.9" x2="618.4" y2="759.9" xlink:href="#linear-gradient-6"/><linearGradient id="linear-gradient-9" x1="504.38" y1="449.6" x2="562.44" y2="449.6" xlink:href="#linear-gradient-6"/><clipPath id="clip-path-3"><path class="cls-2" d="M674,333.85q1,31,2.05,62l156.09,1q-1.27-39.4-2.57-78.85c-41.92-20-65.11-18.13-78.59-12.55-15.17,6.28-23.63,19.61-49.07,25.72A103.1,103.1,0,0,1,674,333.85Z"/></clipPath><linearGradient id="linear-gradient-10" x1="655" y1="314.38" x2="792.83" y2="436.63" xlink:href="#linear-gradient-6"/><linearGradient id="linear-gradient-11" x1="686.92" y1="280.93" x2="823.47" y2="402.05" xlink:href="#linear-gradient-6"/><linearGradient id="linear-gradient-12" x1="707.58" y1="259.9" x2="843.22" y2="380.21" xlink:href="#linear-gradient-6"/><clipPath id="clip-path-4"><path class="cls-2" d="M1340.78,641.62c14.58-10.26,26.43-12.29,34.8-12.09,10.58.24,14.1,4,25.51,2.58,11.63-1.46,12.4-5.94,25.37-8a69.78,69.78,0,0,1,25.17.88c15,3.28,15.74,8.74,24.91,8.37,8.45-.33,8.94-5,25.46-12.39,7.79-3.48,15.06-6.73,24.8-7.58,10.6-.93,11.45,2.09,24.94,1.91a102.21,102.21,0,0,0,24.31-3.48c14.24-3.55,16-6.73,25.64-8.18,5.71-.86,14.43-1.14,25.8,2.57q1.1,36.44,2.18,72.87l-287.16,7.51Q1341.64,664.1,1340.78,641.62Z"/></clipPath><linearGradient id="linear-gradient-13" x1="948.52" y1="615.87" x2="1238.84" y2="615.87" xlink:href="#linear-gradient-6"/><clipPath id="clip-path-5"><path class="cls-2" d="M289.34,970.1H391.66s19.26-52.49-5.81-89.54c-51.17-75.58,18.6-115.11,45.35-136,40.33-31.57,62.1-77,2.8-96.74s.29-111.67,72.78-153.26c70.93-40.7,39.51-190.27-122.1-116.28-96.51,44.18-81.39,146.51-86,200s-84.2,57.91-57,123.25c23.26,55.82,67.44,96.51,33.72,134.89S238.17,917.77,289.34,970.1Z"/></clipPath><linearGradient id="linear-gradient-14" x1="470.42" y1="374.54" x2="266.71" y2="953.5" gradientTransform="matrix(1, 0, 0, 1, 0, 0)" xlink:href="#linear-gradient-2"/><linearGradient id="linear-gradient-15" x1="449.94" y1="842.95" x2="857.89" y2="1714.44" xlink:href="#linear-gradient-6"/><linearGradient id="linear-gradient-16" x1="496.77" y1="821.03" x2="904.73" y2="1692.51" xlink:href="#linear-gradient-6"/><linearGradient id="linear-gradient-17" x1="449.94" y1="842.95" x2="857.89" y2="1714.44" xlink:href="#linear-gradient-6"/><linearGradient id="linear-gradient-18" x1="-1944.35" y1="1377.63" x2="-1859.62" y2="1377.63" gradientTransform="matrix(0.66, -0.75, 0.75, 0.66, 1199.9, -1147.79)" gradientUnits="userSpaceOnUse"><stop offset="0" stop-color="#40447e"/><stop offset="1" stop-color="#3c3b6b"/></linearGradient><linearGradient id="linear-gradient-19" x1="1073.64" y1="889.35" x2="1755.52" y2="1596.96" gradientTransform="translate(-167.32 26.74) rotate(5.62)" xlink:href="#linear-gradient-4"/><linearGradient id="linear-gradient-20" x1="398.57" y1="1121.4" x2="817.53" y2="1343.93" gradientTransform="translate(106.71 -43.95) rotate(-3.5)" gradientUnits="userSpaceOnUse"><stop offset="0" stop-color="#311944"/><stop offset="1" stop-color="#6b3976"/></linearGradient><linearGradient id="linear-gradient-21" x1="239.94" y1="1221.09" x2="619.83" y2="1150.51" gradientTransform="translate(106.71 -43.95) rotate(-3.5)" gradientUnits="userSpaceOnUse"><stop offset="0" stop-color="#311944"/><stop offset="1" stop-color="#893976"/></linearGradient><linearGradient id="linear-gradient-22" x1="552.49" y1="1288.74" x2="454.69" y2="1057.16" gradientTransform="translate(106.71 -43.95) rotate(-3.5)" xlink:href="#linear-gradient-2"/><linearGradient id="linear-gradient-23" x1="399.01" y1="1181.59" x2="357.5" y2="1019.21" gradientTransform="translate(106.71 -43.95) rotate(-3.5)" xlink:href="#linear-gradient-2"/><linearGradient id="linear-gradient-24" x1="399.01" y1="1181.59" x2="357.5" y2="1019.21" gradientTransform="translate(106.71 -43.95) rotate(-3.5)" xlink:href="#linear-gradient-2"/><linearGradient id="linear-gradient-25" x1="387.21" y1="1129.06" x2="586.64" y2="1076.17" gradientTransform="translate(106.71 -43.95) rotate(-3.5)" xlink:href="#linear-gradient-4"/><linearGradient id="linear-gradient-26" x1="360.42" y1="1202.18" x2="316.73" y2="1031.33" gradientTransform="translate(106.71 -43.95) rotate(-3.5)" gradientUnits="userSpaceOnUse"><stop offset="0.28" stop-color="#aa80f9"/><stop offset="1" stop-color="#6165d7"/></linearGradient><linearGradient id="linear-gradient-27" x1="347.73" y1="1006.92" x2="351.66" y2="902.21" gradientTransform="translate(106.71 -43.95) rotate(-3.5)" xlink:href="#linear-gradient-4"/><linearGradient id="linear-gradient-28" x1="325.89" y1="971.29" x2="365.31" y2="859.52" xlink:href="#linear-gradient-20"/><linearGradient id="linear-gradient-29" x1="353.24" y1="904.89" x2="350.74" y2="1106.46" gradientTransform="translate(106.71 -43.95) rotate(-3.5)" xlink:href="#linear-gradient-4"/><linearGradient id="linear-gradient-30" x1="311.23" y1="968.76" x2="359.66" y2="860.06" xlink:href="#linear-gradient-20"/><linearGradient id="linear-gradient-31" x1="315.95" y1="967.57" x2="355.09" y2="856.58" xlink:href="#linear-gradient-20"/><linearGradient id="linear-gradient-32" x1="447.74" y1="1115.27" x2="584.05" y2="1115.27" gradientTransform="translate(106.71 -43.95) rotate(-3.5)" xlink:href="#linear-gradient-18"/><linearGradient id="linear-gradient-33" x1="-384.52" y1="1426.41" x2="-316.82" y2="1426.41" gradientTransform="translate(654.31 -384.41) rotate(-22.13)" xlink:href="#linear-gradient-18"/><linearGradient id="linear-gradient-34" x1="647.6" y1="1136.38" x2="1329.51" y2="1844.02" gradientTransform="translate(106.71 -43.95) rotate(-3.5)" xlink:href="#linear-gradient-4"/><linearGradient id="linear-gradient-35" x1="364.64" y1="1184.77" x2="676.95" y2="1154.33" xlink:href="#linear-gradient-20"/><linearGradient id="linear-gradient-36" x1="244.56" y1="1245.95" x2="624.45" y2="1175.37" xlink:href="#linear-gradient-21"/><linearGradient id="linear-gradient-37" x1="380.06" y1="1196.44" x2="609.89" y2="1147.32" xlink:href="#linear-gradient-20"/><linearGradient id="linear-gradient-38" x1="338.25" y1="1045.07" x2="-73.46" y2="333.17" xlink:href="#linear-gradient-4"/><clipPath id="clip-path-6"><path class="cls-2" d="M265.94,1275.45H370.38S412,1187.18,376,1161.07s-11.19-99.72-2.48-140.5c23.62-110.65-98.57-116.47-79.58-261.1,5.06-38.46,27.55-110.13-.82-145.05-32.33-39.79-63.83-9.12-83.72-41.44-31.09-50.53-89.18-74.86-131.3-32.67C36.5,582,67.37,679.88,164.63,768.17c62.59,71.24,61.25,89.91,49.71,134.29-8.08,31.08-49.11,109.41-10.57,148s66.63,78.4,45.38,111.9C216.83,1213.29,265.94,1275.45,265.94,1275.45Z"/></clipPath><linearGradient id="linear-gradient-39" x1="104.69" y1="908.6" x2="333.55" y2="1285.37" xlink:href="#linear-gradient-5"/><clipPath id="clip-path-7"><path class="cls-2" d="M245.71,1276.6H345.8c5.83-14.16,13.28-40.3-7.66-46.75-29.12-8.95-29.42-60.29-21.28-78.38,10.08-22.4,32.47-75-12.32-89.58-37.29-12.12-63.83-12.32-66.06-60.47S210.2,923,166.53,925.55c-46,2.66-83.14-58.78-120.94-38.63-65.85,35.12-7.28,141.65,72.23,173s33.53,59.73,31.07,99.1c-3.36,53.75,69.43,42.83,88.47,64.1C252.28,1239.81,249.31,1262.64,245.71,1276.6Z"/></clipPath><linearGradient id="linear-gradient-40" x1="931.06" y1="400.04" x2="1452.31" y2="400.04" gradientUnits="userSpaceOnUse"><stop offset="0" stop-color="#e3e7ef"/><stop offset="1" stop-color="#fafbfd"/></linearGradient><linearGradient id="linear-gradient-41" x1="1721.46" y1="312.13" x2="1845.21" y2="312.13" gradientTransform="matrix(1, 0.06, -0.26, 1.01, -521.76, -59.63)" xlink:href="#linear-gradient-6"/><clipPath id="clip-path-8"><path class="cls-2" d="M1376.93,541.52,1048.56,524.3c-9.13-.48-14.94-7.86-12.94-16.48l54.64-235.54c2-8.48,10.84-14.59,19.78-13.66l321.87,33.65c7.84.82,12.77,7.89,11,15.81l-48.35,219.65C1392.82,535.77,1384.92,541.94,1376.93,541.52Z"/></clipPath><linearGradient id="linear-gradient-42" x1="1064.06" y1="378.11" x2="1041.49" y2="402.5" xlink:href="#linear-gradient-4"/><linearGradient id="linear-gradient-43" x1="1413.79" y1="424.7" x2="1379.77" y2="461.46" xlink:href="#linear-gradient-4"/><linearGradient id="linear-gradient-44" x1="1277.64" y1="339.56" x2="1425.03" y2="573.83" xlink:href="#linear-gradient-6"/><linearGradient id="linear-gradient-45" x1="1334.22" y1="943.71" x2="1334.22" y2="906.32" xlink:href="#linear-gradient-4"/><linearGradient id="linear-gradient-46" x1="1220.23" y1="954.37" x2="1220.23" y2="909.3" xlink:href="#linear-gradient-4"/><linearGradient id="linear-gradient-47" x1="333.97" y1="225.88" x2="512.11" y2="509.03" gradientTransform="translate(733.33 315.87) rotate(-19.17)" xlink:href="#linear-gradient-6"/><linearGradient id="linear-gradient-48" x1="1195.02" y1="777.33" x2="1342.47" y2="777.33" gradientTransform="matrix(1, 0, 0, 1, 0, 0)" xlink:href="#linear-gradient-21"/><linearGradient id="linear-gradient-49" x1="1190.33" y1="667.41" x2="1296.56" y2="845.84" gradientTransform="matrix(1, 0, 0, 1, 0, 0)" xlink:href="#linear-gradient-21"/><linearGradient id="linear-gradient-50" x1="1232.15" y1="642.51" x2="1338.38" y2="820.94" gradientTransform="matrix(1, 0, 0, 1, 0, 0)" xlink:href="#linear-gradient-21"/><linearGradient id="linear-gradient-51" x1="1148.1" y1="388.63" x2="1322.83" y2="666.35" xlink:href="#linear-gradient-6"/><linearGradient id="linear-gradient-52" x1="1079.39" y1="371.84" x2="1282.08" y2="694" xlink:href="#linear-gradient-6"/><linearGradient id="linear-gradient-53" x1="1297.04" y1="423.78" x2="1254.56" y2="492.5" xlink:href="#linear-gradient-4"/><linearGradient id="linear-gradient-54" x1="1270.01" y1="425.65" x2="1333.7" y2="425.65" gradientTransform="matrix(1, 0, 0, 1, 0, 0)" xlink:href="#linear-gradient-20"/><linearGradient id="linear-gradient-55" x1="700.86" y1="336.39" x2="659.74" y2="402.9" gradientTransform="translate(521.38 253.07) rotate(-13.66)" xlink:href="#linear-gradient-4"/><linearGradient id="linear-gradient-56" x1="1252.46" y1="433.6" x2="1289.12" y2="491.87" xlink:href="#linear-gradient-5"/><mask id="mask" x="402.86" y="690.4" width="643.29" height="397.77" maskUnits="userSpaceOnUse"><polygon class="cls-1" points="642.67 690.4 402.86 1088.16 1046.15 1088.16 817.78 698.62 642.67 690.4"/></mask><linearGradient id="linear-gradient-57" x1="648.71" y1="618.76" x2="787.37" y2="734.55" xlink:href="#linear-gradient-5"/><linearGradient id="linear-gradient-58" x1="637.34" y1="632.37" x2="776" y2="748.17" xlink:href="#linear-gradient-5"/><linearGradient id="linear-gradient-59" x1="689.58" y1="635.52" x2="765.23" y2="635.52" gradientTransform="matrix(1, 0, 0, 1, 0, 0)" xlink:href="#linear-gradient-2"/><linearGradient id="linear-gradient-60" x1="1951.65" y1="950.32" x2="1977" y2="950.32" xlink:href="#linear-gradient-4"/><linearGradient id="linear-gradient-61" x1="1665.13" y1="1127.23" x2="1689.52" y2="1051.68" xlink:href="#linear-gradient-4"/><linearGradient id="linear-gradient-62" x1="1606.83" y1="810.28" x2="1683.28" y2="810.28" xlink:href="#linear-gradient-4"/><linearGradient id="linear-gradient-63" x1="1684.3" y1="602.36" x2="1777.68" y2="602.36" gradientUnits="userSpaceOnUse"><stop offset="0" stop-color="#6e1f3f"/><stop offset="1" stop-color="#792d3d"/></linearGradient><linearGradient id="linear-gradient-64" x1="1661.94" y1="940.84" x2="1811.56" y2="940.84" gradientTransform="matrix(1, 0, 0, 1, 0, 0)" xlink:href="#linear-gradient-21"/><linearGradient id="linear-gradient-65" x1="1735.67" y1="879.43" x2="1851.18" y2="1330.14" gradientTransform="matrix(1, 0, 0, 1, 0, 0)" xlink:href="#linear-gradient-21"/><linearGradient id="linear-gradient-66" x1="1463.32" y1="1113.15" x2="1648.75" y2="1113.15" gradientTransform="translate(197.72 -34.69) rotate(-6.32)" xlink:href="#linear-gradient-21"/><linearGradient id="linear-gradient-67" x1="1399.29" y1="889.48" x2="1466.36" y2="926.15" gradientTransform="translate(166.05 -24.03) rotate(-5.2)" xlink:href="#linear-gradient-4"/><linearGradient id="linear-gradient-68" x1="1749.33" y1="737.54" x2="2040.23" y2="921.87" xlink:href="#linear-gradient-4"/><linearGradient id="linear-gradient-69" x1="1791.94" y1="835.45" x2="1813.44" y2="860.04" xlink:href="#linear-gradient-4"/><linearGradient id="linear-gradient-70" x1="1703.04" y1="760.26" x2="1934.54" y2="760.26" gradientTransform="matrix(1, 0, 0, 1, 0, 0)" xlink:href="#linear-gradient-2"/><linearGradient id="linear-gradient-71" x1="1741.93" y1="777.11" x2="1819.19" y2="777.11" xlink:href="#linear-gradient-6"/><linearGradient id="linear-gradient-72" x1="1779.68" y1="699.6" x2="1881.03" y2="815.52" xlink:href="#linear-gradient-4"/><linearGradient id="linear-gradient-73" x1="-1355" y1="1073.5" x2="-1350.53" y2="954.41" gradientTransform="matrix(-0.97, 0.23, 0.23, 0.97, 182.87, -60.59)" xlink:href="#linear-gradient-4"/><linearGradient id="linear-gradient-74" x1="1694.81" y1="537.72" x2="1877.08" y2="642.07" xlink:href="#linear-gradient-3"/><linearGradient id="linear-gradient-75" x1="1766.11" y1="605.66" x2="1968.68" y2="719.8" gradientTransform="matrix(1, 0.03, -0.03, 0.94, -66.1, -95.63)" xlink:href="#linear-gradient-3"/><linearGradient id="linear-gradient-76" x1="-1671.4" y1="840.2" x2="-1673.67" y2="1023.12" gradientTransform="matrix(-0.99, 0.14, 0.15, 1.03, -67.77, -66.81)" xlink:href="#linear-gradient-4"/><linearGradient id="linear-gradient-77" x1="1764.21" y1="609.03" x2="1966.78" y2="723.18" gradientTransform="matrix(1, 0.03, -0.03, 0.94, -66.1, -95.63)" xlink:href="#linear-gradient-3"/></defs><g class="cls-3"><g id="Layer_2" data-name="Layer 2"><g id="Illustration"><g class="cls-4"><path class="cls-5" d="M1690.7,734.25q-47.73-1.69-95.58-5.58c-.45.52-18.25-66.4,10.12-105.67,56.27-76.22,6.34-133.5-10-168.91-25.2-49.65-21.18-106.89,31.46-113.56C1685,332,1684.83,234,1664.48,147.13c-13-42,21.8-98.64,60.92-115,39.81-17.77,84,4.68,106.1,88.88,30.09,97-35.62,164.78-56.9,217.44-21,51.7,44.72,84.38.16,133.06-37.25,43-86.51,76.4-62,122.53C1737.67,639.53,1737.28,679.05,1690.7,734.25Z"/><path class="cls-6" d="M1647.53,743.11c-.36-2.77,15-151.41,50.15-292.31,4.62-23.34,9.85-46.95,14.9-69.79,28.11-127.15,54.66-247.25-2-371.23l2-.93c57,124.66,30.35,245.11,2.16,372.64-5,22.83-10.27,46.43-14.89,69.79-36,144.47-50.11,290.74-50.12,291.65Z"/><path class="cls-6" d="M1738.25,263.36l-1.81-1.3c30.59-42.63,66.6-102.39,85.94-134.5,15.71-26.08,15.75-26.06,16.87-26l0,1.12.64.88c-.93.92-7.38,11.63-15.54,25.17C1804.94,160.85,1768.9,220.66,1738.25,263.36Z"/><path class="cls-6" d="M1742.06,208.86c-24-86.4-82.92-108.78-83.47-108.83l.08-.89-.9-1.06c.55-.46,1.24-.29,2,0,12.43,3.84,63.17,33.8,84.43,110.23Z"/><path class="cls-6" d="M1679.29,545.33l-2.24,0c.74-89.57-68.45-165.41-98.23-193.86a28.8,28.8,0,0,1-2.33-2.32l1.79-1.34c.16.19,1,1,2.09,2C1610.36,378.48,1680,454.89,1679.29,545.33Z"/><path class="cls-6" d="M1688.53,500.43l-2-1c30.79-64.74,109.39-77.92,110.69-77.92h0l-.16,1.11L1796,423l1.08-.29,0,1.11C1796.35,423.84,1718.81,436.77,1688.53,500.43Z"/><path class="cls-6" d="M1650.16,719.13c-1.33-18-11.13-47.86-50.32-87.91-2.27-2.32-2.27-2.32-2.25-2.89l1.12,0,.94-.58c.14.18.91,1,1.79,1.87,39.66,40.53,49.6,70.93,51,89.3Z"/><path class="cls-6" d="M1656.58,684.29l-2.2-.38c5.74-33.12,47.88-61.53,72.48-75.51.78-.45,1.28-.73,1.45-.84l1.24,1.86c-.19.13-.73.44-1.58.92C1703.71,624.13,1662.17,652.07,1656.58,684.29Z"/></g><path class="cls-7" d="M383.7,1024.62c-.13-4.84-108.74-162.91,33.11-173C665.09,833.84,789.23,825,904,806.19c344.68-56.56,657.85-7.08,952.19-.65,55.4,1.21,174.91-8.67,238,66.48,33.89,40.36,48.26,100.34,36.79,152.83-10.64,48.66-43.43,90.61-295,224.84-133.46,71.22-197,110.69-292.7,124.74-72.43,10.62-112.76,2.21-132.22-3-90.21-24.3-137.56-89.59-175.34-130C1085.11,1080.53,817.19,1028,653.88,1033.2,522.16,1037.4,385.88,1103.39,383.7,1024.62Z"/><path class="cls-8" d="M1664.78,767c63.73,23,133.16,53.74,130,80.44-3.51,29.2-90.71,27.78-226.9,63.95C1350.9,969,1340.67,1034.08,1231.6,1024.85,1106,1014.22,1108.35,927,959.31,903.15c-56-9-136.37,3-297,26.81C554,946.05,469.33,964.34,418.87,915.52c-2.51-2.42-27.87-27-26.45-44.07C396.7,819.71,651.31,770.37,1664.78,767Z"/><path class="cls-9" d="M1810.4,815.65c-.58,5-3,9.05-6.22,10.32-8,3.15-18.39,4.34-30.52,4.36-12.31,0-22.83-1.24-30.91-4.44-3.11-1.23-5.5-5.07-6.16-9.9l-21.5-156.71h113.38Z"/><ellipse class="cls-10" cx="1771.88" cy="658.57" rx="56.79" ry="9.13"/><path class="cls-11" d="M1717.83,656.44c3,1.83,9.54,8,18.24,8.66,57.93,4.57,82.28-7.38,84.39-9.12.36-.3-1.8-25-1.46-25.33a48.29,48.29,0,0,1,2.9-28.43c12.43-28.62,91.69-42.33,69.72-96.93-16.09-40-73.54-53.62-1.85-113.49s95.81-190.53,15.42-204.31c-46.13-7.91-63.58,68.61-112.17,81.67-46.16,12.41-62.77,52.72-48.54,103.44s-13.22,60.06-47.73,85.46c-41.46,30.5-.13,77.4,18,97.16C1729.4,571.14,1744.56,637,1717.83,656.44Z"/><g class="cls-12"><path class="cls-13" d="M1775.13,660.72c-21.74-171.89,40.06-353.48,161.26-473.91l1.46,1.46c-120.76,120-182.33,300.92-160.68,472.19Z"/><path class="cls-13" d="M1771.4,566.39c-21.75-64.64-94-96.37-94.72-96.68l.82-1.89c.73.31,73.82,32.41,95.86,97.91Z"/><path class="cls-13" d="M1774,628.67l-2-.35c11.68-68,127.77-116.09,128.94-116.57l.79,1.91C1900.56,514.14,1785.52,561.83,1774,628.67Z"/><path class="cls-13" d="M1806.1,399l-2.06-.18c4.64-54.63-51.15-117.52-51.71-118.15l1.54-1.38C1754.44,279.93,1810.81,343.47,1806.1,399Z"/><path class="cls-13" d="M1852.29,299l-1.58-1.32c39.94-47.89,123.69-57,124.53-57.12l.21,2.05C1974.62,242.7,1891.69,251.76,1852.29,299Z"/></g><path class="cls-14" d="M1250,504.69l-327.07,1.66c-8.83,0-16.23-6.83-16.5-15.35L898.8,256.12c-.27-8.53,6.69-15.27,15.54-15.06L1242,248.91a15.86,15.86,0,0,1,15.31,15.2l7,225.69A14.37,14.37,0,0,1,1250,504.69Z"/><path class="cls-15" d="M1255.83,502.8l-327.07,1.65c-8.84.05-16.23-6.82-16.51-15.34l-7.6-234.88c-.28-8.53,6.68-15.27,15.53-15.06L1247.85,247a15.87,15.87,0,0,1,15.32,15.2l7,225.69A14.36,14.36,0,0,1,1255.83,502.8Z"/><polygon class="cls-16" points="1270.39 417.43 909.82 415.76 910.04 422.56 1270.6 423.97 1270.39 417.43"/><polygon class="cls-16" points="1121.13 242.33 1126.8 421.51 1133.53 421.54 1127.88 242.5 1121.13 242.33"/><path class="cls-17" d="M1082.78,456.8l-127.55,0a1.11,1.11,0,0,1-1.12-1l-.37-11.47a1,1,0,0,1,1-1l127.57.21a1.08,1.08,0,0,1,1.08,1l.36,11.3A1,1,0,0,1,1082.78,456.8Z"/><path class="cls-14" d="M1117.59,482.11l-161.53.43a1.1,1.1,0,0,1-1.12-1L954.57,470a1,1,0,0,1,1-1.05l161.55-.19a1.08,1.08,0,0,1,1.08,1l.35,11.26A1,1,0,0,1,1117.59,482.11Z"/><polygon class="cls-14" points="1245.92 306.65 1148.22 304.97 1147.02 266.77 1244.74 268.87 1245.92 306.65"/><polygon class="cls-14" points="1248.76 397.55 1151.12 396.88 1148.73 321.23 1246.42 322.73 1248.76 397.55"/><path class="cls-16" d="M1013.49,304.66c15.31.26,28.12,12.58,28.59,27.46a25.44,25.44,0,0,1-2.37,11.62l32.77,15.15a58.63,58.63,0,0,0,5.21-26.27c-1.08-34-30.27-62.25-65.32-63h-.27l1.12,35Z"/><path class="cls-18" d="M1039.71,343.74a26.38,26.38,0,0,1-24.49,15.06c-15.35-.17-28.28-12.49-28.76-27.46s11.53-26.78,26.76-26.67l-1.12-35c-35.19-.59-63.08,26.81-62,61.19s30.93,62.71,66.22,63c25.35.18,46.69-14.14,56.14-34.91Z"/><path class="cls-14" d="M1702.08,805c.44,15-10.88,27.89-25.2,28.53L425.74,895.06c-36,2.23-52.29-17-52.88-34.48L349.65,178.82l4.47-63.06c-.6-17.56,7.38-50.63,26.6-49.84l1275.11,52.3c14.4.59,26.5,13.44,26.94,28.56Z"/><path class="cls-19" d="M1684.85,217.73l-2.08-70.95c-.44-15.12-12.54-28-10.9-33.86L397.79,61.85c-44.74,1.84-51.92,27.79-51.32,45.35l3.15,71.62,23.93-4.15Z"/><path class="cls-16" d="M1739.77,807.64c.45,15.21-11,28.18-25.44,28.84l-1280.93,58c-19.31.87-35.66-12.86-36.26-30.51l-23.59-689.3,6.89-80.61c-.61-17.75,7.25-27.3,26.67-26.51l1285.81,46c14.53.59,26.76,13.59,27.21,28.87Z"/><path class="cls-20" d="M1722.25,214.13l-2.12-71.7c-.45-15.28-12.68-28.28-27.21-28.87L405,60.53c-19.42-.8-34.87,13.07-34.27,30.83l2.85,83.31Z"/><path class="cls-21" d="M459.1,121.55c.3,8.79-7.23,15.65-16.83,15.33s-17.67-7.73-18-16.55,7.27-15.68,16.89-15.32S458.8,112.77,459.1,121.55Z"/><path class="cls-21" d="M533.78,124.17c.29,8.72-7.12,15.53-16.57,15.21s-17.39-7.66-17.69-16.41,7.16-15.56,16.63-15.21S533.48,115.45,533.78,124.17Z"/><path class="cls-21" d="M607.3,126.75c.29,8.65-7,15.41-16.31,15.1s-17.12-7.6-17.42-16.28,7-15.45,16.37-15.1S607,118.1,607.3,126.75Z"/><path class="cls-15" d="M923.86,507.21c-9.89,0-18.17-7.76-18.48-17.34L897.77,255a16.35,16.35,0,0,1,4.74-12.13,17.51,17.51,0,0,1,12.91-5.07l327.67,7.85a18,18,0,0,1,17.33,17.2l7,225.69a16.42,16.42,0,0,1-16.42,17L924,507.21ZM915,241.91a13.24,13.24,0,0,0-9.52,3.85,12.22,12.22,0,0,0-3.54,9.09l7.6,234.88c.24,7.38,6.67,13.35,14.36,13.35h.07L1251,501.43a12.3,12.3,0,0,0,12.32-12.77l-7-225.69a13.8,13.8,0,0,0-13.3-13.2l-327.67-7.85Z"/><path class="cls-14" d="M1627.45,503.05l-299.21,1.51a15.16,15.16,0,0,1-15.07-14.67l-7-224.45A13.78,13.78,0,0,1,1320.41,251l299.73,7.18c7.52.18,13.8,6.69,14,14.54l6.45,216C1640.85,496.63,1635,503,1627.45,503.05Z"/><path class="cls-15" d="M1632.78,500.9l-299.21,1.51a15.15,15.15,0,0,1-15.07-14.66l-7-224.45a13.78,13.78,0,0,1,14.19-14.42l299.73,7.18c7.52.19,13.8,6.69,14,14.54l6.44,216C1646.18,494.48,1640.29,500.86,1632.78,500.9Z"/><polygon class="cls-16" points="1316.25 417.51 1316.45 424.02 1646.92 425.31 1646.73 419.05 1316.25 417.51"/><path class="cls-20" d="M1438.61,456.86H1356a1,1,0,0,1-1-1l-.34-11a1,1,0,0,1,1-1l82.66.14a1,1,0,0,1,1,1l.33,10.85A.94.94,0,0,1,1438.61,456.86Z"/><path class="cls-14" d="M1539,481l-182.23.49a1,1,0,0,1-1-1l-.33-11a1,1,0,0,1,1-1l182.25-.21a1,1,0,0,1,1,1l.33,10.72A.94.94,0,0,1,1539,481Z"/><path class="cls-22" d="M1360.17,384.85a3.1,3.1,0,0,1-2.69-4.63c21.27-37.19,45.61-57.31,72.32-59.8,16.89-1.57,29.92,4.51,42.51,10.4,11.35,5.3,23.09,10.79,38.28,11.19,28,.7,56.47-16.55,84.57-51.4a3.1,3.1,0,0,1,4.82,3.89c-29.37,36.42-59.45,54.53-89.55,53.69-16.49-.43-28.82-6.19-40.74-11.77-12.38-5.79-24.06-11.25-39.32-9.84-24.59,2.29-47.3,21.37-67.51,56.71A3.1,3.1,0,0,1,1360.17,384.85Z"/><path class="cls-16" d="M1526.46,345.31a11.58,11.58,0,0,1-11.62,12.22A12.86,12.86,0,0,1,1502.43,345a11.58,11.58,0,0,1,11.66-12.22A12.86,12.86,0,0,1,1526.46,345.31Z"/><path class="cls-23" d="M1515,359.1h-.16a14.46,14.46,0,0,1-14-14.06,13.47,13.47,0,0,1,3.83-10,12.83,12.83,0,0,1,9.21-3.84h.2A14.47,14.47,0,0,1,1528,345.27a13.52,13.52,0,0,1-3.83,10A12.8,12.8,0,0,1,1515,359.1Zm-1.07-24.75a9.67,9.67,0,0,0-7,2.91A10.34,10.34,0,0,0,1504,345a11.29,11.29,0,0,0,10.86,11A9.57,9.57,0,0,0,1522,353a10.4,10.4,0,0,0,2.92-7.68,11.29,11.29,0,0,0-10.82-11Z"/><polygon class="cls-14" points="1457.81 291.53 1352.21 289.48 1351.64 271.17 1457.26 273.44 1457.81 291.53"/><polygon class="cls-17" points="1574.29 373.54 1532.71 373.13 1532.3 359.43 1573.88 359.91 1574.29 373.54"/><path class="cls-14" d="M844.78,811.8l-358.5,13.67c-9.7.37-17.82-6.56-18.12-15.47l-8.35-245.88c-.3-8.93,7.34-16.25,17.06-16.34l359.19-3.27c9-.08,16.48,6.8,16.76,15.36L860.5,795.7C860.78,804.25,853.75,811.46,844.78,811.8Z"/><path class="cls-15" d="M850.11,809.65,491.6,823.32c-9.69.37-17.81-6.56-18.12-15.47L465.14,562c-.31-8.93,7.34-16.25,17.06-16.33l359.19-3.28c9-.08,16.48,6.8,16.76,15.36l7.68,235.83C866.11,802.1,859.08,809.31,850.11,809.65Z"/><polygon class="cls-16" points="865.76 716.05 470.59 727.12 470.83 734.25 865.98 722.89 865.76 716.05"/><polygon class="cls-14" points="829.95 646.59 512.32 653.06 509.66 574.25 827.46 570.39 829.95 646.59"/><polygon class="cls-14" points="831.31 688.19 513.77 696.1 512.84 668.29 830.43 661.31 831.31 688.19"/><path class="cls-24" d="M617.28,765.29l-100.73,3.27a1.15,1.15,0,0,1-1.22-1.06l-.41-12a1.15,1.15,0,0,1,1.15-1.13l100.74-3.12a1.12,1.12,0,0,1,1.19,1l.4,11.88A1.12,1.12,0,0,1,617.28,765.29Z"/><path class="cls-14" d="M711.68,788.67l-194.22,6.86a1.13,1.13,0,0,1-1.22-1l-.41-12a1.15,1.15,0,0,1,1.15-1.13l194.24-6.57a1.11,1.11,0,0,1,1.18,1l.38,11.75A1.1,1.1,0,0,1,711.68,788.67Z"/><path class="cls-14" d="M850.07,491.19c.28,8.57-6.76,15.56-15.75,15.6L475,508.61c-9.72.05-17.85-7.16-18.16-16.09l-8.36-246.43c-.31-9,7.36-16,17.09-15.78l360,8.62c9,.22,16.52,7.35,16.79,15.94Z"/><path class="cls-15" d="M855.92,489.3c.28,8.57-6.77,15.56-15.75,15.6l-359.29,1.82c-9.72,0-17.86-7.16-18.16-16.09L454.35,244.2c-.3-8.95,7.36-16,17.1-15.78l360,8.62c9,.22,16.52,7.35,16.8,15.94Z"/><polygon class="cls-16" points="855.88 415.68 459.86 413.83 460.1 420.98 856.1 422.52 855.88 415.68"/><polygon class="cls-16" points="643.99 230.81 650.27 419.55 657.75 419.58 651.47 231 643.99 230.81"/><polygon class="cls-14" points="614.13 344.48 501.85 343.13 498.8 252.85 611.15 255.27 614.13 344.48"/><polygon class="cls-14" points="615.76 393.19 503.51 392.42 502.44 360.57 614.71 361.72 615.76 393.19"/><path class="cls-25" d="M561.3,456.71H506a1.2,1.2,0,0,1-1.23-1.1l-.41-12a1.1,1.1,0,0,1,1.15-1.09l55.3.09a1.18,1.18,0,0,1,1.21,1.09l.4,12A1.08,1.08,0,0,1,561.3,456.71Z"/><path class="cls-14" d="M642.62,483.34l-135.69.4a1.19,1.19,0,0,1-1.23-1.09l-.4-12a1.1,1.1,0,0,1,1.15-1.1l135.71-.07a1.16,1.16,0,0,1,1.18,1.07l.38,11.75A1.06,1.06,0,0,1,642.62,483.34Z"/><polygon class="cls-16" points="719.53 391.68 688.27 391.46 683.81 256.83 715.1 257.5 719.53 391.68"/><polygon class="cls-16" points="771.45 392.05 740.54 391.83 736.12 257.95 767.07 258.62 771.45 392.05"/><polygon class="cls-16" points="822.79 392.42 792.22 392.2 787.86 259.06 818.46 259.72 822.79 392.42"/><g class="cls-26"><polygon class="cls-27" points="719.53 391.68 688.27 391.46 685.96 321.56 717.23 322.01 719.53 391.68"/><polygon class="cls-28" points="771.45 392.05 740.54 391.83 737.15 289.03 768.08 289.59 771.45 392.05"/><polygon class="cls-29" points="822.79 392.42 792.22 392.2 789.25 301.74 819.85 302.25 822.79 392.42"/></g><path class="cls-14" d="M1635.78,781.65,1337.16,793a14.53,14.53,0,0,1-15-14.15l-6.94-224A14.3,14.3,0,0,1,1329.34,540l299.14-2.73c7.5-.07,13.77,6.23,14,14.06L1648.91,767C1649.15,774.79,1643.27,781.36,1635.78,781.65Z"/><path class="cls-15" d="M1641.1,779.5l-298.61,11.38a14.52,14.52,0,0,1-15-14.15l-6.94-224a14.3,14.3,0,0,1,14.16-14.86l299.13-2.73c7.51-.07,13.78,6.23,14,14.06l6.43,215.63C1654.47,772.64,1648.6,779.21,1641.1,779.5Z"/><polygon class="cls-16" points="1325.13 703.18 1325.33 709.67 1655.15 700.19 1654.97 693.94 1325.13 703.18"/><path class="cls-20" d="M1420.94,739.18,1364.72,741a1,1,0,0,1-1-1l-.34-10.94a1,1,0,0,1,1-1l56.22-1.75a1,1,0,0,1,1,1l.33,10.87A1,1,0,0,1,1420.94,739.18Z"/><path class="cls-14" d="M1480.44,761.53l-115,4.05a1,1,0,0,1-1-1l-.34-10.93a1,1,0,0,1,.95-1l115-3.89a1,1,0,0,1,1,1l.33,10.79A1,1,0,0,1,1480.44,761.53Z"/><polygon class="cls-16" points="1373.22 678.84 1355.83 679.28 1352.36 566.79 1369.76 566.57 1373.22 678.84"/><polygon class="cls-16" points="1398.96 678.18 1381.68 678.62 1378.23 566.46 1395.53 566.25 1398.96 678.18"/><polygon class="cls-16" points="1424.56 677.53 1407.38 677.97 1403.95 566.14 1421.15 565.93 1424.56 677.53"/><polygon class="cls-16" points="1450.01 676.89 1432.93 677.32 1429.52 565.83 1446.61 565.61 1450.01 676.89"/><polygon class="cls-16" points="1475.31 676.25 1458.33 676.68 1454.94 565.51 1471.93 565.3 1475.31 676.25"/><polygon class="cls-16" points="1500.45 675.61 1483.58 676.04 1480.21 565.19 1497.1 564.98 1500.45 675.61"/><polygon class="cls-16" points="1525.46 674.98 1508.68 675.4 1505.33 564.88 1522.12 564.67 1525.46 674.98"/><polygon class="cls-16" points="1550.31 674.35 1533.63 674.77 1530.3 564.57 1546.99 564.36 1550.31 674.35"/><polygon class="cls-16" points="1575.03 673.72 1558.44 674.14 1555.13 564.26 1571.73 564.05 1575.03 673.72"/><polygon class="cls-16" points="1599.6 673.1 1583.11 673.51 1579.81 563.95 1596.32 563.75 1599.6 673.1"/><polygon class="cls-16" points="1624.02 672.48 1607.63 672.89 1604.35 563.65 1620.76 563.44 1624.02 672.48"/><g class="cls-30"><polygon class="cls-20" points="1373.22 678.84 1355.83 679.28 1354.03 620.87 1371.42 620.54 1373.22 678.84"/><polygon class="cls-20" points="1398.96 678.18 1381.68 678.62 1379.03 592.5 1396.33 592.23 1398.96 678.18"/><polygon class="cls-20" points="1424.56 677.53 1407.38 677.97 1405.05 601.99 1422.24 601.7 1424.56 677.53"/><polygon class="cls-20" points="1450.01 676.89 1432.93 677.32 1430.59 600.72 1447.67 600.44 1450.01 676.89"/><polygon class="cls-20" points="1475.31 676.25 1458.33 676.68 1455.72 591.31 1472.71 591.05 1475.31 676.25"/><polygon class="cls-20" points="1500.45 675.61 1483.58 676.04 1481.29 600.72 1498.17 600.44 1500.45 675.61"/><polygon class="cls-20" points="1525.46 674.98 1508.68 675.4 1506.21 594.04 1523 593.78 1525.46 674.98"/><polygon class="cls-20" points="1550.31 674.35 1533.63 674.77 1531.42 601.76 1548.12 601.48 1550.31 674.35"/><polygon class="cls-20" points="1575.03 673.72 1558.44 674.14 1556.19 599.48 1572.78 599.21 1575.03 673.72"/><polygon class="cls-20" points="1599.6 673.1 1583.11 673.51 1580.58 589.38 1597.08 589.13 1599.6 673.1"/><polygon class="cls-20" points="1624.02 672.48 1607.63 672.89 1605.26 593.82 1621.66 593.55 1624.02 672.48"/></g><path class="cls-14" d="M1259.57,796,933.18,808.43c-8.81.34-16.19-6.28-16.46-14.78l-7.59-234.38c-.28-8.52,6.67-15.49,15.5-15.57l327-3a15.23,15.23,0,0,1,15.29,14.68l7,225.24A14.92,14.92,0,0,1,1259.57,796Z"/><path class="cls-15" d="M1264.9,793.84,938.51,806.28c-8.81.34-16.19-6.28-16.47-14.78l-7.59-234.38c-.27-8.52,6.68-15.48,15.5-15.56l327-3a15.21,15.21,0,0,1,15.29,14.67l7,225.24A14.92,14.92,0,0,1,1264.9,793.84Z"/><polygon class="cls-16" points="1279.41 704.52 919.58 714.6 919.8 721.39 1279.62 711.04 1279.41 704.52"/><path class="cls-17" d="M1073.15,750.48,964.8,754a1.06,1.06,0,0,1-1.11-1l-.37-11.44a1.07,1.07,0,0,1,1-1.08l108.36-3.36a1,1,0,0,1,1.08,1l.36,11.3A1,1,0,0,1,1073.15,750.48Z"/><path class="cls-14" d="M1160.81,772.81l-195.18,6.9a1.06,1.06,0,0,1-1.11-1l-.37-11.44a1.06,1.06,0,0,1,1.05-1.07l195.2-6.61a1,1,0,0,1,1.06,1l.35,11.19A1,1,0,0,1,1160.81,772.81Z"/><path class="cls-31" d="M951.61,648.92a3.05,3.05,0,0,1-1.34-.31,3.1,3.1,0,0,1-1.44-4.13c11.39-23.54,24.6-36.36,39.25-38.1,9-1.07,15.86,2.29,22.45,5.54,7,3.45,13.59,6.71,23.3,5.51,7.39-.91,10.93-3.7,15.41-7.24s9.78-7.71,19.82-10.43c10.94-3,17.74-1.58,25.63,0a90.27,90.27,0,0,0,22,2.3c13.62-.28,20.88-3.29,30.08-7.11a144.32,144.32,0,0,1,25.79-8.54c19.89-4.5,41.34-4.81,63.76-1a3.09,3.09,0,0,1-1,6.1c-21.61-3.73-42.26-3.43-61.35.89a138.65,138.65,0,0,0-24.78,8.22c-9.41,3.9-17.53,7.27-32.32,7.58a96,96,0,0,1-23.32-2.43c-7.4-1.51-13.24-2.7-22.78-.12-8.81,2.39-13.28,5.91-17.6,9.32-4.82,3.81-9.38,7.41-18.48,8.52-11.55,1.41-19.65-2.57-26.8-6.1-6.31-3.11-11.76-5.79-19-5-12.42,1.48-24,13.14-34.41,34.65A3.08,3.08,0,0,1,951.61,648.92Z"/><polygon class="cls-14" points="1239.93 677.67 1128.87 680.43 1127.41 634.06 1238.5 631.88 1239.93 677.67"/><path class="cls-14" d="M1017.48,579.38l-58.28.78a1.09,1.09,0,0,1-1.11-1l-.37-11.45a1,1,0,0,1,1-1.06l58.28-.69a1.08,1.08,0,0,1,1.1,1l.36,11.38A1,1,0,0,1,1017.48,579.38Z"/><path class="cls-7" d="M445.5,1136.83c-57.45,2.44-121.36,7.5-196.9,33.43-17.13,5.88-176.72,64.73-171.73,98.54,3.68,25,87.72,14,219.4,50.25,138.87,38.25,164.35,58,245.82,61.11,93.53,3.53,98.47-37.07,219.19-48.3,68.32-6.35,91,4.4,156.37,12.32,26.5,3.21,41,4,83.25,6.26,192.52,10.22,227.09,19.89,233.81,4.74,11.31-25.51-69.34-92.12-144.65-131-65.48-33.85-121.3-43.86-228.48-63.16C677.41,1127.81,540.85,1132.78,445.5,1136.83Z"/><path class="cls-8" d="M874.28,1198.77c-487.48-123.2-515.19-97.83-523.11-84.94-14.43,23.5,1.68,66.26,31.38,105.13-26.15-5.47-51.65-5.9-73,2.34-44.15,17-100.82,3.3-102.12,16-1.44,14.15,62,38.29,97.68,39.07,77.66,1.68,163.13,24.19,206.65,31.27,93.92,24.19,200-5.44,247.89-14.48,85.73-16.18,119.91-37.4,208.78-37.67,71.28-.22,123.71,12.82,124.72,8.22C1095.14,1254.78,899,1205,874.28,1198.77Z"/><g class="cls-32"><path class="cls-33" d="M289.34,970.1H391.66s19.26-52.49-5.81-89.54c-51.17-75.58,18.6-115.11,45.35-136,40.33-31.57,58.1-72.35,9.6-98.81-54.88-29.93-6.51-109.6,66-151.19,70.93-40.7,39.51-190.27-122.1-116.28-96.51,44.18-81.39,146.51-86,200s-84.2,57.91-57,123.25c23.26,55.82,67.44,96.51,33.72,134.89S238.17,917.77,289.34,970.1Z"/><path class="cls-6" d="M333.58,979.6c-.24-1.32-24-133.45-8-271.55C335,626.87,356,559.52,388.19,507.88c40.25-64.65,98.08-104.73,171.86-119.11l.43,2.19c-165.72,32.31-218,190.41-232.68,317.35-15.93,137.77,7.74,269.57,8,270.89Z"/><path class="cls-6" d="M372.53,535.65c-8.94-71.78,18.36-173.54,18.63-174.56l2.16.58c-.27,1-27.45,102.37-18.57,173.7Z"/><path class="cls-6" d="M400.59,493.33l-1.19-1.89c73.63-45.87,142.51-23.79,143.19-23.57l-.7,2.13C541.21,469.77,473.28,448,400.59,493.33Z"/><path class="cls-6" d="M322.29,798.91l-2.17-.51C344.5,695.58,484.88,669.76,486.23,669.76l.07,2.23C484.93,672.12,346.41,697.22,322.29,798.91Z"/><path class="cls-6" d="M321.55,755.76c-13.41-64.49-83.55-109-84.26-109.42l1.19-1.9c.71.45,71.66,45.45,85.26,110.86Z"/><path class="cls-6" d="M332.52,958.38l-2.24-.18c3.22-40.83,59.05-71.8,61.43-73.1l1.07,2C392.21,887.38,335.63,918.76,332.52,958.38Z"/><path class="cls-6" d="M326.41,927.23C321.27,897.12,275,863,259.75,851.78a51.66,51.66,0,0,1-4.68-3.61l1.67-1.49c.29.31,2.17,1.7,4.34,3.3,15.39,11.34,62.24,45.87,67.54,76.88Z"/></g><path class="cls-34" d="M513.22,807.62S444.49,688.6,351.54,891c-72.39,157.6-25.6,332.94,141.85,381s429-49.06,346.9-117.53C666.15,1009.26,534,880.51,513.22,807.62Z"/><g class="cls-35"><path class="cls-36" d="M433.42,914.87C428.84,929.39,421,970.05,423,1017.28c1.84,42.13-2,64.15,65,94.8,23,10.5,38.87,43.83,74,63.66,16,9,76,41.51,153.62,28.37,51.33-8.7,89.56-33.88,115.3-57.34C661.5,1004.7,533.61,879.21,513.23,807.62c0,0-25.12-43.46-65.51-33.17,9.8,10.92,20.58,27.5,23.76,49.77C476,855.75,448.44,867.23,433.42,914.87Z"/></g><g class="cls-37"><path class="cls-38" d="M761.41,1224.17c-79.2,43.73-211.46,70.42-310-2.76C360.17,1153.64,352,1040.15,349,1005.52c-5.31-60.54,6.51-113.24,23.56-155.76-6.85,12-13.86,25.65-21,41.24-72.39,157.6-25.6,332.94,141.85,381,164.83,47.35,420.81-46,350.51-114.29A311.36,311.36,0,0,1,761.41,1224.17Z"/></g><path class="cls-39" d="M636.64,1237.4c-2.34,0-4.7,0-7.09-.08-61.22-1.36-147.16-21.7-209-110.8-52.2-75.27-45.22-160.2-30.17-218.2C406.71,845.58,435.7,800,436,799.52a1.33,1.33,0,0,1,2.24,1.43c-.29.45-29.08,45.76-45.25,108.12-14.89,57.43-21.81,141.52,29.8,215.93,61.13,88.15,146.17,108.29,206.74,109.66,65.83,1.48,117.71-18.18,118.23-18.38a1.33,1.33,0,1,1,1,2.49C748.2,1219,699.51,1237.4,636.64,1237.4Z"/><path class="cls-40" d="M965.09,1225.9c-4.37-4.7-12.19-24.92,2.08-29.08s22.31-9.47,42.06-25.3,24.83-2.24-3.07,23.48S971.3,1232.58,965.09,1225.9Z"/><path class="cls-41" d="M946.4,1196.37l11.75,10.25a7.36,7.36,0,0,0,8.78.68,4.78,4.78,0,0,0,.55-7.67l-17.17-14.7Z"/><path class="cls-42" d="M594.51,1097.59c-20.76,18.18,22.57,77.82,91.79,58.49,83.89-23.42,190.57-12.9,262.49,45.65,4.17-3.71,14.5-9.53,9.78-14.31-65-65.69-125.14-103.41-175-113.52C708.24,1058.6,653.62,1045.81,594.51,1097.59Z"/><g class="cls-43"><path class="cls-44" d="M837.87,1122.56c12.17,7.08,14.76-7.3,21-16.76-26.95-16.55-52.25-27.22-75.32-31.9-75.35-15.3-130-28.09-189.08,23.69-20.76,18.18,22.57,77.82,91.79,58.49A323,323,0,0,1,766,1144.63C788.16,1130.69,806.3,1098.69,837.87,1122.56Z"/></g><path class="cls-45" d="M582.25,1159.71l-4.26,1.63s-27.56-26-32.47-32.66c-6-8.09,61.5-28.72,83.42-55.71,23-28.37,4.83,33.67,4.83,33.67Z"/><path class="cls-46" d="M557.26,904.39s24.47,3.36,51.3,50.93c20.17,35.78,64,65.41,64,65.41l4.5,28.15-36.35,6.38-13-8.56L592.2,971.23Z"/><path class="cls-47" d="M509.81,901.36S449.5,908.8,448.2,978.2c-1.19,64,21.91,88.86,78.62,142.27,5.7,5.37,14.95,5.37,15.63,6.15q5.52,6.23,11.19,13c50.75-48.7,108-65.2,108-65.2S608.69,965,585.44,928.66C561.46,891.25,525.3,897.64,509.81,901.36Z"/><g class="cls-48"><path class="cls-49" d="M610,1063c-25.46,13.62-61.55,12.08-74.82-4.78-10-12.69-11.61-17.43-23.78-37.36-9.79-16-14.55-18.62-35.94-32.12a107.73,107.73,0,0,1-26.21-23.53,110.33,110.33,0,0,0-1,13c-1.19,64,21.92,88.86,78.62,142.27,5.7,5.37,14.95,5.37,15.63,6.15q5.52,6.23,11.19,13c50.75-48.7,108-65.2,108-65.2s-8.78-17.22-20.42-41.43C632.76,1047.14,626.29,1054.3,610,1063Z"/></g><path class="cls-50" d="M568.37,1065.08s11.43.52,19.55-2.75,7.45-4,16.79-5.2c9.09-1.16,27-6.55,16.85-15.76-11.28-10.26-30.6-7.38-36.15-.57-5.36,6.56-14.64,10.73-14.64,10.73Z"/><path class="cls-51" d="M466.41,936s-33.5,3.9-14,111.78c10.14,56,60.25,48.07,120.77,25,4.09-8.57-1.18-26.73-1.18-26.73s-75.18,31-77.13-14.23C492.74,981,486,930.6,466.41,936Z"/><path class="cls-52" d="M523.85,924.43c-14.38,0-29-10.64-29.68-11.16a.67.67,0,1,1,.79-1.07c.2.15,19.31,14.06,34.74,10.21,4.26-1.06,7.17-3.14,8.65-6.17,2.84-5.79-.38-13.25-.41-13.32a.67.67,0,1,1,1.22-.54c.14.33,3.5,8.09.39,14.44-1.67,3.4-4.87,5.72-9.53,6.88A25.15,25.15,0,0,1,523.85,924.43Z"/><path class="cls-53" d="M545.16,1124.52a.64.64,0,0,1-.49-.22.67.67,0,0,1,.05-.94c.54-.49,54.56-48.84,103.34-60.77a.67.67,0,0,1,.8.49.65.65,0,0,1-.49.8c-48.45,11.85-102.22,60-102.76,60.47A.7.7,0,0,1,545.16,1124.52Z"/><path class="cls-54" d="M493.77,859.41s8.56,34.6,6.85,41.68,8.41,14.77,26.16,15.56-1.91-35.55-1.91-35.55Z"/><path class="cls-55" d="M554.13,825.73c11-18.26-3-44.55-26-35.44-15.66,6.22-25.59,1.82-35.95,5.65-18.46,6.81-16.46,19.93-12.2,33.29,3.7,26.47,3.56,36.91,31.88,52.39C522.71,844.13,540.65,848,554.13,825.73Z"/><path class="cls-56" d="M497.21,872.14S508.6,891,531.44,889.6s16.34-53.89,10.6-56.87c-6.66-3.46-16,1-31.17-1.43-6.39-1-12.29-8.49-15,.08-3.1,9.76-.8,24.52-.8,24.52s-7-6.09-10.61.38C481.57,861.51,486.33,868.21,497.21,872.14Z"/><path class="cls-57" d="M495.54,820.15s-1.09,31.3,6.67,41c3.52,6.09-1,6.22-4.91,1.73s-8-18.85-8-18.85Z"/><path class="cls-58" d="M500.24,796.7h-.15a.64.64,0,0,1-.66-.6.63.63,0,0,1,.59-.65h0c1-.07,21-1.41,25.27-9.7a.63.63,0,0,1,1.11.58C521.86,795.14,502.3,796.57,500.24,796.7Z"/><path class="cls-59" d="M576.4,1079.57a1.45,1.45,0,0,0-1.19,1c0,.08.19,2.82.18,2.9a1.38,1.38,0,0,0,1,1.42l51.29,16.66L723.48,1064l-45.54,3.48Z"/><path class="cls-60" d="M576.38,1079.2a1.38,1.38,0,0,0-.23,2.67l51.29,16.66L723.29,1061l-45.54,3.48Z"/><path class="cls-61" d="M625.17,1097.78l7.64-100a3.48,3.48,0,0,1,2.92-3.16l114.79-18a3.46,3.46,0,0,1,4,3.58l-4.31,93.19a3.45,3.45,0,0,1-2.83,3.25l-119.24,22.08Z"/><path class="cls-59" d="M627.63,1101.55l7.88-102.19a3.47,3.47,0,0,1,2.92-3.16l114.78-18a3.46,3.46,0,0,1,4,3.58L752.9,1075a3.46,3.46,0,0,1-2.81,3.24Z"/><path class="cls-62" d="M627.63,1101.55l122.46-23.28a3.46,3.46,0,0,0,2.81-3.24l1.3-28.11c-36.48,20.71-82.2,23.35-124.8,31.66Z"/><path class="cls-63" d="M835,1080.6c-1.68-5.81-5.38-12.23,7.83-16.92,9.59-3.4,26.24-4.5,41.38-5.27,21.21-1.09,26.09,11.6-4.91,19.67C859,1083.37,837.42,1088.87,835,1080.6Z"/><path class="cls-64" d="M851.57,1071.7a5.63,5.63,0,0,1-4.58,6.19c-6.28.9-5.1-2.33-5.3-5.58s-2.74-5.51,4.58-6.2C849,1065.86,851.37,1068.45,851.57,1071.7Z"/><path class="cls-65" d="M787.16,1053l6.2-1s12.07,1.13,45.33,10.3c7.12,1.18,16.82,22-4,22.78s-46.25,16.35-46.25,16.35Z"/><path class="cls-66" d="M570.55,1149.68s3,27,65.74,24.51,174.72-67.54,174-101.7-42.39-20.51-85.55-.77c-36.43,16.67-92.7,26.32-104.23,28.11C605.76,1102.12,567,1136.73,570.55,1149.68Z"/><g class="cls-48"><path class="cls-67" d="M652.59,1115.89c29-3,35.55-23.79,71.66-29.81,23.41-3.9,31.67,3,43.6-5,9.42-6.31,14.23-17.31,16.54-29.25-16,1.35-37.61,9.8-59.63,19.87-35.38,16.19-89.48,25.76-103.13,27.93-.4.07-9.55-3.2-9.55-3.2s-6.81,3.89-11.69,7C619.41,1113.61,642,1117,652.59,1115.89Z"/></g><path class="cls-68" d="M249.15,1162.31c-18.58,29.31-8.93,62.35,1.51,85.12,3.15.43,4.86,1.55,8,2.75,27.83,10.8,57.71,16.23,86.66,22.21,6.23,1.29,12.34,1.59,18.66,2.4l6.45.66S412,1187.18,376,1161.07s-11.19-99.72-2.48-140.5c23.62-110.65-98.57-116.47-79.58-261.1,5.06-38.46,27.55-110.13-.82-145.05-32.33-39.79-63.83-9.12-83.72-41.44-31.09-50.53-89.18-74.86-131.3-32.67C36.5,582,67.37,679.88,164.63,768.17c62.59,71.24,61.25,89.91,49.71,134.29-8.08,31.08-49.11,109.41-10.57,148S270.4,1128.81,249.15,1162.31Z"/><g class="cls-69"><path class="cls-13" d="M316.18,1264.36l-2.25,0c.09-12.89,0-25.91-.19-38.69-1.62-94.51-12-185.45-30.87-270.28-16-71.86-38.25-140.35-66.2-203.59a910,910,0,0,0-78-141.84,728.23,728.23,0,0,0-64.95-83c-3.89-4.26-8.14-8.43-12.24-12.46-5.54-5.43-11.27-11.05-16.28-17.05L46.94,496c5,5.91,10.63,11.49,16.13,16.89,4.13,4.05,8.39,8.24,12.33,12.55a729.75,729.75,0,0,1,65.15,83.24,912.51,912.51,0,0,1,78.18,142.2c28,63.36,50.32,132,66.33,204,18.89,85,29.3,176.06,30.93,270.72C316.21,1238.41,316.27,1251.45,316.18,1264.36Z"/><path class="cls-13" d="M247.55,830.27c-28.39-89.48,26.72-240,27.28-241.52l2.11.78c-.56,1.5-55.4,151.32-27.25,240.06Z"/><path class="cls-13" d="M304.54,1085.44c-11.88-61.56-117-122.14-118.11-122.74l1.12-2c1.06.6,107.12,61.69,119.2,124.26Z"/><path class="cls-13" d="M308.33,1121.51c-.55-42,21.06-99.44,60.84-161.71.87-1.35,1.62-2.53,1.73-2.75l.85.42h1.31c0,.42,0,.42-2,3.54-39.54,61.91-61,118.9-60.49,160.47Z"/><path class="cls-13" d="M313.77,1240.77c-13.35-42.7-75.58-67.22-76.21-67.47l.81-2.09c.64.24,63.87,25.15,77.55,68.89Z"/><path class="cls-13" d="M317.23,1265l-2.1-.78c12.95-35,36.34-67.36,71.49-99l1.5,1.68C353.24,1198.24,330.06,1230.33,317.23,1265Z"/><path class="cls-13" d="M155.56,635.77c-18.5-48.71-26.62-104.08-29.29-122.28-.46-3.16-.83-5.66-1-6.06l2.13-.71c.18.53.41,2.07,1.05,6.45,2.66,18.13,10.76,73.32,29.17,121.81Z"/><path class="cls-13" d="M197.14,710.17c-29.31-37.64-128-49.55-129-49.67l.26-2.23c4.1.48,100.64,12.15,130.53,50.52Z"/></g><path class="cls-70" d="M248.06,1247c.39.17.77.35,1.17.51,28,10.8,57.7,16.23,86.65,22.21,3.9.81,7.83,1.48,11.77,2.08,5.23-14.62,9.23-36.17-9.51-41.94-29.12-8.95-29.42-60.29-21.28-78.38,10.08-22.4,32.47-75-12.32-89.58-37.29-12.12-63.83-12.32-66.06-60.47S210.2,923,166.53,925.55c-46,2.66-83.14-58.78-120.94-38.63-65.85,35.12-7.28,141.65,72.23,173s33.53,59.73,31.07,99.1c-3.36,53.75,69.43,42.83,88.47,64.1A44.27,44.27,0,0,1,248.06,1247Z"/><g class="cls-71"><path class="cls-13" d="M292.8,1260.87c-30.5-154.93-136-294.29-275.42-363.71l1-2c140,69.72,246,209.69,276.62,365.28Z"/><path class="cls-13" d="M271.08,1177.48h-2.25c.28-63.32,54.57-112.3,55.12-112.78l1.49,1.68C324.9,1066.85,271.35,1115.18,271.08,1177.48Z"/><path class="cls-13" d="M286.39,1232.41c-29.19-54.67-142.73-63-143.87-63l.15-2.24c1.15.07,115.94,8.45,145.7,64.2Z"/><path class="cls-13" d="M192.4,1042.15C172.29,995.22,203,923.72,203.29,923l2.06.89c-.31.71-30.61,71.33-10.89,117.37Z"/><path class="cls-13" d="M123.55,968.69C75.78,939,1.23,955,.48,955.2L0,953c.76-.17,76.2-16.36,124.74,13.77Z"/></g><path class="cls-72" d="M377.5,1275.42l.74,3.64c-63-.44-139.17-30.79-139.91-31.1-.55-.22.75-4.14,1-4.69a1.08,1.08,0,0,1,1.4-.59c.74.31,74.26,30.16,136.81,30.6a1.07,1.07,0,0,1,0,2.14Z"/><path class="cls-14" d="M1372.83,540.45l-328.75-17.17c-9.14-.47-14.94-8-12.93-16.71l54.92-239.11c2-8.61,10.86-14.82,19.82-13.88l322.22,33.85c7.84.82,12.76,8,11,16l-48.6,223C1388.74,534.59,1380.83,540.87,1372.83,540.45Z"/><path class="cls-73" d="M1376.93,541.52,1048.56,524.3c-9.13-.48-14.94-7.86-12.94-16.48l54.64-235.54c2-8.48,10.84-14.59,19.78-13.66l321.87,33.65c7.84.82,12.77,7.89,11,15.81l-48.35,219.65C1392.82,535.77,1384.92,541.94,1376.93,541.52Z"/><polygon class="cls-16" points="1409.88 458.82 1052.72 433.82 1051.13 440.67 1408.48 465.2 1409.88 458.82"/><polygon class="cls-16" points="1309.59 279.5 1270.44 453.79 1277.11 454.24 1316.17 280.19 1309.59 279.5"/><path class="cls-17" d="M1217.59,485.93l-129.15-8a.9.9,0,0,1-.86-1.12l2.65-11.52a1.34,1.34,0,0,1,1.35-1l129,8.32a.87.87,0,0,1,.82,1.09L1218.87,485A1.28,1.28,0,0,1,1217.59,485.93Z"/><path class="cls-14" d="M1245.89,513.14l-163.42-9.27a.9.9,0,0,1-.87-1.11l2.66-11.54a1.36,1.36,0,0,1,1.35-1l163.25,9.7a.86.86,0,0,1,.81,1.08l-2.52,11.17A1.27,1.27,0,0,1,1245.89,513.14Z"/><polygon class="cls-14" points="1415.53 349.7 1320.9 340.96 1329.25 303.66 1423.61 313.11 1415.53 349.7"/><polygon class="cls-14" points="1396.01 438.16 1300.71 431.13 1317.33 356.87 1412.09 365.31 1396.01 438.16"/><path class="cls-16" d="M1187.26,330.65c15.29,1.4,24.94,14.49,21.6,29.19a29.65,29.65,0,0,1-5.37,11.3l28.88,17.26a67.75,67.75,0,0,0,11.89-25.49c7.57-33.47-14.27-63.41-49.1-66.85l-.27,0-7.9,34.6Z"/><path class="cls-74" d="M1203.49,371.14c-6.51,8.59-17.42,14.05-28.47,13.15-15.45-1.26-25.3-14.39-21.89-29.27s18.57-25.64,33.86-24.38l7.9-34.6c-35.22-3.34-70.57,21.59-78.46,55.8-7.93,34.38,15,64.59,50.64,67.24,25.47,1.89,50.54-10.83,65.3-30.68Z"/><g class="cls-75"><path class="cls-76" d="M1059,379.9c-4.51,4.06,11.82,39.54,41.26,67.38,29.83,28.21,52.28,28.86,75.63,62.4,11.28,16.2,7.21,17.74,16,29.39,34.37,45.65,124.93,59.45,161.41,24.24,3.81-3.68,12.34-20,29.39-52.6a386.89,386.89,0,0,0,19.43-44.18c7.5-20.33,11.64-31.8,7.56-35.07-8.34-6.66-37.21,29.66-56.38,21.32-12.12-5.28-6-25.13-22-39.19-13-11.37-30.65-10.81-35.24-10.66-40,1.27-44.5,45.34-82,53.63-31.17,6.89-64.16-15.59-112.42-48.47C1075.89,390.53,1062.32,376.92,1059,379.9Z"/></g><path class="cls-77" d="M1065.54,394.68l-8.25-8.25a21,21,0,0,1-2.06-19.34c4.13-11.35,9.8-8.25,9.8-8.25l-1.55,8s-1,5.16,3.87,11.6a41.93,41.93,0,0,1,5.16,13.67Z"/><path class="cls-78" d="M1409,426.82l9.29-8.42,4.12-15.3s11.35,4.47,5.16,18.91c-4,4.81-13.67,12-17.79,19.08S1409,426.82,1409,426.82Z"/><path class="cls-79" d="M1317.54,529.44s44.53-27.5,55.35-37.3c11.3-10.21,41-49.5,43.58-54.14s-8-13.93-8-13.93-51.74,64.64-116.72,45.55C1302.07,492.83,1317.54,529.44,1317.54,529.44Z"/><path class="cls-80" d="M1324,909.25s8.17,20.54,6,29.65a91.52,91.52,0,0,0,14.44-1.29s-3.53-9.37-4.22-14a139,139,0,0,1-.85-16.41Z"/><path class="cls-59" d="M1234,957.29a6.46,6.46,0,0,1,1.55,3.78,6.24,6.24,0,0,1-.47,2.53c-1.39,3.66-3.58,4.14-5.94,8-1.44,2.38-1.17,3.09-2.49,4.16-1.74,1.42-3.84,1.5-5.67,1.52a103,103,0,0,1-13.12-.74q4.4-5.67,9.36-11.49,2.19-2.55,4.36-5l8.61-2.91Z"/><path class="cls-81" d="M1226.82,915.46s-4.93,25.7,1.34,32.9c5.34,7.19-2.58,2.06-2.58,2.06l-9.45,8.25-5.68,9.8s5.23-25.15,3.83-35.13-2.09-16.72-2.09-16.72Z"/><path class="cls-82" d="M1251.19,469.45c-24-4-58.3,8.1-98-12.89-39-20.65-62.1-51.12-75.55-70.65l-17.52,8.67c9.92,17.12,33.3,53.82,64.27,79.37,39,32.16,77.13,34,97.9,60.31C1232.08,524.58,1262.89,471.43,1251.19,469.45Z"/><path class="cls-83" d="M1208.25,634.37S1195,646.21,1195,695s6.26,154.58,6.26,154.58l10,75.78s10.4.37,17.36-1.72c6.27-28.55,16.48-76.84,11.61-117.23-2.09-43.87,17.41-98.88,17.41-98.88s16.71,55.71,28.55,83.56,34.37,115.11,36.46,121.38c13.85,1.26,19.77-2.41,19.77-2.41s-8.88-93.9-17.24-129.41-7.66-121.17-21.58-145.54C1272.31,622.54,1208.25,634.37,1208.25,634.37Z"/><path class="cls-84" d="M1208.25,634.37S1195,646.21,1195,695s6.26,154.58,6.26,154.58l10,75.78s10.4.37,17.36-1.72c6.27-28.55,16.48-76.84,11.61-117.23-2.09-43.87,17.41-98.88,17.41-98.88s16.71,55.71,28.55,83.56,34.37,115.11,36.46,121.38c13.85,1.26,19.77-2.41,19.77-2.41s-8.88-93.9-17.24-129.41-7.66-121.17-21.58-145.54C1272.31,622.54,1208.25,634.37,1208.25,634.37Z"/><path class="cls-85" d="M1277,723.69c4.12,26.81,12.37,41.25,33,59.82,16.5,12.37,4.13,39.19,10.31,59.82,2.07,6.19,8.26,12.37,10.32,18.56,7.67,15.35.51,34.13,4,50.39,5.41-.75,7.87-2.26,7.87-2.26s-8.88-93.9-17.24-129.41-7.66-121.17-21.58-145.54c-31.34-12.53-95.4-.7-95.4-.7S1195,646.21,1195,695c0,3.95,0,8.29.11,12.91,13.74,12.15,41.83,14.85,59.16,1.38a8,8,0,0,1,3.31-1.5c.05-.16.09-.26.09-.26l.07.24C1265.64,706.29,1275.19,716.53,1277,723.69Z"/><path class="cls-59" d="M1327.86,946.7s-2,0-1.87,2.62-.91,11.68,9.43,12.1,11.94-.73,12.28-.73S1345,952,1345,952l-3.31-4.24-8.9-.93Z"/><path class="cls-60" d="M1350.8,955.77a32.83,32.83,0,0,0-2.68-8.38c-1.82-4.11-.32-5.65-2.07-9.39a11.15,11.15,0,0,0-2.46-3.74,10.69,10.69,0,0,0-7.31-2.78,7.38,7.38,0,0,0-3.44.8,8.09,8.09,0,0,0-3.09,3.27c-1.08,1.77-.83,2.31-2.49,7.39a18.94,18.94,0,0,0-.93,4.77c2.72,0,13.15.43,15.35,2a8.65,8.65,0,0,1,3.31,7c0,2.71,1.35,4,2.71,3.9C1348.91,960.61,1351.32,958.37,1350.8,955.77Z"/><path class="cls-60" d="M1225.49,944.75c2.33,0,4,1.89,5.33,6.36s7.48,8.42.26,7.47-12.46,9.29-15,13.07-9.5,7.14-9.33,3.44,3.23-5.42,4.09-9.2S1220.18,944.66,1225.49,944.75Z"/><path class="cls-86" d="M1274.57,467.91c-11.69-.35-41.44-3.6-55.35,10.31-14.23,14.22.18,31.29-2.38,54.72-1.74,15.89-1.12,25.25-4.14,51.22a160.15,160.15,0,0,1-3.29,18.42c-4,16.93-10.88,50.22-14.6,58.54,11.91,6.11,42.59,17.06,79.15,11.62a123.37,123.37,0,0,0,39.46-13c-9.49-28.72-7.72-68.07-4.2-82.23,6.93-28,8.5-39,28.09-79.18,5.41-11.09-7.42-4.88-15.64-14.61C1309.07,468.79,1286.36,468.25,1274.57,467.91Z"/><path class="cls-87" d="M1239.85,541.13c.59-5.16,1.56-14.6-3.1-24.49a37.75,37.75,0,0,0-8.25-11.35c-10.37-9.52-23.74-8.89-39-10a237,237,0,0,1-46.91-8.29c29.33,18.4,56.65,24.08,74.55,41.52,0,1.44-.13,2.91-.29,4.4-1.74,15.89-1.12,25.25-4.14,51.22a160.15,160.15,0,0,1-3.29,18.42c-4,16.93-10.88,50.22-14.6,58.54,11.91,6.11,42.59,17.06,79.15,11.62a123.37,123.37,0,0,0,39.46-13,140.06,140.06,0,0,1-5.81-28.26A118.77,118.77,0,0,1,1254.29,619c-11.33-5.74-17-8.61-20.37-15C1227.43,591.88,1235.31,580.54,1239.85,541.13Z"/><path class="cls-88" d="M1257.57,433.3c1.7-13.05,12-21.42,14.27-23.21,9.43-7.5,11.35-8.25,14.59-8.87l4.42-.67.49,0c2.59.16,10.35,3.19,11.76,4.18,4.51,3.17,1.19,25.62-12.48,53.54-.54,2.37-1.07,4.73-1.61,7.1,11.91,2.09,14.86,4.24,15,5.95.21,3.72-12.83,8.46-24.92,8.77-15.16.39-31.25-6.13-30.94-11,.12-2,3-4.4,14-6.79l5.16-7.25C1265.69,453.18,1256.33,442.92,1257.57,433.3Z"/><path class="cls-89" d="M1286.43,392c-4.75,4.65-5.92,12.72-4.51,18.54.84,3.48,1.92,3.85,1.77,6.13-.44,6.4-12.1,9.19-11.45,12.41.47,2.31,6.54,1.46,7.58,4.36,1.15,3.16-5.52,5.89-8.38,13.86-.45,1.24-3.16,8.78.32,13.22,3.25,4.14,10.51,3.16,18.7,2.1a65.91,65.91,0,0,0,17.41-4.68c6-2.62,12.41-5.45,17.74-11.93,1.26-1.54,8.68-10.85,8.06-23.86-.82-17.1-15.12-31.7-29.83-34C1301.46,387.79,1292.26,386.34,1286.43,392Z"/><path class="cls-90" d="M1276.31,428.39c3.44-2.06,6.06,2.36,4.44,6.23s-7.06,6.28-10.36,4S1271.68,431.16,1276.31,428.39Z"/><path class="cls-91" d="M1241.65,468.42l8.38-2.58s2.19,11.35,29.14,12.77a40.26,40.26,0,0,0,24.62-8.38l6.45,3s-13.28,16.9-33.26,16.5A40.08,40.08,0,0,1,1241.65,468.42Z"/><g class="cls-92"><polygon class="cls-93" points="642.67 690.4 402.86 1088.16 1046.15 1088.16 817.78 698.62 642.67 690.4"/></g><path class="cls-94" d="M727.37,167.26a1.12,1.12,0,0,1-1.12-1.12v-16.5a1.12,1.12,0,1,1,2.23,0v16.5A1.12,1.12,0,0,1,727.37,167.26Z"/><path class="cls-94" d="M727.37,621.05a1.12,1.12,0,0,1-1.12-1.12V166.14a1.12,1.12,0,1,1,2.23,0V619.93A1.12,1.12,0,0,1,727.37,621.05Z"/><path class="cls-94" d="M727.37,637.55a1.12,1.12,0,0,1-1.12-1.12v-16.5a1.12,1.12,0,1,1,2.23,0v16.5A1.12,1.12,0,0,1,727.37,637.55Z"/><path class="cls-94" d="M727.37,72.37a1.12,1.12,0,0,1-1.12-1.12V54.75a1.12,1.12,0,1,1,2.23,0v16.5A1.12,1.12,0,0,1,727.37,72.37Z"/><path class="cls-94" d="M727.37,104a1.12,1.12,0,0,1-1.12-1.12V71.25a1.12,1.12,0,1,1,2.23,0v31.63A1.12,1.12,0,0,1,727.37,104Z"/><path class="cls-94" d="M727.37,120.5a1.12,1.12,0,0,1-1.12-1.12v-16.5a1.12,1.12,0,1,1,2.23,0v16.5A1.12,1.12,0,0,1,727.37,120.5Z"/><path class="cls-94" d="M727.37,29.31a1.12,1.12,0,0,1-1.12-1.12V1.12a1.12,1.12,0,1,1,2.23,0V28.19A1.12,1.12,0,0,1,727.37,29.31Z"/><path class="cls-95" d="M823.05,708.67V679.46a41.41,41.41,0,0,0-41.29-41.29H673a41.41,41.41,0,0,0-41.3,41.29v29.21Z"/><ellipse class="cls-96" cx="727.5" cy="707.67" rx="95.82" ry="18.97"/><path class="cls-97" d="M727.5,683.07c-40.57,0-76-5.76-84.16-13.69a.66.66,0,1,1,.92-1c8,7.71,43,13.31,83.24,13.31,37.41,0,70.94-4.92,81.54-12a.66.66,0,0,1,.92.19.66.66,0,0,1-.19.92C798.81,678.17,765.75,683.07,727.5,683.07Z"/><path class="cls-98" d="M765.14,639.64a16.35,16.35,0,0,0-16.29-16.06h-43a16.35,16.35,0,0,0-16.31,16.31h0a.24.24,0,0,0,0,.08c0,4.13,16.93,7.48,37.82,7.48s37.83-3.35,37.83-7.48A1.35,1.35,0,0,0,765.14,639.64Z"/><path class="cls-99" d="M1588.34,1180.39c12.27,18.32,76-.34,117.31-20.4,66.66-32.41,64.1-63.36,119.85-90.53,80.61-39.29,159.84-10.58,163.21-27.41,2.22-11.07-30.42-31.49-65-38.25-40.2-7.86-59.55,7.32-153,36.33-75.47,23.44-83.08,19.82-108.74,36.66C1614.7,1107.79,1576.17,1162.23,1588.34,1180.39Z"/><path class="cls-59" d="M1968.31,940c2.13-2.73,6.92-3.75,10.36-2.71,6.75,2,6.69,15.16,8.29,29.17,1.81,15.89,4.4,32.76-2.71,32.67-3.17,0-8.9-9.69-10-18.64a90.29,90.29,0,0,0-5.34-20.64,57.65,57.65,0,0,1-1.53-8.82C1966.83,945.49,1966.54,942.32,1968.31,940Z"/><path class="cls-100" d="M1977,951.44c0,6.86-11.57,9.64-18.57,9.64s-6.78-2.78-6.78-9.64.26-11.88,7.26-11.88S1977,944.57,1977,951.44Z"/><path class="cls-101" d="M1672,1071.71q-5.71,22.59-11.41,45.17c.89,1.51,3.07,4.72,6.82,5.41,4.19.77,7.84-2.08,9.2-3.27,3-21.32,8.15-34.8,13.23-43.65,3.57-6.22,7.07-10.13,6.8-12.35C1696.17,1059,1683.86,1065,1672,1071.71Z"/><path class="cls-102" d="M1644.75,798.52l-7,1s-12.38-.52-19.6.77-11.35,4.9-11.35,12.39,9.12,8.4,17,9.28c4.81.54,11.36-3.51,16.35-7.26,3.5-2.63,12.47-5,12.47-5Z"/><path class="cls-103" d="M1693.33,547.62c-8.79,5.86-10.41,22.69-8.07,32.86a74.65,74.65,0,0,0,8,20.24c1.75,4.48,3.27,8.69,4.49,12.45.89,2.76,1.52,5,2.09,7.33a91,91,0,0,1,2.21,13.36.57.57,0,0,0,.57.52h0a.59.59,0,0,0,.52-.62,93.36,93.36,0,0,0-2.24-13.53c-.58-2.4-1.21-4.62-2.12-7.41-.64-2-1.37-4.1-2.17-6.3a61.41,61.41,0,0,1,7.44,20.78c4.83,27.91,31.65,36.07,47.4,30.06,14-5.33,24.06-19.17,25.89-32.54C1783.09,583,1712.66,534.73,1693.33,547.62Z"/><path class="cls-104" d="M1748.58,787.7c-20.52,35.7-33.79,88.79-51,148.91-15.44,54-28.87,102.34-35.65,140.18a73.91,73.91,0,0,0,11.88,8c17.65,9.55,35.14,9.67,44.9,8.87a360.6,360.6,0,0,1,5.06-42.08c4.47-24.78,12.42-70.78,31.38-112.45,13.16-28.92,19.74-43.38,30.85-53.25,6.84-6.08,22.67-18.93,25.39-38.51a16.66,16.66,0,0,0,.16-2.47C1811.47,817.51,1760.64,793.14,1748.58,787.7Z"/><path class="cls-105" d="M1748.58,787.7c-11.21,19.5-20.26,44.23-29,72.44,20.52,11,38,29.41,30,51.85-7.65,23-36.34,32.52-42.08,59.29-5.74,28.69,7.65,53.55,1.91,82.24-2.83,13.44-3.82,26.89-4.34,40.23a88.52,88.52,0,0,0,13.59-.08,360.6,360.6,0,0,1,5.06-42.08c4.47-24.78,12.42-70.78,31.38-112.45,13.16-28.92,19.74-43.38,30.85-53.25,6.84-6.08,22.67-18.93,25.39-38.51a16.66,16.66,0,0,0,.16-2.47C1811.47,817.51,1760.64,793.14,1748.58,787.7Z"/><path class="cls-106" d="M1767.75,838.15a9.29,9.29,0,0,0-.68,3c-.4,10.16,18.37,23.46,59.17,88.54,7.21,11.49,19.49,31.61,39.4,37.58a39.27,39.27,0,0,0,6.39,1.36,41.05,41.05,0,0,0,11.42-.11c4.93-.69,24.07,0,78.56,4.88.43-1,9.73-22.58-2.17-37.54a28.76,28.76,0,0,0-10.86-8.24c-12.78-1.92-23.51-2.91-31.61-3.45a136.6,136.6,0,0,0-22.91-.07c-4.75.42-8.68,1-11.43,1.56-19.48-56.18-9.94-105-33.35-106C1845,819.41,1772.54,824,1767.75,838.15Z"/><path class="cls-107" d="M1704.69,687.26c-11.89,4.13,6,46.64-18.39,79.23-12.32,16.47-30.87,24.31-47.06,28.33,3.29,10.56,2.73,10.59,6,21.15,8.49.35,40.18.65,67-22.38,6.83-5.87,28-24,29.37-52.31C1743.37,705.29,1715.9,683.37,1704.69,687.26Z"/><path class="cls-108" d="M1719.33,645.62c-6,7.12-8.46,13.68-11.62,22.22-5,13.55-7.85,21.28-7.48,30.88.71,18.45,12.89,31.85,18.71,37.42,12.73,40.87,15.68,50.44,15.68,50.56l0,.26a117,117,0,0,1-3.75,20.87c-6.32,22.9-15.13,27.19-12.88,35.44,3.94,14.47,36.24,20.39,60.81,17.78,13-1.39,14.22-4.15,25.26-6.08,46.38-8.15,67.75,33,98.08,22.45,21.57-7.51,21.88-32.49,49.9-37.42,9.79-1.73,20.61-.65,21.52-4.37s-8.22-9.44-15.9-12.47c-16.59-6.56-31.9-2.32-38.67-1.25-30.35,4.79-61.24-26.76-79.78-45.7-52.4-53.53-50.94-128-50.31-143.53-4.16-2.23-19.34-9.7-52.74-.71A56.86,56.86,0,0,0,1719.33,645.62Z"/><path class="cls-109" d="M1973.58,835.63c.9-3.63-8.22-9.44-15.9-12.47-16.59-6.56-31.9-2.32-38.67-1.25-30.35,4.79-61.24-26.76-79.78-45.7-26.31-26.88-39-59.05-45.12-86.38-4.13,30.46-15.07,61.34-2.4,88.28,9.57,24.86,45.91,22.95,59.29,51.64,5.74,11.47,21,9.56,34.43,11.47,9.56,0,13.39,15.31,26.78,13.39,5.73-1.91,9.56-11.47,13.39-11.47,4.86,0,10.1.06,15.5.34a40.8,40.8,0,0,1,11-3.48C1961.85,838.27,1972.67,839.35,1973.58,835.63Z"/><path class="cls-110" d="M1815.78,840.3c-3.51,2.8-11.44,8.35-21,8.5a22.43,22.43,0,0,1-7.9-1.15,25,25,0,0,1-10.35-7,174.29,174.29,0,0,1,22.61-9.57l7.33-1.94Z"/><path class="cls-111" d="M1925.73,781.87l-174.35,70.2a8.86,8.86,0,0,1-11.52-4.9l-39.44-99.07a8.84,8.84,0,0,1,4.9-11.51l174.35-70.2a8.84,8.84,0,0,1,11.51,4.9l39.45,99.06A8.85,8.85,0,0,1,1925.73,781.87Z"/><path class="cls-112" d="M1929,782.9l-174.34,70.2a8.85,8.85,0,0,1-11.52-4.9l-39.45-99.06a8.86,8.86,0,0,1,4.91-11.52l174.34-70.2a8.85,8.85,0,0,1,11.52,4.9l39.45,99.07A8.85,8.85,0,0,1,1929,782.9Z"/><path class="cls-16" d="M1779.86,759.74c9.46.17,18,8.08,19.13,17.63a16.25,16.25,0,0,1-.84,7.46l21,9.73a37.56,37.56,0,0,0,1.78-16.87c-2.51-21.83-22-40-43.7-40.44h-.17l2.59,22.49Z"/><path class="cls-113" d="M1798.15,784.83a14.63,14.63,0,0,1-14.28,9.67c-9.48-.11-18.12-8-19.23-17.63s5.65-17.2,15-17.13l-2.59-22.49c-21.74-.37-37.45,17.21-34.9,39.3s22.48,40.26,44.26,40.42c15.64.12,28-9.07,32.73-22.41Z"/><path class="cls-114" d="M1904.54,727.14l-72.71,29.77a.67.67,0,0,1-.87-.38l-2.8-6.93a.68.68,0,0,1,.36-.88l72.76-29.67a.67.67,0,0,1,.86.38l2.76,6.84A.67.67,0,0,1,1904.54,727.14Z"/><path class="cls-114" d="M1898.41,712.42l-72.71,29.77a.68.68,0,0,1-.88-.38l-2.8-6.93a.68.68,0,0,1,.37-.88l72.76-29.66a.66.66,0,0,1,.86.37l2.76,6.84A.67.67,0,0,1,1898.41,712.42Z"/><path class="cls-114" d="M1916.5,757.49l-72.71,29.78a.67.67,0,0,1-.87-.38l-2.8-6.93a.67.67,0,0,1,.36-.88l72.76-29.67a.66.66,0,0,1,.86.38l2.76,6.83A.66.66,0,0,1,1916.5,757.49Z"/><path class="cls-114" d="M1910.37,742.78l-72.71,29.77a.68.68,0,0,1-.88-.38l-2.8-6.93a.68.68,0,0,1,.37-.88l72.76-29.67a.67.67,0,0,1,.86.38l2.76,6.84A.67.67,0,0,1,1910.37,742.78Z"/><path class="cls-115" d="M1767.81,648.62c17.76-17.24,73,2.32,93.86,47.45,17.91,38.83,23.14,68.6,5,106.78a94.38,94.38,0,0,1-46.82,45.65c-1.44-2.54-6.76-7-13.76-17.59,17.63-6.61,34.22-38.44,36.09-58,2.47-26-11.27-51-24.08-60.14-12-8.58-48.42,1.22-59.88-6.85C1743,695.19,1754.15,661.88,1767.81,648.62Z"/><path class="cls-116" d="M1737.77,578.16c-3.09,14.61-4.34,32.23,5.48,41.32,8.65,8,21,4.93,21.92,9.12,1.74,8.29-45.29,26.8-48.82,20.91-1.75-2.9,13-9.57,12.71-20.21-.12-4.42-2.12-7.49-13.53-23.2l-3.81,1.34Z"/><path class="cls-117" d="M1887.29,593.57c-7.47-22.79-30.5-34.33-34.86-36.3-27.06-12.25-37.54,4.28-69.46-7.24-1.39-.5-2.71-1-4-1.55a80.77,80.77,0,0,0,25.45,4.09l2,0h.59a90.53,90.53,0,0,0,12.8-1.52c3-.5,5.85-1,8-1.14a39.07,39.07,0,0,1,13.4,1l1.91.41a.46.46,0,1,0,.18-.91l-1.89-.41a39.79,39.79,0,0,0-13.68-1c-2.2.18-5.06.65-8.09,1.14-4.57.75-9.75,1.58-13.22,1.5l-2,0c-7.14-.14-15.92-.32-33.29-6.83-2.1-1.1-4.1-2.22-6.06-3.33l2,.77c5.1,2,10.37,4,15.62,4.89a37.9,37.9,0,0,0,6,.47c.53,0,1.06,0,1.58,0a.57.57,0,0,0,.55-.59.55.55,0,0,0-.59-.55,37,37,0,0,1-7.31-.42c-5.13-.83-10.34-2.87-15.38-4.83-2-.78-4-1.58-6-2.28-.85-.3-1.68-.58-2.51-.84a80.33,80.33,0,0,0-26.08-8.87c-10.6-1.81-30.3-1.54-35.31,3.91-5.54,6,18.32,12.37,26.86,52.82,2.17,10.3,7.78,35.1,30.73,55.58,5.3,4.73,48.64,42.34,91.69,24.17C1875.5,653.58,1896,620.18,1887.29,593.57Z"/><g class="cls-48"><path class="cls-118" d="M1887.29,593.57c-7.47-22.79-30.5-34.33-34.86-36.3a56.45,56.45,0,0,0-8.19-3,36.67,36.67,0,0,1,8,8.17c2.17,3.07,7.45,10.53,6.23,19.34-1.13,8.2-6.9,10.4-12.47,19.34-9.36,15-2.64,24-8.73,32.43-10.76,14.88-47.76,9-71.11-1.25a107.08,107.08,0,0,1-35.62-25.73,94.08,94.08,0,0,0,24.59,34.94c5.3,4.73,48.64,42.34,91.69,24.17C1875.5,653.58,1896,620.18,1887.29,593.57Z"/></g><path class="cls-119" d="M1731.36,593.58s.81,17.22-16,19.79c-20.69,3.17-31.05-51.13-26.47-55,5.3-4.49,11.72,3.63,24.85-1.47,5.53-2.15,9.39-10.24,13.46-2.73,4.63,8.53,4.2,24.92,4.2,24.92s4.32-4.79,5.8,0C1739.15,585.33,1735,590,1731.36,593.58Z"/><path class="cls-120" d="M1689.84,539.05c-5.58,7.67-7.28,21.21-1.77,27.07,7.93,8.42,25.84-4.23,35.45,6.08,4.21,4.52,5,11.54,6.82,11.16,1.48-.31,1.64-5.28,1.91-9.39,1.49-22.66,6.6-25.94,4-32C1731,529.71,1701.3,523.3,1689.84,539.05Z"/><path class="cls-59" d="M1635.84,1103.25c1.47-2,11.13-1,16,1.67,8.18,4.5,13,12.53,15.06,13.63,4.78,2.51,9.31.36,9.71.47,0,0,3.2,6.46-2.54,9.57S1626.75,1115.92,1635.84,1103.25Z"/></g></g></g></svg>