<svg xmlns="http://www.w3.org/2000/svg" xmlns:xlink="http://www.w3.org/1999/xlink" viewBox="0 0 445.91 403.94"><defs><style>.cls-1{fill:url(#linear-gradient);}.cls-2{fill:url(#linear-gradient-2);}.cls-14,.cls-18,.cls-22,.cls-3{fill:#fff;}.cls-4{fill:url(#linear-gradient-3);}.cls-5{fill:url(#radial-gradient);}.cls-6{fill:url(#linear-gradient-4);}.cls-7{fill:url(#linear-gradient-5);}.cls-8{fill:url(#linear-gradient-6);}.cls-9{fill:url(#linear-gradient-7);}.cls-10{fill:url(#linear-gradient-8);}.cls-11{fill:url(#linear-gradient-9);}.cls-12{fill:url(#linear-gradient-10);}.cls-13{fill:url(#linear-gradient-11);}.cls-14{font-size:7.03px;}.cls-14,.cls-22{font-family:Roboto-Regular, Roboto Regular;}.cls-15{letter-spacing:7.3em;}.cls-16{letter-spacing:7.32em;}.cls-17{fill:#3656c9;}.cls-18{font-size:7.76px;font-family:Roboto-Bold, Roboto Bold;font-weight:700;letter-spacing:0.05em;}.cls-19{letter-spacing:0.02em;}.cls-20{letter-spacing:0.05em;}.cls-21{letter-spacing:0.04em;}.cls-22{font-size:4.39px;}.cls-23{letter-spacing:-0.08em;}.cls-24{fill:url(#linear-gradient-12);}.cls-25{font-size:5.2px;}.cls-25,.cls-27,.cls-40{fill:#312e6d;font-family:OpenSans-Semibold, OpenSans Semibold;font-weight:600;}.cls-26{letter-spacing:0em;}.cls-27,.cls-40{font-size:6.25px;}.cls-28{letter-spacing:0em;}.cls-29{letter-spacing:0em;}.cls-30{letter-spacing:-0.01em;}.cls-31{letter-spacing:-0.04em;}.cls-32{letter-spacing:-0.03em;}.cls-33{letter-spacing:0em;}.cls-34{fill:url(#linear-gradient-13);}.cls-35{letter-spacing:0.01em;}.cls-36{fill:url(#linear-gradient-14);}.cls-37{letter-spacing:0.01em;}.cls-38{letter-spacing:0.01em;}.cls-39{fill:url(#linear-gradient-15);}.cls-40{letter-spacing:-0.02em;}.cls-41{letter-spacing:0em;}.cls-42{fill:url(#linear-gradient-16);}.cls-43{letter-spacing:-0.01em;}.cls-44{letter-spacing:-0.01em;}.cls-45{letter-spacing:0.02em;}.cls-46{fill:url(#linear-gradient-17);}.cls-47{fill:url(#linear-gradient-18);}.cls-48{fill:url(#linear-gradient-19);}.cls-49{fill:url(#linear-gradient-20);}.cls-50{fill:url(#linear-gradient-21);}.cls-51{fill:url(#linear-gradient-22);}.cls-52{fill:url(#linear-gradient-23);}.cls-53{fill:url(#linear-gradient-24);}.cls-54{fill:url(#linear-gradient-25);}.cls-55{fill:url(#linear-gradient-26);}.cls-56{fill:#f5d3ac;}.cls-57{fill:#2f3a9e;}.cls-58,.cls-59{fill:none;stroke-linecap:round;stroke-miterlimit:10;stroke-width:0.5px;}.cls-58{stroke:#ff9b72;}.cls-59{stroke:#2f3a9e;}.cls-60{fill:url(#linear-gradient-27);}.cls-61{fill:url(#linear-gradient-28);}.cls-62{fill:url(#linear-gradient-29);}.cls-63{fill:url(#linear-gradient-30);}.cls-64{fill:url(#linear-gradient-31);}.cls-65{fill:url(#linear-gradient-32);}.cls-66{fill:url(#linear-gradient-33);}.cls-67{fill:url(#linear-gradient-34);}</style><linearGradient id="linear-gradient" x1="84.83" y1="367.48" x2="172.87" y2="135.98" gradientUnits="userSpaceOnUse"><stop offset="0" stop-color="#fff" stop-opacity="0"/><stop offset="1" stop-color="#c9c7ff"/></linearGradient><linearGradient id="linear-gradient-2" x1="206.47" y1="-755.54" x2="265.99" y2="-755.54" gradientTransform="matrix(0.86, -0.51, 0.51, 0.86, 296.57, 1088.11)" gradientUnits="userSpaceOnUse"><stop offset="0" stop-color="#8b8bff"/><stop offset="0.62" stop-color="#b4b4ff"/></linearGradient><linearGradient id="linear-gradient-3" x1="219.56" y1="738.23" x2="294.95" y2="738.23" gradientTransform="translate(53.86 -508.65) rotate(13.88)" gradientUnits="userSpaceOnUse"><stop offset="0" stop-color="#45abe2"/><stop offset="1" stop-color="#433ebd"/></linearGradient><radialGradient id="radial-gradient" cx="1009.38" cy="-375.19" r="83.18" gradientTransform="translate(-2482.49 506.38) scale(2.68 0.35)" gradientUnits="userSpaceOnUse"><stop offset="0" stop-color="#8daeff"/><stop offset="1" stop-color="#fff" stop-opacity="0"/></radialGradient><linearGradient id="linear-gradient-4" x1="280.86" y1="304.19" x2="280.86" y2="17.59" xlink:href="#linear-gradient"/><linearGradient id="linear-gradient-5" x1="2886.59" y1="373.26" x2="2953.78" y2="196.56" gradientTransform="matrix(-1, 0, 0, 1, 3245.37, 0)" xlink:href="#linear-gradient"/><linearGradient id="linear-gradient-6" x1="2662.37" y1="369.1" x2="2682.25" y2="369.1" gradientTransform="matrix(-1, 0, 0, 1, 2838.31, 0)" gradientUnits="userSpaceOnUse"><stop offset="0.02" stop-color="#343b97"/><stop offset="1" stop-color="#5457d4"/></linearGradient><linearGradient id="linear-gradient-7" x1="164.33" y1="219.92" x2="309.79" y2="219.92" gradientUnits="userSpaceOnUse"><stop offset="0" stop-color="#5457d4"/><stop offset="1" stop-color="#302c8b"/></linearGradient><linearGradient id="linear-gradient-8" x1="290.68" y1="410.75" x2="169.11" y2="16.68" gradientUnits="userSpaceOnUse"><stop offset="0.02" stop-color="#343b97"/><stop offset="0.54" stop-color="#5457d4"/><stop offset="1" stop-color="#46c8ff"/></linearGradient><linearGradient id="linear-gradient-9" x1="232.36" y1="367.96" x2="232.36" y2="90.09" gradientTransform="matrix(1, 0, 0, 1, 0, 0)" xlink:href="#linear-gradient-3"/><linearGradient id="linear-gradient-10" x1="232.34" y1="57.47" x2="231.34" y2="98.47" xlink:href="#linear-gradient-7"/><linearGradient id="linear-gradient-11" x1="231.81" y1="114.44" x2="231.81" y2="93.94" xlink:href="#linear-gradient-7"/><linearGradient id="linear-gradient-12" x1="233.67" y1="266.04" x2="233.67" y2="227.3" gradientUnits="userSpaceOnUse"><stop offset="0" stop-color="#fff" stop-opacity="0"/><stop offset="1" stop-color="#fff"/></linearGradient><linearGradient id="linear-gradient-13" x1="233.67" y1="293.39" x2="233.67" y2="254.66" xlink:href="#linear-gradient-12"/><linearGradient id="linear-gradient-14" x1="233.67" y1="320.74" x2="233.67" y2="282.01" xlink:href="#linear-gradient-12"/><linearGradient id="linear-gradient-15" x1="233.67" y1="348.09" x2="233.67" y2="309.36" xlink:href="#linear-gradient-12"/><linearGradient id="linear-gradient-16" x1="233.67" y1="375.45" x2="233.67" y2="336.71" xlink:href="#linear-gradient-12"/><linearGradient id="linear-gradient-17" x1="345.87" y1="293.3" x2="348.87" y2="329.68" gradientUnits="userSpaceOnUse"><stop offset="0" stop-color="#f59f7c"/><stop offset="1" stop-color="#f5d3ac"/></linearGradient><linearGradient id="linear-gradient-18" x1="336.28" y1="366.48" x2="362.76" y2="366.48" xlink:href="#linear-gradient-7"/><linearGradient id="linear-gradient-19" x1="328.12" y1="274.87" x2="326.99" y2="316.12" xlink:href="#linear-gradient-17"/><linearGradient id="linear-gradient-20" x1="322.12" y1="366.56" x2="350.37" y2="366.56" gradientTransform="matrix(1, 0, 0.07, 1, -36.89, 0)" xlink:href="#linear-gradient-7"/><linearGradient id="linear-gradient-21" x1="268.99" y1="170.58" x2="341" y2="170.58" xlink:href="#linear-gradient-7"/><linearGradient id="linear-gradient-22" x1="250.61" y1="165.6" x2="272.57" y2="165.6" xlink:href="#linear-gradient-17"/><linearGradient id="linear-gradient-23" x1="344.59" y1="163.89" x2="339.16" y2="199.7" gradientTransform="matrix(1, 0, 0, 1, 0, 0)" xlink:href="#linear-gradient-2"/><linearGradient id="linear-gradient-24" x1="321.87" y1="262.21" x2="368.51" y2="262.21" xlink:href="#linear-gradient-7"/><linearGradient id="linear-gradient-25" x1="321.89" y1="204.83" x2="369.37" y2="204.83" xlink:href="#linear-gradient-7"/><linearGradient id="linear-gradient-26" x1="328.22" y1="136.95" x2="350.93" y2="136.95" xlink:href="#linear-gradient-7"/><linearGradient id="linear-gradient-27" x1="337.99" y1="155.62" x2="352.54" y2="155.62" xlink:href="#linear-gradient-17"/><linearGradient id="linear-gradient-28" x1="320.97" y1="225.18" x2="365.69" y2="225.18" gradientTransform="matrix(1, 0, 0, 1, 0, 0)" xlink:href="#linear-gradient-2"/><linearGradient id="linear-gradient-29" x1="342.31" y1="198.13" x2="372.01" y2="198.13" xlink:href="#linear-gradient-7"/><linearGradient id="linear-gradient-30" x1="330.89" y1="173.54" x2="337.85" y2="173.54" xlink:href="#linear-gradient-7"/><linearGradient id="linear-gradient-31" x1="337.85" y1="173.74" x2="357.16" y2="173.74" xlink:href="#linear-gradient-7"/><linearGradient id="linear-gradient-32" x1="351.14" y1="166.68" x2="338.77" y2="160.3" gradientUnits="userSpaceOnUse"><stop offset="0" stop-color="#8b8bff"/><stop offset="1" stop-color="#b4b4ff"/></linearGradient><linearGradient id="linear-gradient-33" x1="343.26" y1="159.01" x2="356.2" y2="160.13" xlink:href="#linear-gradient-32"/><linearGradient id="linear-gradient-34" x1="331.69" y1="135.37" x2="358.84" y2="135.37" xlink:href="#linear-gradient-7"/></defs><g id="Layer_2" data-name="Layer 2"><g id="OBJECTS"><path class="cls-1" d="M104.23,67.41l76.59,34.11c5.34,2.37,9.61,10.7,9.61,18.63V360.41c0,7.93-4.27,14.35-9.61,14.35H104.23c-6.88,0-12.56-7.47-12.56-16.7V78.52C91.67,69.29,97.35,64.35,104.23,67.41Z"/><path class="cls-2" d="M88.68,299.39a13,13,0,0,0-7.88,3.26c-1.79,1.56-7.32,7.52-9.84,7.25A20.78,20.78,0,0,1,76.33,311c5.2,2,3,6.66,6.42,9.95a6.88,6.88,0,0,0,5.67,1.54,20.34,20.34,0,0,0,5.72-2c.76,1.58-.53,3.44-2,4.31s-3.34,1.23-4.72,2.31c1.49,3.43,4.08,7.23,7.81,7,4.22-.26,6.33-5.46,10.23-7.09a1.61,1.61,0,0,1,1.72.07c.51.49.27,1.35-.06,2a16.2,16.2,0,0,1-9.73,8.14,13.43,13.43,0,0,0,6.46,4.29,7.77,7.77,0,0,0,7.34-1.68c2-2,2.5-5.06,4.38-7.14a2.46,2.46,0,0,1,2.37-1,2.34,2.34,0,0,1,1.37,1.67,7.61,7.61,0,0,1-1.45,6.56,22.88,22.88,0,0,1-5.15,4.65c5.94.53,12.25,0,17.27-3.19s8.31-9.67,6.39-15.32c-.76-2.21-2.13-4.46-1.58-6.9.46-2,2.08-3.62,2.63-5.64,1.47-5.33-.72-11.53-4.68-15.22a16.33,16.33,0,0,0-13.94-4,16.12,16.12,0,0,1,7,7.42,5.08,5.08,0,0,1,.58,2.82,2.17,2.17,0,0,1-1.9,1.91c-1.27,0-2.08-1.31-2.61-2.48-1.56-3.45-2.78-6.73-6.71-7.95a21.51,21.51,0,0,0-7.76-.54,12.16,12.16,0,0,1,3.15,5.24c.29,1,2.17,4.06.28,4.62-.6.17-1.18-.36-1.57-.86-1.23-1.63-2.09-3.51-3.29-5.16-2-2.8-5-4.3-8.35-3.43-.43.11-3.2,1.71-3.2,1.71A8.78,8.78,0,0,1,100,304a1.09,1.09,0,0,1,0,.62.93.93,0,0,1-1,.41c-1.94-.26-2.71-2.6-4.1-4a6.47,6.47,0,0,0-4.3-1.66A16.06,16.06,0,0,0,88.68,299.39Z"/><path class="cls-3" d="M78.6,310.19c14.07.89,28.22,2.46,41.77,6.5s26.69,10.77,35.3,22.37c6,8.05,9.66,17.29,12.47,26.84a.48.48,0,0,0,.92-.25,80.53,80.53,0,0,0-10.49-24.54,54.69,54.69,0,0,0-15.28-15.41c-12.09-8.13-26.66-11.95-40.92-14.06-7.88-1.16-15.82-1.82-23.77-2.24-.51,0-.51.76,0,.79Z"/><path class="cls-3" d="M95.71,326.85a21,21,0,0,0,7.41-5.44c1.14-1.17,2.24-2.39,3.42-3.53,1.37-1.32,3.07-3.08,5.07-3.22a.46.46,0,0,0,.12-.9c-5.73-1.69-7.35-8.28-11-12.28-.37-.41-.94.18-.6.59,3.57,4.28,5.5,10.81,11.37,12.57l.12-.9c-3.2.2-5.85,3.54-7.88,5.7-2.43,2.59-4.87,5.29-8.24,6.62-.48.19-.28,1,.22.79Z"/><path class="cls-3" d="M106.72,336c4.17-1.35,5.19-5.91,6.44-9.57a12.94,12.94,0,0,1,9.76-8.85.46.46,0,0,0,.1-.83c-5.09-3.17-5.12-10-7.91-14.77a.42.42,0,0,0-.72.43c2.71,5,2.9,11.85,8.18,15.12l.1-.82a13.52,13.52,0,0,0-9.16,6.66c-2.14,3.88-2.11,10.15-7,11.85-.49.17-.28.94.21.78Z"/><path class="cls-3" d="M123.4,338.32a11.2,11.2,0,0,0,6.78-6.64c1.13-3.49-.82-9.47,3.46-11.29.32-.14.25-.61,0-.77-3.66-2.24-1.58-7.33-1.57-10.7a14.47,14.47,0,0,0-3.1-9c-.28-.36-.9.11-.64.49a15.32,15.32,0,0,1,2.53,11.72c-.41,2.93-.55,6.48,2.33,8.24v-.77c-3.4,1.44-3.31,5.53-3.4,8.62a9.42,9.42,0,0,1-2,6,12.82,12.82,0,0,1-4.68,3.36c-.4.18-.11.87.3.71Z"/><path class="cls-4" d="M123.77,232.67a16.4,16.4,0,0,0-10-4.1c-3-.2-13.29.22-15.32-2.28a27,27,0,0,1,3.89,5.74c2.89,6.43-3.25,8.66-3.11,14.67a8.69,8.69,0,0,0,3.72,6.44,25.77,25.77,0,0,0,6.9,3.34c-.72,2.1-3.54,2.61-5.69,2s-4.09-1.88-6.3-2.13c-1.72,4.41-2.79,10.14.77,13.26,4,3.52,10.56.74,15.52,2.76.71.29,1.47.82,1.49,1.59s-1,1.46-1.83,1.74a20.58,20.58,0,0,1-16-1.37,17,17,0,0,0,2,9.62,9.86,9.86,0,0,0,8.09,5c3.56,0,6.77-2.32,10.32-2.51a3.12,3.12,0,0,1,3,1.23,3,3,0,0,1-.25,2.72c-1.37,2.61-4.26,4.14-7.16,4.6a28.2,28.2,0,0,1-8.78-.42c4.86,5.79,11,10.95,18.36,12.55s16.1-1.27,19.41-8.06c1.3-2.66,2.07-5.91,4.74-7.61,2.2-1.39,5.1-1.39,7.4-2.71,6.07-3.49,9.63-11,9.38-17.87a20.71,20.71,0,0,0-8.91-16.08,20.46,20.46,0,0,1-.38,12.87,6.39,6.39,0,0,1-2,3.06,2.76,2.76,0,0,1-3.41,0c-1.18-1.11-.7-3.05-.13-4.57,1.68-4.48,3.5-8.53,1.07-13.12a27.23,27.23,0,0,0-6.5-7.42,15.42,15.42,0,0,1-1.84,7.52c-.64,1.17-1.67,5.59-3.86,4.4-.71-.38-.76-1.38-.65-2.18.34-2.56,1.26-5,1.65-7.57.67-4.33-.65-8.31-4.45-10.53-.48-.28-4.4-1.32-4.4-1.32a11.11,11.11,0,0,1-.68,10.81,1.37,1.37,0,0,1-.56.56,1.21,1.21,0,0,1-1.3-.55c-1.5-2-.11-4.75-.13-7.23a8.22,8.22,0,0,0-2.39-5.33A23.05,23.05,0,0,0,123.77,232.67Z"/><path class="cls-3" d="M105.15,233.3a259.49,259.49,0,0,1,30.93,43.12,282.68,282.68,0,0,1,22.24,50.35c3.49,10.32,6.47,20.78,9.69,31.18a.48.48,0,0,0,.92-.26c-5.1-18.62-10.8-37.25-18.4-55a249.58,249.58,0,0,0-26.09-46.59,259.22,259.22,0,0,0-18.73-23.34c-.34-.38-.9.18-.56.56Z"/><path class="cls-3" d="M105.63,263.51c3.83,1.7,8,1.8,12.1,1.7,2.21-.06,4.42-.17,6.63-.08s4.79.12,6.47,1.63a.46.46,0,0,0,.72-.56c-3.67-6.64.78-14,1.06-20.91,0-.55-.79-.53-.84,0-.58,7-4.71,14.59-1,21.38l.72-.56a8.29,8.29,0,0,0-4.93-1.76,47.07,47.07,0,0,0-6.61-.13c-4.68.14-9.5.49-13.9-1.41-.48-.21-.89.49-.41.7Z"/><path class="cls-3" d="M107.35,281.58c5,2.57,10.11-.88,14.57-3a16.43,16.43,0,0,1,16.43.92A.45.45,0,0,0,139,279c-1.77-7.42,4.32-13.59,6.07-20.38a.41.41,0,0,0-.8-.22c-2,6.91-8,13.21-6.14,20.84l.66-.51a17.06,17.06,0,0,0-14.4-2.1c-5.27,1.66-10.82,7.15-16.64,4.3-.46-.23-.87.46-.41.7Z"/><path class="cls-3" d="M120.27,298.55c4,1.72,8.9,2,12.7-.38s7.27-8.73,12.48-6.63c.33.14.62-.25.55-.55-1.32-5.3,5.08-8.05,8.13-11.08a18.27,18.27,0,0,0,5.25-10.79c.05-.45-.73-.56-.8-.11a18.62,18.62,0,0,1-7.31,12.18c-3.17,2.42-7.27,5.47-6.13,10l.55-.55c-4.41-1.78-8,2.2-10.87,4.9A11.79,11.79,0,0,1,128,299a15.75,15.75,0,0,1-7.46-1.14c-.42-.16-.72.54-.31.72Z"/><ellipse class="cls-5" cx="222.96" cy="374.76" rx="222.96" ry="29.18"/><path class="cls-6" d="M324.66,374.76V12A12,12,0,0,0,307.9,1L255.28,24a30.36,30.36,0,0,0-18.22,27.83V374.76Z"/><path class="cls-7" d="M353.49,145.36l-79.44,25.46c-5.55,1.77-10,8-10,13.91V364.05c0,5.92,4.42,10.71,10,10.71h79.44c7.14,0,13-5.58,13-12.46V153.66C366.53,146.77,360.63,143.08,353.49,145.36Z"/><path class="cls-8" d="M157.2,363.44l-1.14,11.32h19.88v-3c-.46-1.12-6.63-5.5-7.79-8.3Z"/><rect class="cls-9" x="164.33" y="65.07" width="145.46" height="309.7" rx="18.77"/><rect class="cls-10" x="159.08" y="65.07" width="145.46" height="309.7" rx="18.77"/><path class="cls-11" d="M300,89.31V349.12a8,8,0,0,1-8,8H172.73a8,8,0,0,1-8-8V89.31a8,8,0,0,1,8-8h45.8A10.72,10.72,0,0,1,226.76,85,7.31,7.31,0,0,0,238,85a10.73,10.73,0,0,1,8.24-3.64H292A8,8,0,0,1,300,89.31Z"/><circle class="cls-12" cx="231.81" cy="79.02" r="3.66"/><circle class="cls-13" cx="231.81" cy="79.02" r="1.7"/><circle class="cls-3" cx="233.67" cy="153.6" r="5.91"/><text class="cls-14" transform="translate(179.2 140.23)"><tspan class="cls-15">	</tspan><tspan x="16.07" y="0"> </tspan><tspan class="cls-16" x="17.56" y="0">	</tspan><tspan x="36.46" y="0">1</tspan><tspan x="52.67" y="0">2</tspan><tspan x="68.89" y="0">3</tspan><tspan x="85.1" y="0">4</tspan><tspan x="101.31" y="0">5</tspan><tspan x="4.09" y="15.79">6</tspan><tspan x="20.25" y="15.79">7</tspan><tspan x="36.46" y="15.79">8</tspan><tspan class="cls-17"><tspan x="52.67" y="15.79">9</tspan></tspan><tspan x="67.08" y="15.79">10</tspan><tspan x="83.3" y="15.79">11</tspan><tspan x="99.49" y="15.79">12</tspan><tspan x="2.27" y="31.58">13</tspan><tspan x="18.44" y="31.58">14</tspan><tspan x="34.66" y="31.58">15</tspan><tspan x="50.87" y="31.58">16</tspan><tspan x="67.08" y="31.58">17</tspan><tspan x="83.3" y="31.58">18</tspan><tspan x="99.48" y="31.58">19</tspan><tspan x="2.26" y="47.38">20</tspan><tspan x="18.44" y="47.38">21</tspan><tspan x="34.66" y="47.38">22</tspan><tspan x="50.87" y="47.38">23</tspan><tspan x="67.08" y="47.38">24</tspan><tspan x="83.3" y="47.38">25</tspan><tspan x="99.46" y="47.38">26</tspan><tspan x="2.24" y="63.17">27</tspan><tspan x="18.44" y="63.17">28</tspan><tspan x="34.66" y="63.17">29</tspan><tspan x="50.87" y="63.17">30</tspan><tspan x="67.08" y="63.17">31</tspan></text><text class="cls-18" transform="translate(181.25 112.01)">JAN<tspan class="cls-19" x="13.89" y="0">U</tspan><tspan class="cls-20" x="19.04" y="0">A</tspan><tspan class="cls-21" x="24.17" y="0">R</tspan><tspan class="cls-20" x="28.65" y="0">Y</tspan></text><text class="cls-22" transform="translate(179.5 125.54)">SUN<tspan x="15.83" y="0">MON</tspan><tspan x="33.56" y="0">TUE</tspan><tspan x="49.35" y="0">WED</tspan><tspan x="66.41" y="0">THU</tspan><tspan x="84.18" y="0">FRI</tspan><tspan x="100.21" y="0">S</tspan><tspan class="cls-23" x="102.37" y="0">A</tspan><tspan x="104.72" y="0">T</tspan></text><rect class="cls-24" x="176.09" y="216.43" width="115.17" height="20.95" rx="7.31"/><text class="cls-25" transform="translate(261.17 228.3)">08.00 <tspan class="cls-26" x="12.85" y="0">A</tspan><tspan x="16.01" y="0">M</tspan></text><text class="cls-27" transform="translate(182 228.6)"><tspan class="cls-28">G</tspan><tspan class="cls-29" x="4.07" y="0">o </tspan><tspan class="cls-30" x="8.83" y="0">t</tspan><tspan x="10.86" y="0">o</tspan><tspan class="cls-31" x="14.3" y="0"> </tspan><tspan class="cls-32" x="15.4" y="0">W</tspan><tspan x="20.48" y="0">o</tspan><tspan class="cls-33" x="23.91" y="0">r</tspan><tspan x="25.98" y="0">k</tspan></text><rect class="cls-34" x="176.09" y="243.78" width="115.17" height="20.95" rx="7.31"/><text class="cls-25" transform="translate(261.17 255.65)">08.30 <tspan class="cls-26" x="12.85" y="0">A</tspan><tspan x="16.01" y="0">M</tspan></text><text class="cls-27" transform="translate(182 255.95)"><tspan class="cls-35">M</tspan><tspan x="5.07" y="0">eeting</tspan></text><rect class="cls-36" x="176.09" y="271.13" width="115.17" height="20.95" rx="7.31"/><text class="cls-25" transform="translate(261.17 283)">11.00 <tspan class="cls-26" x="12.85" y="0">A</tspan><tspan x="16.01" y="0">M</tspan></text><text class="cls-27" transform="translate(182 283.3)"><tspan class="cls-37">I</tspan><tspan x="1.56" y="0">nspe</tspan><tspan class="cls-38" x="14.2" y="0">c</tspan><tspan class="cls-29" x="17.08" y="0">tion</tspan></text><rect class="cls-39" x="176.09" y="298.48" width="115.17" height="20.95" rx="7.31"/><text class="cls-25" transform="translate(261.17 310.35)">12.00 <tspan class="cls-26" x="12.85" y="0">A</tspan><tspan x="16.01" y="0">M</tspan></text><text class="cls-40" transform="translate(182 310.65)">L<tspan class="cls-41" x="2.86" y="0">unch</tspan></text><rect class="cls-42" x="176.09" y="325.84" width="115.17" height="20.95" rx="7.31"/><text class="cls-25" transform="translate(261.39 337.71)">01.00 <tspan class="cls-43" x="12.85" y="0">P</tspan><tspan x="15.55" y="0">M</tspan></text><text class="cls-27" transform="translate(182 338.01)">Back <tspan class="cls-44" x="13.46" y="0">t</tspan><tspan class="cls-29" x="15.5" y="0">o </tspan><tspan class="cls-45" x="20.26" y="0">O</tspan><tspan x="24.66" y="0">ffi</tspan><tspan class="cls-44" x="29.76" y="0">c</tspan><tspan x="32.53" y="0">e</tspan></text><path class="cls-46" d="M359,368.31a11.1,11.1,0,0,1-1.72,1.42c-2.14,1.46-5.89,4.26-8.59,4-2-.19-3.82.54-5.87.32-1.21-.13-2.42-.26-3.64-.37-1-.11-2.25-.37-2.75-1.35a1.8,1.8,0,0,1,.69-2.27,7.33,7.33,0,0,1,2.41-.71,14.86,14.86,0,0,0,6-3,29.71,29.71,0,0,0,7.72-10.17l-7.09-69.23h15.21c-1.26,0-.87,14.49-.69,15.87.9,6.76,3.13,13.52,3.35,20.28a61.08,61.08,0,0,1-.52,8.89c-.81,7.62-1.17,15.31-1.77,22.93-.2,2.56.93,4.95.46,7.44A11.56,11.56,0,0,1,359,368.31Z"/><path class="cls-47" d="M361.58,373.76c0,.09-.05.18-.07.26a5.18,5.18,0,0,0-1.8-.17c.25-1.2.9-4.88-.5-5.13-.79-.14-2.86,1.58-3.54,2-2.42,1.43-5,3.38-7.81,3.82a14.68,14.68,0,0,1-4-.1c-1.73-.2-6.46-.16-7.44-2.08a1.8,1.8,0,0,1,.69-2.27,7.33,7.33,0,0,1,2.41-.71,14.86,14.86,0,0,0,6-3,10.64,10.64,0,0,0,4.49.27c4.5-.74,5.92-2,11.86-8.24l0,0c.33,2.6,1,4.69.8,7.36A48.82,48.82,0,0,1,361.58,373.76Z"/><path class="cls-48" d="M340.86,302.79c.26,6.76,1.85,13.52,1.45,20.28a63.42,63.42,0,0,1-1.37,8.89c-1.52,7.62-2.61,15.31-3.91,22.93,0,0-.56,7.81-.84,8.49-.68,1.64-2.53,2.31-3.78,3.53-1,.95-1.61,2.24-2.58,3.2-1.56,1.52-5.36,3.84-7.64,3.63-2-.19-3.87.54-5.89.32-1.2-.13-2.4-.26-3.61-.37-1-.11-2.22-.37-2.62-1.35a1.94,1.94,0,0,1,.9-2.27,7.89,7.89,0,0,1,2.48-.71A16.93,16.93,0,0,0,320.1,366a34.55,34.55,0,0,0,8.31-9.89l-.58-69.23H343C341.77,286.92,340.81,301.41,340.86,302.79Z"/><path class="cls-49" d="M336.56,374.66v.1h-1.94c-.06-1.64.22-5.85-1.39-6.06-.88-.12-2.67,1.37-3.4,1.78-3.55,2-6.36,4.49-10.75,4.11a33.6,33.6,0,0,1-7.34-1.27,3.63,3.63,0,0,1-2-1.3,1.65,1.65,0,0,1,.12-2.15,2.1,2.1,0,0,1,.88-.34c3.48-.79,6.46-1.27,9.31-3.49a11.29,11.29,0,0,0,5.43.55c4.45-.74,5.79-2,11.34-8.23a25.85,25.85,0,0,1,0,5.35A42.18,42.18,0,0,0,336.56,374.66Z"/><path class="cls-50" d="M335.73,157.17c-.56,0-24,11.52-28.49,12.52s-35.75-6.26-35.75-6.26-2.5,6.51-2.5,8.76c16,6.5,35,11,38.5,11.75s25.42-7.75,30.46-11.25S341.48,157.64,335.73,157.17Z"/><path class="cls-51" d="M272.27,165.6l-2.46-.41s-3.2-3.17-4.46-3.57a58.08,58.08,0,0,1-5.65-1.74c-1.26-.59-1,.59-.33,1.35a18.25,18.25,0,0,0,2.94,2.1c-2.85-.87-5.68-1.77-8.53-2.67a2,2,0,0,0-.72-.14.68.68,0,0,0-.6.36,1,1,0,0,1-.11.23c-.13.13-.35.06-.52,0-.6-.25-1.15-.58-1.22.26,0,.19.52,1.41.71,1-.39.72.24,1.56.83,2.14a12.86,12.86,0,0,0,2.52,2.08l-2.21-.33c-.25.88.73,1.58,1.57,1.94a35.84,35.84,0,0,0,9.34,2.39c.55.08,7.07.25,7,.85C271.19,171.47,273.36,165.6,272.27,165.6Z"/><path class="cls-52" d="M353.36,157.64c-1.75,4.46-9.53,24-15.51,33.11-1.29-6.55-.26-29.09,0-33.62,2.51-.08,5.12.19,7.61.24l7.08.14A3.39,3.39,0,0,1,353.36,157.64Z"/><path class="cls-53" d="M326.62,234.68s-5.11,46.08-4.73,57.27c17.39,8.33,45,.52,45,.52s-.95-15.09,0-23.16,3.05-17.71,0-26a144.28,144.28,0,0,1-4.55-14.65Z"/><path class="cls-54" d="M369.34,245.72a2.41,2.41,0,0,1-.28,1.33,2.44,2.44,0,0,1-.84.65l-.9.47c-7.83,3.86-17.06,3.74-25.84,3.51a42.6,42.6,0,0,1-2-15.49c-3.2,4.71-2.11,11.19-4.56,16.34-4.35-.67-8.68-1.54-12.95-2.6-1.14-18.31,7-35.51,1.92-53.74-1.57-5.58-2.53-10.21-.5-15.79,2.12-5.84,5.15-11.49,7.69-17.16l.05-.11.42-1c1.05-2.4,2.19-4.75,5-5l.35,0a8.12,8.12,0,0,1,.86,0c-.22,4.53-1.25,27.07,0,33.62,6-9.1,13.76-28.65,15.51-33.11a7.32,7.32,0,0,1,.87.28c.76.27,1.52.63,2.18.8a20.75,20.75,0,0,1,5.72,2.16c4.86,3,4.47,10.09,4.57,15.22a82.25,82.25,0,0,1-3.23,24.11,31.75,31.75,0,0,0,.79,20.33c.82,2,1.92,3.92,2.75,5.93C369.48,232.49,369.43,239.21,369.34,245.72Z"/><path class="cls-55" d="M348.56,122.5a10.93,10.93,0,0,0-4.87-4c-.72-.22-1.48-.23-2.21-.39a6.59,6.59,0,0,0-1.37-.25,4.33,4.33,0,0,0-1.31.32c-5.29,2-10.27,5.17-9.6,11.59a39.57,39.57,0,0,0,1.63,6.08,18,18,0,0,1,0,9.83c-1,3.42-3.22,6.77-2.44,10.25a5,5,0,0,1,3.4-2.45,36.45,36.45,0,0,1,4.31-.5,17,17,0,0,0,13.28-9.93c2-4.75,1.76-10.17.91-15.27A14.17,14.17,0,0,0,348.56,122.5Z"/><path class="cls-56" d="M354.45,132.1a95.93,95.93,0,0,1-1.59,12c-.32,1.9-.7,3.89-.89,5.85a22.94,22.94,0,0,0-.12,2.47,11.3,11.3,0,0,0,.61,1.88l.08.77-2.28,3.17a3.25,3.25,0,0,0-1.83.6,25.22,25.22,0,0,0-3.06,3.75c-1.13,1.43-2.32,2.55-3.63,2.06-2.46-1-3.74-4.72-4.65-6.94a1.09,1.09,0,0,1-.1-.91,1.5,1.5,0,0,1,.61-.47c2.55-1.46,2.31-3.29,1.71-5.54q0-.16-.09-.36a2.63,2.63,0,0,0-.09-.3,2.15,2.15,0,0,0-1.14-.49c-.53-.1-1.1-.13-1.61-.27-1.79-.49-2.59-2.3-3.12-3.9a23,23,0,0,1-1.29-5.39,24.75,24.75,0,0,1,.12-3.94,51.38,51.38,0,0,0-.15-9c-.23-2.87,1.94-6,4.56-7.54a15.87,15.87,0,0,1,3.91-1.55,12.6,12.6,0,0,1,2.45-.45,10.33,10.33,0,0,1,5.23,1.26C353.61,121.8,354.68,126.88,354.45,132.1Z"/><path class="cls-57" d="M334.65,135.37c0,.51-.26.92-.59.92s-.59-.41-.59-.92.27-.93.59-.93S334.65,134.86,334.65,135.37Z"/><path class="cls-57" d="M340.76,135.37c0,.51-.27.92-.59.92s-.59-.41-.59-.92.26-.93.59-.93S340.76,134.86,340.76,135.37Z"/><path class="cls-58" d="M335.08,138.22l-.81,2.94a.92.92,0,0,0,0,.29c0,.33.47.44.8.46"/><path class="cls-58" d="M334.52,144.22a4,4,0,0,0,3.65,0"/><path class="cls-59" d="M333.09,132.2a1.74,1.74,0,0,1,1.46-.52"/><path class="cls-59" d="M339.59,131.9a2.06,2.06,0,0,1,2.12.68"/><path class="cls-60" d="M352.54,155.1l-2.28,3.17a3.25,3.25,0,0,0-1.83.6,25.22,25.22,0,0,0-3.06,3.75c-1.25-2.92-4-9.19-6.06-11.8q0-.16-.09-.36a2.63,2.63,0,0,0-.09-.3,2.15,2.15,0,0,0-1.14-.49c4.17.53,13.83-1.06,13.83-1.06L352,150l.49,4.35Z"/><polygon class="cls-61" points="365.69 228.24 337.92 201.17 320.97 221.88 347.57 249.18 365.69 228.24"/><path class="cls-56" d="M345.05,228.62c-1.26,1.5-3.36,1.9-5.19,2.61a26.66,26.66,0,0,0-6.91,4.52c-.39.32,1.79.85,1.86.86a1.47,1.47,0,0,0,.78,0,1.56,1.56,0,0,0,.45-.4,6.16,6.16,0,0,1,3.56-1.95,4.58,4.58,0,0,1-1.12,2.24c-.23.25-1.76,1.68-1.56,2a2.86,2.86,0,0,0-1.57-1.18c-.28,1.35-.56,2.7-.83,4.05a1.55,1.55,0,0,0,0,1c.32.71,1.42.62,1.94,1.2.18.2.28.47.5.62a1.38,1.38,0,0,0,.75.16,27.27,27.27,0,0,1,3.55.83,3.29,3.29,0,0,0,3.33-.93,4.18,4.18,0,0,0,.53-1.29,44.41,44.41,0,0,1,4.84-10.8Z"/><path class="cls-62" d="M371.64,179.38a122.77,122.77,0,0,1,.32,13.71,46.52,46.52,0,0,1-5.57,22.26,72.71,72.71,0,0,1-15.82,19.85,1.13,1.13,0,0,1-.59.33,1.06,1.06,0,0,1-.72-.34c-2.48-2.09-4.38-4.52-6.95-6.51,5.44-8.16,11.34-16.06,14.63-25.48,3-8.69,2.36-19.09,2.24-28.16,0-2.9-1.88-15,3.18-14.28a5.84,5.84,0,0,1,.81.17c4.94,1.36,6.31,6.9,7.32,11.24A54.06,54.06,0,0,1,371.64,179.38Z"/><path class="cls-63" d="M337.85,190.75c-3.78-8.61-5.81-20.65-5.81-20.65l2.91-2.73-3.78-4.24-.28-.31.7-.65,5.36-5,.9-.84s0,.28,0,.8C337.59,161.66,336.56,184.2,337.85,190.75Z"/><path class="cls-64" d="M353.76,166.38l.75,7.16-16.66,17.21c6-9.1,13.76-28.65,15.51-33.11.23-.59.35-.92.35-.92l.52,1.2,2.93,6.77Z"/><path class="cls-65" d="M339.75,153.12c.16,1.55.11,3.37.34,4.91a58.73,58.73,0,0,0,1.58,7.31,7.23,7.23,0,0,1-3.15-2.87,1.5,1.5,0,0,1-.42.91l-2.94,3.79a11.26,11.26,0,0,1,0-5.65c.54-2.13,1.39-4.19,2-6.3.92-3.38,2.4-3.28,2.4-3.28C339.58,152.41,339.7,152.65,339.75,153.12Z"/><path class="cls-66" d="M353.56,157c.22-2.07-.18-5-2.17-6.1a16.41,16.41,0,0,1-.91,4.29,20.88,20.88,0,0,1-2.45,4,53.15,53.15,0,0,1-5.69,6,8.53,8.53,0,0,0,3.41-1,2,2,0,0,1,.95-.36,1.86,1.86,0,0,1,1.27.79q1.72,1.91,3.38,3.87a26.2,26.2,0,0,1,.83-5.84A39.77,39.77,0,0,0,353.56,157Z"/><path class="cls-67" d="M344.14,115.54a10.9,10.9,0,0,0-3.86.61,17.65,17.65,0,0,0-5.32,3.43,11.06,11.06,0,0,0-2.62,3,4.78,4.78,0,0,0-.39,3.9,5.87,5.87,0,0,0,3.86,3,63.74,63.74,0,0,1,7.06,2.24,4.69,4.69,0,0,1,2.16,2.58,17.67,17.67,0,0,1,1.1,5.82c.18,3.4-.06,7-2,9.85-1.13,1.66-2.85,3.13-2.95,5.13,2.29-1.41,5.09-1.64,7.75-2s5.48-1,7.37-2.88a10.17,10.17,0,0,0,2.48-6.51,11.5,11.5,0,0,0-.6-5c-.42-1.07-1.07-2-1.45-3.12a16.65,16.65,0,0,1-.47-6c.09-3.62-.35-7.51-2.7-10.27C351.52,117,347.67,115.59,344.14,115.54Z"/></g></g></svg>