<svg xmlns="http://www.w3.org/2000/svg" viewBox="0 0 641.1 352.13"><defs><style>.cls-1{fill:#b8e9ff;}.cls-2{fill:#75aaff;}.cls-3{fill:#303d96;}.cls-4{fill:#4455d6;}.cls-5{fill:#fff;}.cls-6{fill:#83dfe6;}.cls-7{fill:#ff7666;}.cls-8{fill:#386dff;}.cls-9{fill:#5d8fde;}.cls-10{fill:#47a4cf;}.cls-11{fill:#4973ed;}.cls-12{fill:#a8efff;}.cls-13{fill:#ffb69c;}.cls-14,.cls-22{fill:#b3694e;}.cls-14,.cls-17,.cls-20,.cls-25,.cls-27,.cls-32,.cls-33,.cls-34,.cls-41{opacity:0.5;}.cls-15{fill:#c2412b;}.cls-16{fill:#ffa60f;}.cls-17,.cls-19{fill:#a16400;}.cls-18{fill:#2b1011;}.cls-20,.cls-46{fill:#0d276e;}.cls-21{fill:#00947e;}.cls-23{fill:#1143d1;}.cls-24{fill:#ebb094;}.cls-25,.cls-26{fill:#963221;}.cls-27{fill:#1e3985;}.cls-28{fill:#8f5b31;}.cls-29{fill:#247a78;}.cls-30{fill:#ffad7d;}.cls-31{fill:#cc5226;}.cls-32,.cls-37{fill:#007362;}.cls-33{fill:#698fff;}.cls-34,.cls-35{fill:#6184e6;}.cls-36{fill:#912600;}.cls-38{fill:#f7b885;}.cls-39{fill:#c97125;}.cls-40{fill:#f39a05;}.cls-41{fill:#8f441e;}.cls-42{fill:#008571;}.cls-43{fill:#005e5b;}.cls-44{fill:#96544a;}.cls-45{fill:#0f0606;}.cls-47{fill:#de5038;}.cls-48{fill:#97c8ff;}.cls-49{fill:#fa6b52;}.cls-50{fill:#8f628d;}.cls-51{fill:#add6ff;}.cls-52{fill:#3a56ba;}.cls-53{fill:#8a3a25;}.cls-54{fill:#783220;}.cls-55{fill:#311c1a;}.cls-56{fill:#00bda1;}.cls-57{fill:#d9415d;}.cls-58{fill:#d48648;}</style></defs><g id="Layer_2" data-name="Layer 2"><g id="Layer_10" data-name="Layer 10"><g id="_000" data-name="000"><path class="cls-1" d="M42.73,27.54a3.8,3.8,0,0,1-2.18,4.64c-3.31,1.22-11.91-4.29-9.28-8.2C33.36,20.87,41.6,23.67,42.73,27.54Z"/><path class="cls-1" d="M482.49,187.63a2.85,2.85,0,0,0-2.25,3.11c.39,2.61,7.12,6.27,8.73,3.12C490.26,191.37,485.44,187,482.49,187.63Z"/><path class="cls-1" d="M599,200.16l.43-.18c15.06-6.5-9-21.53-14.78-24.57-9.47-5-24.38-10.59-34-2.9-3.77,3-5.68,8.58-3.6,12.94,3.84,8.05,13.75,11.2,21.79,13C576.7,200.1,591.24,203.16,599,200.16Z"/><path class="cls-1" d="M82.72,52.58a74.2,74.2,0,0,1,18.16,9.59c5.15,3.74,11.22,9.75,10.86,16.13-.53,9.2-12,10.06-19.72,9.55-14-.91-29.4-7.09-37.89-18-6-7.72-5.45-16.42,5.08-19.32C66.5,48.54,74.87,49.78,82.72,52.58Z"/><path class="cls-1" d="M602.59,308.71c7-6.7,1.54-20.82-3.61-27.06-12.85-15.55-37.9-26.55-57.6-18.95-10.15,3.92-12.54,15.86-1.15,20a156,156,0,0,1,26.45,12.27,131.21,131.21,0,0,1,12.23,8.15c5.5,4.12,13.54,11.19,20.89,7.56A11.12,11.12,0,0,0,602.59,308.71Z"/><path class="cls-1" d="M35,282.68c-.26.32-.51.65-.76,1-8.63,11.42-1.09,22,10.34,26.91,12.36,5.35,24.91,3.33,37.53-.26,21.39-6.1,97.84-52.6,60.6-79.33-12.55-9-25.62,4.22-35,11.47C85.74,259.31,52.66,260.64,35,282.68Z"/><path class="cls-1" d="M64.23,190.25c5.31,2.54,12.42,1.65,10.51-6-.78-3.14-2.92-5.75-5.15-8.1A69.77,69.77,0,0,0,52.17,162.9c-3.81-2-12-4.19-12.38,2.59-.5,9.6,12.59,16.8,19.15,21.57A34.35,34.35,0,0,0,64.23,190.25Z"/><path class="cls-1" d="M525.51,93.15l-4,1.88c-4,1.92-8.24,4-10.79,7.71-7.66,11.08,5.88,16.14,14.58,15.37,24.93-2.21,51.1-10.52,70-27.5,2.73-2.45,5.52-5.66,5-9.29-2.89-19.47-43.19-1.74-51.86,1.82Q536.85,87.9,525.51,93.15Z"/><path class="cls-1" d="M596.33,45.79c2.4-1,4.93-.53,5.65,1.13s-.65,3.85-3.05,4.89-4.93.53-5.65-1.13S593.92,46.83,596.33,45.79Z"/><path class="cls-1" d="M112.24,46.1c-1.07,3-1.46,6.9,1.51,8.79,3.61,2.28,9.27-.38,12.52-2.12a99.94,99.94,0,0,0,35.34-32.83c1.79-2.77,3.83-7.37.55-10a6.43,6.43,0,0,0-4.53-1c-6.35.53-12.41,5-17.36,8.68-9.58,7.21-22.57,16.2-27.62,27.47C112.51,45.42,112.37,45.76,112.24,46.1Z"/><path class="cls-1" d="M346.09,32.83H215.94A38.74,38.74,0,0,1,247,18.5a37,37,0,0,0,14.58-2.23A65.72,65.72,0,0,1,272,13.53c11.72-2.12,22.56-1,29.37,2.45a19.16,19.16,0,0,0,10.57,2.12L313,18c19.41-1.72,35.69,3.31,36.39,11.21h0A3.34,3.34,0,0,1,346.09,32.83Z"/></g><g id="bg"><rect class="cls-2" x="81.93" y="27.5" width="487.4" height="309.73" rx="12.25"/><path class="cls-3" d="M551.07,58.09v249.8a12.46,12.46,0,0,1-12.47,12.46h-405V45.62h405A12.47,12.47,0,0,1,551.07,58.09Z"/><path class="cls-4" d="M133.61,45.62V320.35H112.8a12.47,12.47,0,0,1-12.48-12.46V58a4.78,4.78,0,0,1,0-.53,12.47,12.47,0,0,1,11.82-11.81,4.61,4.61,0,0,1,.53,0Z"/><rect class="cls-4" x="133.62" y="70.8" width="417.46" height="1"/><rect class="cls-4" x="263.09" y="71.3" width="1" height="240.12"/><rect class="cls-4" x="412.94" y="71.3" width="1" height="249.06"/><path class="cls-5" d="M111.09,59.86a2.27,2.27,0,1,1-2.26-2.27A2.26,2.26,0,0,1,111.09,59.86Z"/><path class="cls-5" d="M119.23,59.86A2.26,2.26,0,1,1,117,57.59,2.26,2.26,0,0,1,119.23,59.86Z"/><path class="cls-5" d="M127.38,59.86a2.27,2.27,0,1,1-2.26-2.27A2.26,2.26,0,0,1,127.38,59.86Z"/><path class="cls-5" d="M128.3,87.51H106.6a2.05,2.05,0,0,1-2-2.05h0a2.05,2.05,0,0,1,2-2h21.7a2.05,2.05,0,0,1,2,2h0A2.05,2.05,0,0,1,128.3,87.51Z"/><path class="cls-5" d="M128.3,95.68H106.6a2,2,0,0,1-2-2h0a2,2,0,0,1,2-2h21.7a2,2,0,0,1,2,2h0A2,2,0,0,1,128.3,95.68Z"/><path class="cls-5" d="M128.3,125.78H106.6a2,2,0,0,1-2-2h0a2,2,0,0,1,2-2h21.7a2,2,0,0,1,2,2h0A2,2,0,0,1,128.3,125.78Z"/><path class="cls-5" d="M128.3,165.56H106.6a2.05,2.05,0,0,1-2-2.05h0a2.05,2.05,0,0,1,2-2h21.7a2.05,2.05,0,0,1,2,2h0A2.05,2.05,0,0,1,128.3,165.56Z"/><path class="cls-5" d="M128.3,188.46H106.6a2.05,2.05,0,0,1-2-2.05h0a2.05,2.05,0,0,1,2-2h21.7a2.05,2.05,0,0,1,2,2h0A2.05,2.05,0,0,1,128.3,188.46Z"/><path class="cls-5" d="M128.3,180.66H106.6a2,2,0,0,1-2-2h0a2,2,0,0,1,2-2.05h21.7a2,2,0,0,1,2,2.05h0A2,2,0,0,1,128.3,180.66Z"/><path class="cls-5" d="M128.3,238.66H106.6a2.05,2.05,0,0,1-2-2h0a2.05,2.05,0,0,1,2-2.05h21.7a2.05,2.05,0,0,1,2,2.05h0A2.05,2.05,0,0,1,128.3,238.66Z"/><path class="cls-5" d="M128.3,245.74H106.6a2,2,0,0,1-2-2.05h0a2,2,0,0,1,2-2h21.7a2,2,0,0,1,2,2h0A2,2,0,0,1,128.3,245.74Z"/><path class="cls-5" d="M128.3,279.31H106.6a2,2,0,0,1-2-2.05h0a2,2,0,0,1,2-2h21.7a2,2,0,0,1,2,2h0A2,2,0,0,1,128.3,279.31Z"/><path class="cls-5" d="M128.3,230.86H106.6a2.05,2.05,0,0,1-2-2.05h0a2.05,2.05,0,0,1,2-2.05h21.7a2.05,2.05,0,0,1,2,2.05h0A2.05,2.05,0,0,1,128.3,230.86Z"/><path class="cls-4" d="M236,61.21h-73.7a3.11,3.11,0,0,1-3.12-3.12h0A3.12,3.12,0,0,1,162.26,55H236a3.12,3.12,0,0,1,3.12,3.12h0A3.12,3.12,0,0,1,236,61.21Z"/><path class="cls-4" d="M367.09,61.21H309.86a3.12,3.12,0,0,1-3.12-3.12h0A3.12,3.12,0,0,1,309.86,55h57.23a3.12,3.12,0,0,1,3.12,3.12h0A3.12,3.12,0,0,1,367.09,61.21Z"/><path class="cls-4" d="M516,61.21H448.32a3.11,3.11,0,0,1-3.12-3.12h0A3.12,3.12,0,0,1,448.32,55H516a3.12,3.12,0,0,1,3.12,3.12h0A3.12,3.12,0,0,1,516,61.21Z"/></g><g id="task"><path class="cls-6" d="M241.66,136.1l-35.13-.16c5.16-3,4.67-30.31,4.67-30.31h30.46Z"/><rect class="cls-5" x="179.9" y="187.7" width="28.1" height="28.1"/><rect class="cls-5" x="377.08" y="107.78" width="27" height="27" transform="translate(19.55 -50.76) rotate(7.63)"/><path class="cls-6" d="M239.08,244.49s-25.5-1.75-27.6-6.32l4.66-21.09,23.68,3.17Z"/><rect class="cls-7" x="307.59" y="104.11" width="26.49" height="26.49" transform="translate(-9.74 31.17) rotate(-5.48)"/><rect class="cls-7" x="489.05" y="108.04" width="27.29" height="27.29"/><rect class="cls-5" x="369.89" y="266.52" width="28.13" height="28.13" transform="translate(-25.04 37.95) rotate(-5.48)"/><rect class="cls-8" x="356.48" y="91.88" width="27" height="27" transform="translate(-8.37 35.81) rotate(-5.48)"/><rect class="cls-6" x="436.39" y="98.1" width="27.29" height="27.29" transform="translate(33.8 -92.62) rotate(12.21)"/><polygon class="cls-5" points="453.33 119.73 449.07 116.31 443.85 117.88 445.79 112.78 442.68 108.29 448.13 108.56 451.44 104.22 452.87 109.48 458.02 111.29 453.45 114.28 453.33 119.73"/><rect class="cls-8" x="271.8" y="135.62" width="28.81" height="28.81" transform="translate(13.63 -23.54) rotate(4.82)"/><polygon class="cls-5" points="285.59 149.67 282.38 147.72 278.96 149.25 279.83 145.59 277.31 142.81 281.05 142.51 282.93 139.26 284.37 142.72 288.04 143.5 285.19 145.94 285.59 149.67"/><polygon class="cls-5" points="292.4 161.29 289.2 159.34 285.77 160.87 286.64 157.22 284.13 154.43 287.87 154.13 289.74 150.88 291.19 154.34 294.86 155.12 292.01 157.56 292.4 161.29"/><rect class="cls-5" x="284.24" y="85.24" width="27.95" height="27.95" transform="translate(15.8 -38.69) rotate(7.63)"/><path class="cls-9" d="M286.14,108.64c6-5,12-10,18.09-14.82,1.68-1.33,3.37-2.67,5.12-3.9.39-.28,0-.93-.38-.65-3.49,2.45-6.78,5.2-10.09,7.89-3.68,3-7.32,6-11,9l-2.31,1.93c-.37.31.17.83.53.53Z"/><path class="cls-9" d="M287.79,90.42,305,108.26l2.45,2.53c.33.35.86-.18.53-.53L290.76,92.42c-.81-.85-1.63-1.69-2.44-2.53-.34-.35-.87.18-.53.53Z"/><path class="cls-6" d="M368.24,228c-3.36,4.24-28-1.71-28-1.71l3.47-25.91,25.91,3.47Z"/><path class="cls-5" d="M348.48,207.08l15.38,2.21c.48.07.68-.66.2-.72l-15.38-2.21c-.47-.07-.67.65-.2.72Z"/><path class="cls-5" d="M347.79,210.54a26.06,26.06,0,0,0,5.12.69c.48,0,.48-.73,0-.75a24.68,24.68,0,0,1-4.92-.66c-.47-.12-.67.61-.2.72Z"/><path class="cls-5" d="M345.6,216.92A112.75,112.75,0,0,0,363,219.2a.38.38,0,0,0,0-.75,109.15,109.15,0,0,1-17.15-2.26c-.47-.08-.67.64-.2.73Z"/><path class="cls-5" d="M344.73,219.83c5.66,1.21,11.48,1.56,17.22,2.17.48.05.48-.7,0-.75-5.68-.61-11.42-.95-17-2.14-.47-.1-.67.62-.2.72Z"/><rect class="cls-10" x="204.81" y="172.35" width="28.1" height="28.1"/><path class="cls-5" d="M209,178.41l19.21.42c.41,0,.53-.67.1-.74l-.48-.08c-.47-.07-.67.65-.2.73l.48.08.1-.74L209,177.66a.38.38,0,0,0,0,.75Z"/><path class="cls-5" d="M209.59,182.16l18.74.23a.38.38,0,0,0,.19-.7l-.31-.23c-.39-.28-.77.37-.38.65l.31.23.19-.7-18.74-.23a.38.38,0,0,0,0,.75Z"/><path class="cls-5" d="M209.38,184.93q5.33.24,10.65,0c.48,0,.48-.77,0-.75q-5.33.24-10.65,0c-.48,0-.48.73,0,.75Z"/><path class="cls-5" d="M209.92,194.05a139,139,0,0,0,17.67.65.38.38,0,0,0,.19-.7l-.32-.19c-.41-.26-.79.39-.38.65l.32.19.19-.7a139,139,0,0,1-17.67-.65c-.48-.05-.48.7,0,.75Z"/><rect class="cls-7" x="440.67" y="216.33" width="27.21" height="27.21" transform="translate(53.86 -84.56) rotate(11.3)"/><path class="cls-5" d="M446.36,220.48l18.16,4.05a.38.38,0,0,0,.2-.73l-.44-.16c-.45-.17-.64.55-.19.72l.43.17c.07-.25.14-.49.2-.73l-18.16-4c-.47-.11-.67.62-.2.72Z"/><path class="cls-5" d="M446.26,224.16,464,227.94c.47.1.67-.63.2-.73l-17.75-3.77c-.47-.1-.67.62-.19.72Z"/><path class="cls-5" d="M445.53,226.75c3.33.83,6.71,1.5,10.1,2,.48.07.68-.65.2-.73-3.39-.52-6.77-1.19-10.1-2-.47-.12-.67.61-.2.72Z"/><path class="cls-5" d="M444.3,235.51a134.52,134.52,0,0,0,16.66,4c.34.06.66-.35.37-.63l-.27-.24c-.35-.33-.88.2-.53.53l.27.24.36-.62a134.52,134.52,0,0,1-16.66-4,.37.37,0,0,0-.2.72Z"/><path class="cls-10" d="M534,112.64c-11.92,5.7-29.67,3.19-29.67,3.19,3.48-5.61,1.92-26.19,1.92-26.19h24.42Z"/><path class="cls-5" d="M510.1,94.75a144.72,144.72,0,0,0,16.9-1.1c.47-.06.48-.81,0-.75A144.72,144.72,0,0,1,510.1,94a.38.38,0,0,0,0,.75Z"/><path class="cls-5" d="M510.42,97.61a74.51,74.51,0,0,0,9.09,0c.48,0,.49-.78,0-.75a74.51,74.51,0,0,1-9.09,0c-.48,0-.48.72,0,.75Z"/><path class="cls-5" d="M510.34,101.86a93.76,93.76,0,0,0,16.5-.35c.48-.06.48-.81,0-.75a93.76,93.76,0,0,1-16.5.35c-.48,0-.48.72,0,.75Z"/><path class="cls-5" d="M510.74,112.12a146.94,146.94,0,0,0,17.54-1.2c.47-.06.48-.81,0-.75a146.94,146.94,0,0,1-17.54,1.2.38.38,0,0,0,0,.75Z"/><path class="cls-10" d="M218.68,279.92c-12.5,6-31.1,3.34-31.1,3.34,3.64-5.88,2-27.45,2-27.45h25.6Z"/><path class="cls-5" d="M193.68,261.14A151.89,151.89,0,0,0,211.39,260c.48-.06.48-.81,0-.75a151.89,151.89,0,0,1-17.71,1.15.38.38,0,0,0,0,.75Z"/><path class="cls-5" d="M194,264.15a79.74,79.74,0,0,0,9.53,0c.48,0,.48-.78,0-.75a79.74,79.74,0,0,1-9.53,0c-.48,0-.48.72,0,.75Z"/><rect class="cls-6" x="285.94" y="240.33" width="26.4" height="26.4" transform="translate(-22.84 29.72) rotate(-5.48)"/><path class="cls-5" d="M288.61,246.84l19.8-1.3c.48,0,.48-.78,0-.75l-19.8,1.3c-.48,0-.49.78,0,.75Z"/><path class="cls-5" d="M289.63,249l13.77-1.25c.48,0,.48-.79,0-.75l-13.77,1.25c-.48.05-.48.8,0,.75Z"/><path class="cls-5" d="M289.62,252.78a121.07,121.07,0,0,0,14-.62c.48,0,.48-.79,0-.75a121.07,121.07,0,0,1-14,.62.38.38,0,0,0,0,.75Z"/><path class="cls-5" d="M290.45,262.65l19.6-1.45c.47,0,.48-.79,0-.75l-19.6,1.45c-.48,0-.49.79,0,.75Z"/><path class="cls-5" d="M291.46,264.85l7.66-.61c.48,0,.48-.79,0-.75l-7.66.61c-.47,0-.48.79,0,.75Z"/><path class="cls-5" d="M221.12,113.38q7.22.59,14.44.57v-.75l-.44,0c-.47.05-.48.8,0,.75l.44,0c.47,0,.49-.75,0-.75q-7.23,0-14.44-.57c-.48,0-.47.71,0,.75Z"/><path class="cls-5" d="M221.48,116.8a94.35,94.35,0,0,0,13.76.61v-.75l-.46,0c-.48,0-.48.78,0,.75l.46,0c.48,0,.49-.77,0-.75a94.35,94.35,0,0,1-13.76-.61c-.48-.06-.48.69,0,.75Z"/><path class="cls-5" d="M221.38,126.53a126.26,126.26,0,0,0,13.74,1.18c.48,0,.48-.73,0-.75a125.29,125.29,0,0,1-13.54-1.15c-.48-.07-.68.65-.2.72Z"/><path class="cls-5" d="M221.16,129.66a86.81,86.81,0,0,0,14.77.76c.48,0,.48-.77,0-.75a84.47,84.47,0,0,1-14.57-.74c-.47-.06-.68.66-.2.73Z"/><rect class="cls-5" x="213.7" y="111.44" width="5.25" height="5.25"/><rect class="cls-5" x="213.7" y="124.34" width="5.25" height="5.25" transform="translate(8.1 -12.89) rotate(3.48)"/><path class="cls-8" d="M313.53,218.17,281,212.68c5-11.34,8-26.64,8-26.64l28.34,3.79Z"/><path class="cls-5" d="M297.21,194.49q6.68,1.45,13.45,2.34v-.75h-.41c-.48,0-.48.73,0,.75h.41c.5,0,.47-.69,0-.75q-6.68-.89-13.25-2.31c-.47-.1-.68.62-.2.72Z"/><path class="cls-5" d="M297.11,197.71a88.54,88.54,0,0,0,12.82,2.3v-.75l-.43,0c-.48,0-.48.71,0,.75l.43,0c.49,0,.48-.7,0-.75A88.54,88.54,0,0,1,297.31,197a.37.37,0,0,0-.2.72Z"/><path class="cls-5" d="M295.89,206.78a119.57,119.57,0,0,0,12.55,2.78c.47.08.68-.64.2-.72a117.13,117.13,0,0,1-12.55-2.79.38.38,0,0,0-.2.73Z"/><path class="cls-5" d="M295.3,209.66A82.25,82.25,0,0,0,309,212.2c.48,0,.48-.71,0-.75a79.9,79.9,0,0,1-13.45-2.52.38.38,0,0,0-.2.73Z"/><rect class="cls-5" x="290.24" y="192.05" width="4.93" height="4.93" transform="translate(28.4 -37.12) rotate(7.63)"/><rect class="cls-5" x="288.64" y="204.06" width="4.93" height="4.93" transform="translate(45.22 -52.2) rotate(11.1)"/><path class="cls-11" d="M291,194.12l1,1.37c.16.21.3.48.55.59a.65.65,0,0,0,.78-.28c.39-.5.71-1.07,1.05-1.61.11-.16.21-.33.31-.5.26-.41-.39-.78-.64-.38l-.66,1c-.16.25-.32.51-.49.76l-.19.28s0,0,.05,0h.09s0,.05,0,0l-.06-.07-.13-.17-1-1.4a.39.39,0,0,0-.52-.13.37.37,0,0,0-.13.51Z"/><path class="cls-11" d="M289.22,205.91l.84,1.48a1.48,1.48,0,0,0,.47.63.67.67,0,0,0,.81-.2c.43-.46.81-1,1.21-1.44l.36-.44a.4.4,0,0,0,0-.53.37.37,0,0,0-.53,0l-1.11,1.35c-.12.13-.23.27-.34.4s-.17.15-.17.18l.15,0s0,0,0,0a.41.41,0,0,1,0-.09l-1-1.72a.38.38,0,0,0-.65.38Z"/><path class="cls-5" d="M360.2,99.5l17.16-1.76c.48,0,.48-.8,0-.75L360.2,98.75c-.47,0-.48.8,0,.75Z"/><path class="cls-5" d="M360,102.59q9.34-1.08,18.74-1.65c0-.25-.06-.49-.1-.74l-.49.17c-.45.16-.25.89.2.73l.49-.17c.38-.14.35-.77-.1-.74q-9.39.57-18.74,1.65c-.47.06-.48.81,0,.75Z"/><path class="cls-5" d="M360.94,105.73a118.94,118.94,0,0,0,15.66-1.16c.47-.06.27-.79-.2-.72A117.6,117.6,0,0,1,360.94,105a.38.38,0,0,0,0,.75Z"/><path class="cls-5" d="M363.11,110.81l11.9-1.1c.48,0,.48-.8,0-.75l-11.9,1.1c-.48,0-.48.79,0,.75Z"/><path class="cls-10" d="M474.37,297.64s-13,7-33.44-2.52l3.32-25.92,28.05,3.45S469.72,294.25,474.37,297.64Z"/><path class="cls-5" d="M448.26,278.73c6.52,1.2,13.18,1.37,19.74,2.23.48.06.47-.69,0-.75-6.5-.85-13.09-1-19.54-2.21-.47-.09-.67.64-.2.73Z"/><path class="cls-5" d="M448.08,283.75l19.61,2.3c.48.06.47-.7,0-.75L448.08,283c-.48-.05-.47.7,0,.75Z"/><rect class="cls-8" x="143.77" y="240.66" width="28.15" height="28.15" transform="translate(-23.6 16.24) rotate(-5.48)"/><path class="cls-5" d="M146.74,247.43c6.84-.59,13.71-.64,20.53-1.52.47-.06.48-.81,0-.75-6.82.88-13.69.93-20.53,1.52-.48,0-.48.79,0,.75Z"/><path class="cls-5" d="M147.35,251.29c5.57-.51,11.14.29,16.71-.41.47-.06.48-.81,0-.75-5.57.7-11.14-.1-16.71.41-.48.05-.48.8,0,.75Z"/><path class="cls-5" d="M148.39,264.32l20.56-2c.48,0,.48-.79,0-.75l-20.56,2c-.48,0-.49.79,0,.75Z"/><path class="cls-7" d="M191.34,115.83s-19.47,4.42-30.28.43V91.16h25.1C187.64,106.3,189.18,111.11,191.34,115.83Z"/><rect class="cls-6" x="171.15" y="84.52" width="3.36" height="8.87" transform="translate(-10.3 23.79) rotate(-7.65)"/><rect class="cls-6" x="494" y="208.07" width="27.21" height="27.21" transform="translate(-24.98 69.51) rotate(-7.65)"/><rect class="cls-6" x="490.16" y="183.34" width="3.65" height="9.62" transform="translate(-20.66 67.13) rotate(-7.65)"/><rect class="cls-5" x="437.35" y="180.83" width="23.02" height="23.02" transform="translate(-10.16 25.69) rotate(-3.24)"/><rect class="cls-6" x="445.52" y="175.47" width="3.09" height="8.14"/><rect class="cls-10" x="308.21" y="251.35" width="26.4" height="26.4"/><rect class="cls-6" x="320" y="245.41" width="3.54" height="9.33"/><rect class="cls-6" x="366.05" y="84.72" width="3.62" height="9.55" transform="translate(-10.66 82.33) rotate(-12.59)"/><rect class="cls-5" x="224.84" y="211.36" width="3.2" height="8.45" transform="translate(-11.83 13.15) rotate(-3.24)"/></g><g id="could"><path class="cls-12" d="M89.33,119.56H.36a25.68,25.68,0,0,1,11-8,25.7,25.7,0,0,1,10.26-1.79,25.33,25.33,0,0,0,10-1.52,45.75,45.75,0,0,1,7.08-1.88c8-1.44,15.42-.67,20.08,1.68A13.15,13.15,0,0,0,66,109.49l.74-.07c13.27-1.18,24.4,2.26,24.88,7.67h0A2.29,2.29,0,0,1,89.33,119.56Z"/><path class="cls-12" d="M557.24,146.59h82.9a24.67,24.67,0,0,0-19.81-9.12,23.68,23.68,0,0,1-9.28-1.42,42.54,42.54,0,0,0-6.61-1.75c-7.46-1.34-14.37-.62-18.7,1.56a12.28,12.28,0,0,1-6.74,1.36l-.7-.07c-12.36-1.1-22.73,2.11-23.17,7.14h0A2.12,2.12,0,0,0,557.24,146.59Z"/><path class="cls-12" d="M403.29,13.35a3.78,3.78,0,0,0,3,4.14c3.46.59,10.88-6.36,7.59-9.72C411.25,5.11,403.69,9.35,403.29,13.35Z"/><path class="cls-12" d="M47,235.32c0,.16,0,.33,0,.49H0c0-2.89,4-5.24,9-5.24l.79,0A16.61,16.61,0,0,0,19,228.53a23.42,23.42,0,0,1,11.53-2.77C39.62,225.76,47,230,47,235.32Z"/><path class="cls-12" d="M424.38,34.34c0,.3,0,.61,0,.91h88.08c0-5.42-7.53-9.82-16.83-9.82-.5,0-1,0-1.49,0a31.24,31.24,0,0,1-17.41-3.86c-5.54-3.22-13.18-5.21-21.63-5.21C438.15,16.39,424.38,24.43,424.38,34.34Z"/><path class="cls-12" d="M637.87,240c-4.73-9.81-16.22-17-26.93-15.15-3.59.61-7.57,3.9-6.45,7.92a8.94,8.94,0,0,0,4.33,5c1.94,1.15,4.11,1.87,6.14,2.85,4.64,2.23,7.49,6.67,10.66,10.52,2,2.47,4.75,5.88,8,6.68,4.9,1.2,6.43-4.58,6.44-8.4A21.61,21.61,0,0,0,637.87,240Z"/><path class="cls-1" d="M202.39,8.61c-2.47,2.26-5.84,2.6-7.52.76s-1-5.17,1.43-7.43,5.83-2.59,7.52-.75S204.86,6.35,202.39,8.61Z"/><path class="cls-1" d="M27.56,160.55c2.44,3.11,2.92,6.8,1.06,8.26s-5.33.12-7.77-3-2.91-6.8-1.06-8.26S25.13,157.44,27.56,160.55Z"/><path class="cls-12" d="M634.91,202.57c2.54-1.1,5.22-.56,6,1.2s-.68,4.08-3.23,5.18-5.22.56-6-1.2S632.37,203.67,634.91,202.57Z"/></g><g id="_1" data-name="1"><path class="cls-13" d="M193.52,349.09H158.88V332.76l9.69-1.06,1.86,3.65.47.93a15.92,15.92,0,0,0,1.9,2.92,16.25,16.25,0,0,0,7.08,5Z"/><path class="cls-13" d="M94.82,325.52c-.4,1.1-1.79,4.12-3.46,7.65-1.37,2.91-3,6.17-4.3,9-1.9,3.91-3.39,6.94-3.39,6.94H52.6l12.25-5.31a29.89,29.89,0,0,0,14.63-13.66l1.54-3,2.44-4.71,1.2-2.31s9.72,5,10.25,5C95,325.09,94.92,325.25,94.82,325.52Z"/><path class="cls-14" d="M172.8,339.2a33.23,33.23,0,0,1-6.3.55,28.68,28.68,0,0,1-7.62-.88V336a28.33,28.33,0,0,1,7.62-.87,37.12,37.12,0,0,1,3.93.2l.47.93A15.92,15.92,0,0,0,172.8,339.2Z"/><path class="cls-15" d="M172.42,336.7h0s0,0,0,0c0,.73-3.51,1.32-7.86,1.32s-7.85-.59-7.85-1.32v-.07l-.88-137h18.82Z"/><path class="cls-14" d="M94.82,325.52c-.4,1.1-1.79,4.12-3.46,7.65a16.63,16.63,0,0,1-3.87-1c-3.1-1.23-5.48-3.15-6.47-5l2.44-4.71a13.45,13.45,0,0,1,7.49.95A16.93,16.93,0,0,1,94.82,325.52Z"/><path class="cls-15" d="M158.09,206.74,93.46,333.91c-.59.41-3.52-2-6.59-5.42a32.88,32.88,0,0,1-4.3-5.73,2.87,2.87,0,0,1-.44-1.19h0l.13-.27L140,197.92Z"/><polygon class="cls-15" points="147.43 221.68 159.75 219.89 159.75 208.24 149.19 212.91 145.84 216.82 147.43 221.68"/><path class="cls-13" d="M163.7,150.63h0s0,.08,0,.12a6.66,6.66,0,0,1-13.26.63,4.7,4.7,0,0,1,0-.75h0V149a25.57,25.57,0,0,0,6.19.71,24.46,24.46,0,0,0,7.07-1Z"/><path class="cls-16" d="M251.16,173.24a1.88,1.88,0,0,1-.36.84c-.21.09-.42.18-.64.25l-.29.1c-9.37,2.69-20,5.42-29.41,7.79a41.83,41.83,0,0,1-15,1.65c-.88-.05-1.75-.14-2.62-.26h0c-1.06-.15-2.12-.34-3.16-.58a38.39,38.39,0,0,1-9.55-3.46c-3.66-1.9-7.62-4-11.59-6.12-4.12-2.21-8.22-4.45-11.95-6.55-11.61-7.16-7.6-23,7.3-19.55,5.83,1.37,15.25,7.94,20.41,10.78,2.38,1.24,5.56,3.29,7.76,4.19a20.66,20.66,0,0,0,11.67,1.07c10.26-2,21.49-4,31.84-5.62l.35-.06a1.21,1.21,0,0,1,.59.26c1.16.84,2.62,3.62,3.68,7.16S251.53,171.65,251.16,173.24Z"/><path class="cls-17" d="M199.68,183a38.39,38.39,0,0,1-9.55-3.46c-3.35-1.74-7-3.65-10.59-5.6.68-4.51,1.22-8.48,1.48-10.41C181.65,164.66,190.41,179.88,199.68,183Z"/><polygon class="cls-5" points="206.4 168.4 193.6 168.4 192.28 164.48 205.09 164.48 206.4 168.4"/><path class="cls-18" d="M154.71,121.05c.95,2-.55,4.63-3.34,6s-5.83.9-6.79-1,.55-4.62,3.34-6S153.76,119.11,154.71,121.05Z"/><path class="cls-16" d="M181.75,158.9q-3.54,21-6.68,43.31c-.13,1.81-8.6,3.61-18.9,4s-18.76-.93-18.9-2.85-.5-3.63-.75-5.45c-.39-2.87-.78-5.73-1.19-8.58q-2.27-16-4.74-31.69a10.77,10.77,0,0,1,8.76-11.83c2-.3,3.92-.52,5.89-.68a91.13,91.13,0,0,1,22.18.87c1.77.29,3.83.63,5.58,1C178.63,148.3,182.58,154.1,181.75,158.9Z"/><path class="cls-19" d="M177,188.92h-.05a.25.25,0,0,1-.2-.3c.76-3.59,1.6-8.39,2.57-14.69.73-4.82,1.29-9,1.48-10.41.11-.8.17-1.26.17-1.26a.25.25,0,1,1,.49.06s-.05.46-.16,1.27c-.19,1.38-.76,5.59-1.49,10.42-1,6.3-1.8,11.11-2.57,14.72A.25.25,0,0,1,177,188.92Z"/><path class="cls-20" d="M168.2,188.76c-1.46,5.7-20.9,8.21-31.6,9.16-.39-2.87-.78-5.73-1.19-8.58C144.77,187.29,169.84,182.35,168.2,188.76Z"/><polygon class="cls-21" points="188.61 189.18 161.44 189.18 187.48 166.15 213.06 166.15 188.61 189.18"/><path class="cls-16" d="M169.22,189.19a8.21,8.21,0,0,1-1.92.87,7.9,7.9,0,0,1-1.23.31c-15.13,2.81-35.51,4.64-41.7,4.59-7.34,0-14.48-5.89-12.24-13.88.68-2.52,2.08-4.46,3.18-6.65,3.78-7.21,7.55-13.66,11.82-20.44a17.43,17.43,0,0,1,12.54-8.19c5.82-.69,10.84,1.73,8.74,7.1s-9.84,16-12.36,21.13a197.07,197.07,0,0,1,28.21-1.54,11,11,0,0,1,1.17.14,8.42,8.42,0,0,1,1.46.36c1.47,1.08,2.82,4.15,3.32,7.9C170.69,184.48,170.26,187.68,169.22,189.19Z"/><path class="cls-17" d="M140.18,163.49s-.13,5.84-.34,10.53c-1.79.15-3.54.3-5.22.46l0-.47c1.33-2.51,4.12-8.08,5.57-10.52Z"/><path class="cls-18" d="M163.92,117.06c-.92,1.92-5,1.9-9,0s-6.6-5.09-5.68-7,5-1.9,9,0S164.85,115.14,163.92,117.06Z"/><path class="cls-13" d="M167.5,146c-.46,1.1-2,2.05-4.11,2.7a24.36,24.36,0,0,1-7.07,1,25.69,25.69,0,0,1-6.19-.71c-3.09-.78-5.13-2.12-5.13-3.66a.92.92,0,0,1,0-.16c1.7-.15,3.41-.24,5.12-.28V132.51h13.26v12.94C164.77,145.61,166.14,145.79,167.5,146Z"/><path class="cls-18" d="M170.7,112.6c.75,1.75-1.13,4.22-4.19,5.52s-6.13.93-6.88-.82,1.14-4.22,4.2-5.51S170,110.86,170.7,112.6Z"/><path class="cls-18" d="M172.39,122c-.79,2.21-4,3.1-7.1,2s-5-3.83-4.22-6,4-3.09,7.1-2S173.18,119.79,172.39,122Z"/><path class="cls-18" d="M166.75,119.24c-.61,3.08-6.23,4.55-12.53,3.29s-10.92-4.78-10.31-7.85,6.23-4.55,12.54-3.29S167.36,116.16,166.75,119.24Z"/><path class="cls-14" d="M155.63,135.72c.3.27,3.47,5.16,7.77,6.42v-5Z"/><path class="cls-13" d="M152.13,137.37l7.79.87a8.48,8.48,0,0,0,9.42-9l-.72-11.62-17-2Z"/><path class="cls-18" d="M154.06,128.1l.24-3.53c.61-3.72,2.07-5.9,6.38-6.9a7.55,7.55,0,0,1,8.14,3.27l.24-8-19.35.9-.4,12.26Z"/><path class="cls-13" d="M148.49,131.89c1.6,1.6,4,1.8,5.34.45s1.15-3.74-.44-5.34-4-1.8-5.34-.45S146.89,130.3,148.49,131.89Z"/><path class="cls-22" d="M148.57,129.66a.25.25,0,0,1-.23-.16,2.71,2.71,0,0,1,.31-2,1.84,1.84,0,0,1,1.41-.94,3.2,3.2,0,0,1,2.44,1s.75.66.75.93a.25.25,0,0,1-.49.08c-.12-.21-1.33-1.62-2.64-1.47a1.35,1.35,0,0,0-1,.69,2.28,2.28,0,0,0-.27,1.57.26.26,0,0,1-.14.32Z"/><path class="cls-22" d="M165.07,128.17H164a.25.25,0,1,1,0-.5h1.06a.49.49,0,0,0,.41-.21.49.49,0,0,0,.07-.45c-.57-1.72-.7-2-.72-2a.24.24,0,0,1,0-.34.27.27,0,0,1,.37,0,9.08,9.08,0,0,1,.82,2.2,1,1,0,0,1-1,1.32Z"/><path class="cls-18" d="M165.86,129.72a2.13,2.13,0,0,1-2.21,1.31,2.31,2.31,0,0,1-1.78-1.71Z"/><path class="cls-18" d="M162.36,122.06a21.07,21.07,0,0,1-2.41.77,20.34,20.34,0,0,0-2.28.83.55.55,0,0,1-.77-.3c0-1.87,2.38-3,4.06-2.82,1,0,2.63.84,1.4,1.52Z"/><path class="cls-18" d="M166.45,121.27a2.57,2.57,0,0,1,3.12.89c.46.57.44,2.06-.59,1.58a7.73,7.73,0,0,0-1.22-.69c-.39-.22-2.49-1-1.31-1.78Z"/><path class="cls-18" d="M161.28,125c0,.53.27,1,.6,1s.61-.43.61-1-.27-1-.61-1S161.28,124.49,161.28,125Z"/><path class="cls-18" d="M167.35,125c0,.53.27,1,.6,1s.61-.43.61-1-.27-1-.61-1S167.35,124.49,167.35,125Z"/><path class="cls-18" d="M170.19,186.44a7,7,0,0,1-1,2.75,1.86,1.86,0,0,1-1.28.93,1.55,1.55,0,0,1-.64-.06c-1-.3-1.94-1.54-2.7-3.34a19.86,19.86,0,0,1-1.28-4.9,19.18,19.18,0,0,1,0-5.41c.33-2.08,1.08-3.52,2.12-3.78a.47.47,0,0,1,.16,0,1.77,1.77,0,0,1,1.3.4,7.56,7.56,0,0,1,2.14,3.25,19.61,19.61,0,0,1,1.18,4.65A18.63,18.63,0,0,1,170.19,186.44Z"/><path class="cls-18" d="M181.74,171.22s-5.08,13.27-5.08,13.09-4.84-3.88-4.84-3.88Z"/><path class="cls-18" d="M251.17,173.24a2.06,2.06,0,0,1-.37.84.74.74,0,0,1-.28.22.61.61,0,0,1-.36,0h-.07c-.83-.2-1.91-1.72-2.91-4a30.25,30.25,0,0,1-1.24-3.44,21,21,0,0,1-1.07-7.65,2,2,0,0,1,.64-1.45s0,0,.06,0l0,0a.61.61,0,0,1,.33,0,1.15,1.15,0,0,1,.59.26,3.71,3.71,0,0,1,.68.69,19.93,19.93,0,0,1,3,6.47,28.7,28.7,0,0,1,.93,4.24A11.45,11.45,0,0,1,251.17,173.24Z"/><path class="cls-19" d="M124.13,176.24a.25.25,0,0,1-.06-.49,81.86,81.86,0,0,1,10.53-1.52c1.67-.16,3.43-.31,5.22-.46,11.89-.93,25.46-1.38,25.6-1.39a.24.24,0,0,1,.25.24.24.24,0,0,1-.24.26c-.13,0-13.69.46-25.57,1.39-1.79.14-3.54.3-5.22.46a80.8,80.8,0,0,0-10.45,1.51Z"/><path class="cls-19" d="M134.34,174.75a.23.23,0,0,1-.11,0,.25.25,0,0,1-.11-.33c0-.08,1.7-3.15,3.35-6.18,3.39-6.2,3.38-6.21,3.63-6.16a.24.24,0,0,1,.21.28.26.26,0,0,1-.07.14c-.41.58-6.33,11.48-6.67,12.14A.27.27,0,0,1,134.34,174.75Z"/><path class="cls-23" d="M87.05,342.15c-1.89,3.91-3.38,6.94-3.38,6.94H52.6v-.38A1.86,1.86,0,0,1,54,346.92s12.39-3.21,17.09-6.77l-.13,0c-1.08-3.76,1.32-4.41,3.67-3.73l1,.21a4.61,4.61,0,0,1,3.66,5.22,12.86,12.86,0,0,0,4.18.67A22.15,22.15,0,0,0,87.05,342.15Z"/><path class="cls-23" d="M158.83,349.19h35v-.38a1.86,1.86,0,0,0-1.35-1.79s-11.38-1.35-17.29-5.72l-1.82-1.47c1.09-3.76-1-4.32-3.34-3.64,0,0-4.06.74-3.1,5.57-3.19,2.08-7.92,1.95-8.07.36Z"/><path class="cls-24" d="M183.8,184.8l-8.46,1.47a12.13,12.13,0,0,1-2.16.19c-.92,0-2,0-3,0l-1.53,0c-.94,0-2.5.14-4.06.31a19.86,19.86,0,0,1-1.28-4.9,19.18,19.18,0,0,1,0-5.41l5.72-.17h.05l6.32.51Z"/><path class="cls-24" d="M174.67,179.72c3.26-.74,6.55-1.35,9.85-2l-.35.12c2.35-1,4.71-2.06,7.13-3a1.12,1.12,0,0,1,1,2c-1.12.65-2.25,1.27-3.38,1.88s-2.47,1.38-3.78,1.89c-3.27.71-6.55,1.4-9.85,2a1.5,1.5,0,0,1-.58-2.95Z"/><path class="cls-24" d="M174.48,181.84a1.39,1.39,0,0,0-.68-.21h.11c2.86-.29,7.39-1,10.27-1.42l-.62.24,6.06-3.63a1.12,1.12,0,0,1,1.25,1.85c-.13,0-6.17,4.84-6.17,4.49-2.53.37-7,1-9.49,1.35-.23,0-.84.1-1.07.11a1.52,1.52,0,1,1,.34-2.77Z"/><path class="cls-24" d="M174.91,183.34c2.77-.5,5.57-.84,8.36-1.19a7.62,7.62,0,0,0,3.48-2l1.53-1.13a1.12,1.12,0,0,1,1.47,1.68c-1.43,1.39-2.81,3.19-4.74,3.93-3.11,1-6.45,1.16-9.68,1.63a1.5,1.5,0,0,1-.42-3Z"/><path class="cls-24" d="M173.07,177.37a1.27,1.27,0,0,0-.62-.21l.84-.06c2-.2,5.73-.51,7.76-.69a9.08,9.08,0,0,0,3.83-1q2.09-.82,4.2-1.59a1.12,1.12,0,0,1,.91,2c-1.63.89-3.32,1.75-5,2.56a9.45,9.45,0,0,1-3.66,1c-2.14.26-4.53.5-6.7.67-.55,0-1.52.09-2.06.09a1.51,1.51,0,1,1,.49-2.8Z"/><path class="cls-22" d="M177,180a.25.25,0,0,1,0-.5l6.42-1.1a47.57,47.57,0,0,0,6.59-3.09.25.25,0,0,1,.34.09.25.25,0,0,1-.1.34,46.71,46.71,0,0,1-6.71,3.14L177,180Z"/><path class="cls-22" d="M177.35,182.61a.25.25,0,0,1-.25-.2.25.25,0,0,1,.2-.29l7.41-1.4a49.92,49.92,0,0,0,7-3.85.26.26,0,0,1,.35.07.26.26,0,0,1-.07.35,52.27,52.27,0,0,1-7.09,3.9l-7.47,1.42Z"/><path class="cls-22" d="M177.87,184.56a.25.25,0,0,1-.25-.2.25.25,0,0,1,.21-.29l7.21-1.26a20.3,20.3,0,0,0,5.12-4.2.25.25,0,0,1,.36,0,.25.25,0,0,1,0,.35,20.44,20.44,0,0,1-5.31,4.35l-.07,0-7.25,1.26Z"/><path class="cls-24" d="M255.68,159c3.09-1,6.21-1.82,9.34-2.66,3.23-.49,6.45-1,9.7-1.29a1.12,1.12,0,0,1,.42,2.19c-3.12.88-6.27,1.61-9.42,2.35-2.11.77-6.17,2.1-9,2.91a1.83,1.83,0,0,1-1.07-3.5Z"/><path class="cls-24" d="M249.09,158.12c2-.91,4.35-1.92,5.39-2.31,4.4-1.63,7.69-2.8,11.34-4.26.56-.24.72,1.63-.25,2.44a38.51,38.51,0,0,1-13,7.64C252,161.78,248.09,158.58,249.09,158.12Z"/><path class="cls-24" d="M265.83,166.3a35.77,35.77,0,0,0-8.95,2.88,7,7,0,0,1-5.76.19l-.1,0-3.84,1a30.25,30.25,0,0,1-1.24-3.44,21,21,0,0,1-1.07-7.65l2.33-.6a38.85,38.85,0,0,0,5.81-1.92l4.05,1.67,8.17.3C265.29,159.06,265.83,166.3,265.83,166.3Z"/><path class="cls-24" d="M259.61,160.94c2.26-.92,4.59-1.74,6.93-2.44a1.52,1.52,0,0,1,1.24,2.74,18.49,18.49,0,0,1-7.58,2.27,1.34,1.34,0,0,1-.59-2.57Z"/><path class="cls-24" d="M259.25,163.46c2.54-1,5.39-1.83,8-2.61a1.51,1.51,0,0,1,1.22,2.75,23.46,23.46,0,0,1-8.64,2.43,1.34,1.34,0,0,1-.59-2.57Z"/><path class="cls-24" d="M260.8,165.47c2.16-.71,4.53-1.36,6.65-2.15a1.51,1.51,0,0,1,1.92.93c.74,2.48-4.53,3.45-6.24,3.7-1.16.14-3.25.51-3.27-1.23a1.34,1.34,0,0,1,.94-1.25Z"/><path class="cls-22" d="M251,162.54a6,6,0,0,1-1-.07.25.25,0,0,1-.21-.28.24.24,0,0,1,.29-.21c2.92.44,6.67-1.35,11.8-5.64a.25.25,0,0,1,.32.38C257.55,160.67,253.94,162.54,251,162.54Z"/><path class="cls-22" d="M260.24,163.51a2.1,2.1,0,0,1-1.36-.35.89.89,0,0,1-.28-.91c.33-1.75,6.46-3.37,7.16-3.55a.25.25,0,0,1,.13.49c-2.52.64-6.6,2.07-6.8,3.15a.4.4,0,0,0,.12.44c.62.54,3,.09,5.11-.63,2.22-.78,3.43-1.32,3.45-1.33a.25.25,0,0,1,.33.13.26.26,0,0,1-.13.33s-1.25.56-3.48,1.34A15.78,15.78,0,0,1,260.24,163.51Z"/><path class="cls-22" d="M260.11,166.05a2.3,2.3,0,0,1-1.6-.44.83.83,0,0,1-.26-.74c.16-1.21,2.5-1.85,3.07-2a.26.26,0,0,1,.29.21.25.25,0,0,1-.21.28c-.87.15-2.55.8-2.65,1.52a.37.37,0,0,0,.1.32c.17.16.78.49,2.81.14a22,22,0,0,0,6.51-2.23.25.25,0,1,1,.24.43,22.29,22.29,0,0,1-6.66,2.3A9.69,9.69,0,0,1,260.11,166.05Z"/><path class="cls-22" d="M261.5,168.11a2.16,2.16,0,0,1-1.24-.33.92.92,0,0,1-.4-.77c0-1.17,1.69-1.55,1.76-1.57a.25.25,0,0,1,.11.49s-1.37.32-1.37,1.08a.43.43,0,0,0,.19.37,2.32,2.32,0,0,0,1.73.12.25.25,0,0,1,.32.16.25.25,0,0,1-.16.31A3.11,3.11,0,0,1,261.5,168.11Z"/><path class="cls-24" d="M177.21,175.45v0a0,0,0,0,0,0,0Z"/><path class="cls-24" d="M181,172.28c-1,.73-2.39,1.92-3.83,3.17h0a0,0,0,0,1,0,0c-.09.12-.52.7-.24,1.12s1.8.3,1.8.3l-3.35,1.29-.7-.51c-1.79,1.59-3.2,2.91-3.28,3-2.54,2.6-5.09-1.26-5.09-1.48,0,.22.51-.93.75-1.54l-.75-1.32a13.44,13.44,0,0,0,3.86-1l.09,0a3.85,3.85,0,0,0,.53-.3l0,0a92.23,92.23,0,0,1,10.84-5.29C182.26,169.47,181.93,171.6,181,172.28Z"/><polygon class="cls-25" points="159.75 219.89 156.28 272.66 155.95 220.44 159.75 219.89"/><path class="cls-26" d="M133.94,211.11a.26.26,0,0,1-.26-.24.25.25,0,0,1,.24-.28,17.09,17.09,0,0,0,9.59-5,.25.25,0,0,1,.37,0,.27.27,0,0,1,0,.37,17.23,17.23,0,0,1-9.92,5.16Z"/><path class="cls-26" d="M174.45,211.11a.27.27,0,0,1-.2-.09L169,205a.26.26,0,0,1,.39-.35l5.26,6a.27.27,0,0,1,0,.37A.23.23,0,0,1,174.45,211.11Z"/><path class="cls-27" d="M205.49,183.87c-.88-.05-1.75-.14-2.62-.26A10.79,10.79,0,0,1,205.49,183.87Z"/><path class="cls-28" d="M167.12,117.6a.25.25,0,0,1-.07-.49s2.95-.86,3.52-3.24a.25.25,0,0,1,.3-.19.25.25,0,0,1,.18.3c-.64,2.67-3.73,3.57-3.86,3.61Z"/><path class="cls-28" d="M151.35,122h0a11.59,11.59,0,0,1-6.5-4,.24.24,0,0,1,0-.35.26.26,0,0,1,.35,0,11.31,11.31,0,0,0,6.2,3.78.25.25,0,0,1,.2.29A.26.26,0,0,1,151.35,122Z"/><path class="cls-28" d="M149.81,113.21a.26.26,0,0,1-.21-.11,3.09,3.09,0,0,1-.14-3.82.25.25,0,0,1,.35,0,.25.25,0,0,1,0,.36,2.57,2.57,0,0,0,.18,3.19.25.25,0,0,1-.06.35A.24.24,0,0,1,149.81,113.21Z"/></g><g id="_2" data-name="2"><polygon class="cls-29" points="298.83 330.57 255.05 333.44 249.82 317 297.38 311.61 298.83 330.57"/><path class="cls-21" d="M251.3,331.69c0,5.39-5.11,10.48-11.24,13.25a23.05,23.05,0,0,1-9.38,2.19,19.83,19.83,0,0,1-5-.57c-5.85-1.53-8.66-6.2-7.71-14.87,1.86-16.92,7.47-14.58,16.68-14.58S251.3,323.64,251.3,331.69Z"/><path class="cls-18" d="M275.11,340.87l15,2.16a19,19,0,0,0,10.1-1.3l2.25-1.21c4.74-2.58-3.86-4.33-11.73-5.8l-7.8-3.07Z"/><path class="cls-30" d="M274.19,244.43c0,7.14-4.05,12.94-9.09,12.95s-9.13-5.77-9.15-12.9S260,231.54,265,231.53,274.17,237.3,274.19,244.43Z"/><rect class="cls-30" x="251.91" y="249.29" width="12" height="15.46" transform="translate(102.46 -72.24) rotate(19.83)"/><path class="cls-30" d="M281,337.44c.19-.28,7,2.27,11.06,2.07s7.9-3.44-.59-4.6c-6.81-.93-7.61-3.36-7.61-3.36l-5.42.52L281,335.6Z"/><path class="cls-31" d="M274.19,242.46l-.14-.17a3.91,3.91,0,0,0-4.09,2.87c-2.39,6.3-5.24,9-7.85,10a9.54,9.54,0,0,1-9.38-1.63,7.58,7.58,0,0,0,0-5.79l0-.06a8.94,8.94,0,0,1-.51-1.51l0-.13a12.91,12.91,0,0,1-.37-4.14c.49-6.66,5.89-11.69,12.07-11.24C269.68,231.07,274.14,236.26,274.19,242.46Z"/><path class="cls-31" d="M277.72,241.3c-1,1.87-5.71,1.27-10.47-1.35s-7.77-6.24-6.74-8.11,5.72-1.27,10.47,1.34S278.75,239.42,277.72,241.3Z"/><path class="cls-32" d="M240.06,344.94a23.05,23.05,0,0,1-9.38,2.19,19.83,19.83,0,0,1-5-.57h0c4.76-1.6,5.43-8.39,5.64-8.61l8.7,6.2Z"/><path class="cls-31" d="M279.46,235.5c-.25,1.51-4.76,2-10.06,1.11s-9.71-3.42-9.45-4.93,5.08-1.42,10.38-.53S279.72,234,279.46,235.5Z"/><path class="cls-21" d="M292.86,335.87s-26.09,11.26-40,13.22c-11.32,1.6-21.36-1.27-22.4-13.73l-5.6-7.57L289,312.92c4.95-1.18,13-3,16.63,1.94,2.05,2.79,1.36,6.75.11,9.74C303.49,330,298.33,334.06,292.86,335.87Z"/><path class="cls-30" d="M269.22,247.54a2.8,2.8,0,1,1-3.56-2A2.91,2.91,0,0,1,269.22,247.54Z"/><circle class="cls-31" cx="250.29" cy="227.92" r="12.97" transform="translate(-85.2 273.13) rotate(-50)"/><path class="cls-5" d="M312.45,311.57l-30.57-7a1.09,1.09,0,0,1-.68-1.64l12-19.27a2.16,2.16,0,0,1,2.18-1l31.09,5a1.31,1.31,0,0,1,.91,2l-12.6,20.91A2.15,2.15,0,0,1,312.45,311.57Z"/><path class="cls-23" d="M325.86,290.16l-4.52,7.41-4.72,7.75-2.57,4.21a1.86,1.86,0,0,1-2,.84l-1.67-.38h0l-10-2.27h0l-16.87-3.83a1.1,1.1,0,0,1-.68-1.65l8-12.71,3.16-5a1.63,1.63,0,0,1,1.64-.73l1,.16h0l9.49,1.54,9.59,1.55,9.29,1.49A1.09,1.09,0,0,1,325.86,290.16Z"/><path class="cls-33" d="M310.39,310l-10-2.27h0l-9.53-18.19,3.16-5a1.63,1.63,0,0,1,1.64-.73l1,.16h0Z"/><polygon class="cls-33" points="321.34 297.57 316.62 305.32 306.22 285.48 315.81 287.03 321.34 297.57"/><path class="cls-18" d="M298.16,315.36l-30.39-8.06,45.86,4.21,0,.28a1.3,1.3,0,0,1-1.05,1.2l-12.12,2.43A4.89,4.89,0,0,1,298.16,315.36Z"/><path class="cls-32" d="M257.39,326.7S258.66,329,269.7,325c11.33-4.1,20.36-8.36,20.36-8.36l-15-3.6-7.11.19-3.76,1.32-6.29,11.83Z"/><path class="cls-5" d="M298.63,314.43l-30.86-8.18,12.44-2.37,33.42,7.63-13.66,3A2.89,2.89,0,0,1,298.63,314.43Z"/><path class="cls-18" d="M295.92,313.65a.12.12,0,0,1-.12-.1.13.13,0,0,1,.1-.15L310,310.65a.12.12,0,0,1,.14.1.11.11,0,0,1-.1.14L296,313.65Z"/><path class="cls-18" d="M290.06,312.48a.12.12,0,0,1-.12-.1.12.12,0,0,1,.1-.15l14.3-2.8a.13.13,0,0,1,.14.1.12.12,0,0,1-.09.15l-14.31,2.79Z"/><path class="cls-18" d="M285.49,311.54a.12.12,0,0,1-.12-.1.12.12,0,0,1,.1-.15l14.3-2.79a.13.13,0,0,1,.15.1.12.12,0,0,1-.1.14l-14.31,2.8Z"/><path class="cls-18" d="M302.86,313.89h0l-19-5.14a.13.13,0,0,1-.09-.15.13.13,0,0,1,.16-.09l19,5.14a.12.12,0,0,1,.09.15A.14.14,0,0,1,302.86,313.89Z"/><path class="cls-18" d="M306.42,313.1h0l-19.25-4.83a.13.13,0,0,1-.09-.15.13.13,0,0,1,.15-.09l19.25,4.83a.11.11,0,0,1,.09.15A.12.12,0,0,1,306.42,313.1Z"/><path class="cls-18" d="M313.5,311.73h0l-19.62-4.52a.13.13,0,0,1-.09-.15.14.14,0,0,1,.15-.09l19.61,4.52a.13.13,0,0,1,.1.15A.14.14,0,0,1,313.5,311.73Z"/><path class="cls-18" d="M309.66,312.34h0L290,307.64a.11.11,0,0,1-.09-.15.12.12,0,0,1,.15-.09l19.6,4.69a.13.13,0,0,1,.1.15A.14.14,0,0,1,309.66,312.34Z"/><path class="cls-30" d="M287,304.22c.36-.29,7-.14,10.08-.05a4.32,4.32,0,0,1,2.66,1l6.27,5.24h-.56a3.93,3.93,0,0,1-2.15-.65l-4.09-2.7h0c.27,1.78.44,3.66-2.58,3.93l-7.85,2Z"/><path class="cls-22" d="M295.87,311.43a1.36,1.36,0,0,1-.73-.17.76.76,0,0,1-.33-.56c-.1-1.06,2.24-1.56,2.71-1.65a.25.25,0,0,1,.29.2.24.24,0,0,1-.2.29c-1,.19-2.34.68-2.3,1.11a.22.22,0,0,0,.11.19,2.07,2.07,0,0,0,1.3,0,.26.26,0,0,1,.32.16.25.25,0,0,1-.17.31A3.47,3.47,0,0,1,295.87,311.43Z"/><path class="cls-5" d="M275.07,292.44c-1.37,4.9-2.69,12-6.26,18.54-4.67,8.53-9.39,16-9.39,16a6,6,0,0,1-.75.77c-3.59,3.1-12.12,3.69-22.11,2.94-20.13-1.52-17.18-7.62-17.18-7.62,5.52-21.35,14.05-60.33,31.26-64.37,1.6-.37,7.47.72,11.23,1.71C278.61,264.82,279.09,278,275.07,292.44Z"/><path class="cls-34" d="M269.12,310.41c-4.68,8.53-9.29,15.93-9.29,15.93a8.1,8.1,0,0,1-.71,1c-1.71,0-3.35-2.42-3.2-4.79.4-6.48,3.13-22.73,3.55-23.32C259.47,299.21,266.18,304.74,269.12,310.41Z"/><path class="cls-5" d="M297.17,310a6.9,6.9,0,0,1-4.68,6.08c-3.14,1.06-6.31,2-9.48,2.84a89.2,89.2,0,0,1-14,2.66c-11.6,1.18-12-9.83-11.55-14.29.09-2.59,2.56-23.19,4.18-30.83,2.64-10.82,15.89-9.63,15.4,2.08,0,5.15-.09,12.83-.22,18.4-.07,2.95-.14,5.31-.22,6.38l1.39-.1h0c3-.23,10.14-.71,12.7-.54A6.89,6.89,0,0,1,297.17,310Z"/><path class="cls-35" d="M268.3,322.1a12.78,12.78,0,0,1-7.82-2.9,9.13,9.13,0,0,1-3.34-7.58c.31-7.86,2.47-26.27,3.08-28.33a.24.24,0,0,1,.31-.17.25.25,0,0,1,.17.31c-.54,1.82-2.73,19.87-3.06,28.21a8.64,8.64,0,0,0,3.17,7.18c2.69,2.27,6.61,3.13,8.84,2.66a.25.25,0,0,1,.3.19.24.24,0,0,1-.19.29A6.58,6.58,0,0,1,268.3,322.1Z"/><path class="cls-35" d="M270.37,304.14a.25.25,0,0,1-.25-.24.25.25,0,0,1,.23-.26l13.52-1.07a.24.24,0,0,1,.27.23.25.25,0,0,1-.23.26l-13.52,1.07Z"/><path class="cls-22" d="M265.59,250a.26.26,0,0,1-.21-.11,2.17,2.17,0,0,1,.25-3.18,1.89,1.89,0,0,1,2.5.25.25.25,0,0,1-.35.37s-1-.93-1.84-.24a1.72,1.72,0,0,0-.15,2.51.25.25,0,0,1-.06.35A.24.24,0,0,1,265.59,250Z"/><path class="cls-36" d="M250.87,241.25a9.67,9.67,0,0,1-1.89-.17.26.26,0,0,1-.18-.3.25.25,0,0,1,.3-.19,11.65,11.65,0,0,0,9.63-2.82c4.69-4,4.29-10.78,4.29-10.85a.25.25,0,0,1,.23-.27.26.26,0,0,1,.27.24c0,.06.42,7.05-4.46,11.26A12.47,12.47,0,0,1,250.87,241.25Z"/><path class="cls-36" d="M272.06,237.83a.24.24,0,0,1-.23-.19.25.25,0,0,1,.19-.31l.38,0c3.14-.13,5.37-.63,6.61-1.48a.25.25,0,0,1,.35.07.24.24,0,0,1-.06.34c-2,1.36-5.68,1.52-6.88,1.56l-.3,0Z"/><path class="cls-30" d="M273.65,247.87l.8,2.64a1.09,1.09,0,0,1-.92,1.39l-1.9.23Z"/><path class="cls-18" d="M273,248.54c-.18.48-.54.78-.83.68s-.37-.57-.2-1.05.54-.79.83-.68S273.16,248.06,273,248.54Z"/><path class="cls-37" d="M244,349.37h0a13.9,13.9,0,0,1-10-4.53,12.13,12.13,0,0,1-3.26-8.38c0-.14.11-.27.26-.24a.26.26,0,0,1,.24.27,11.51,11.51,0,0,0,3.13,8,13.38,13.38,0,0,0,9.69,4.37.25.25,0,0,1,0,.5Z"/><path class="cls-34" d="M278,303.19l0,.1-5.86.46a24.34,24.34,0,0,0,4.73-6.84c-.07,2.95-.14,5.31-.22,6.38Z"/><path class="cls-22" d="M299.26,307h0a.25.25,0,0,1-.22-.27,1,1,0,0,0-.29-.91c-.58-.53-1.86-.27-1.87-.27a.26.26,0,0,1-.3-.2.25.25,0,0,1,.2-.29,3.06,3.06,0,0,1,2.3.38,1.51,1.51,0,0,1,.46,1.33A.27.27,0,0,1,299.26,307Z"/><path class="cls-22" d="M299.18,308.4h-.09a.26.26,0,0,1-.15-.32s.28-.81-.12-1.11a3.05,3.05,0,0,0-1.61-.18.26.26,0,0,1-.28-.22.25.25,0,0,1,.22-.28,3.4,3.4,0,0,1,2,.28c.7.53.31,1.63.29,1.68A.25.25,0,0,1,299.18,308.4Z"/><path class="cls-22" d="M299.15,309.6h-.06a.26.26,0,0,1-.18-.31c.07-.22.18-.92-.09-1.17a2.53,2.53,0,0,0-1.52-.22.25.25,0,0,1-.28-.22.24.24,0,0,1,.22-.27,2.9,2.9,0,0,1,1.91.34c.56.5.28,1.56.24,1.68A.25.25,0,0,1,299.15,309.6Z"/><path class="cls-36" d="M261.89,234a.27.27,0,0,1-.23-.14,28.11,28.11,0,0,0-8.92-10.46,28.84,28.84,0,0,0-10.93-5.05l-.18,0a.25.25,0,0,1-.21-.29.26.26,0,0,1,.28-.21l.2,0A29.45,29.45,0,0,1,253,223a28.7,28.7,0,0,1,9.08,10.66.25.25,0,0,1-.12.33A.22.22,0,0,1,261.89,234Z"/><path class="cls-36" d="M254.23,240.53a.25.25,0,0,1-.25-.23,31.24,31.24,0,0,0-1.36-7.29c-2.11-6.75-6.19-12.24-10.92-14.67l-.13-.07.21-.46-.12.23.13-.22.17.09c4.82,2.48,9,8.07,11.13,15a31.26,31.26,0,0,1,1.39,7.41.24.24,0,0,1-.24.26Z"/></g><g id="_3" data-name="3"><path class="cls-18" d="M327.28,164c0,.53-1.46,2-3.41,3.45s-3.57,2.31-4.2,2.29a.23.23,0,0,1-.21-.08c-.28-.38,1.22-2,3.37-3.59s4.13-2.59,4.41-2.2A.17.17,0,0,1,327.28,164Z"/><path class="cls-38" d="M329.45,167.87a7.41,7.41,0,0,1-2.88,3.2,8.5,8.5,0,0,1-3.36,1.38l-.79-1-1-1.3-.61-.76-1.67-2.12,6-4.77,2.19,2.76.54.68.74.91Z"/><path class="cls-38" d="M319.76,157.45c-.67-3.69-.33-4.5.1-4.3,0,0,3.51,5.49,4.06,6.3a11.39,11.39,0,0,1,1.7,4.19c.14.55-1.77,3.41-2.67,3.14C320.1,165.93,320.47,161.69,319.76,157.45Z"/><polygon class="cls-38" points="322.52 169.51 312.88 165.01 317.74 159.06 325.29 162.62 322.52 169.51"/><path class="cls-38" d="M318,162.06c-2.72-1.69-5.34-2.68-7.3-5.24-.65-.72-1.29-1.46-1.91-2.2a.83.83,0,0,1,1.18-1.17,50.85,50.85,0,0,0,4.22,3.6c1.52.77,3.66,1.82,5.13,2.62a1.37,1.37,0,1,1-1.32,2.39Z"/><path class="cls-38" d="M315.77,163.18a55.57,55.57,0,0,1-10.33-7.71.84.84,0,0,1-.06-1.18.83.83,0,0,1,1.06-.15c1.81,1.14,3.57,2.35,5.33,3.55,1.63,1,3.71,2.09,5.41,3.15a1.37,1.37,0,0,1,.46,1.88,1.35,1.35,0,0,1-1.87.46Z"/><path class="cls-38" d="M315.92,165.05a46.58,46.58,0,0,1-6.89-4.28l-1.17-1.07c-.77-.72-1.54-1.45-2.29-2.19a.85.85,0,0,1,0-1.19.82.82,0,0,1,1.06-.1c1.27.85,2.65,1.83,3.89,2.74a37.83,37.83,0,0,0,4,2.19c1.17.85,4.22,1.42,3.3,3.37a1.37,1.37,0,0,1-1.85.53Z"/><path class="cls-38" d="M315.4,166.42c-1.79-.85-3.72-1.69-5.45-2.66-1.78-1.14-2.93-3-4.29-4.53a.83.83,0,0,1,1.21-1.14c1.74,1.52,3.19,3.48,5.49,4.17,1.34.53,2.82,1.1,4.13,1.66a1.36,1.36,0,1,1-1.09,2.5Z"/><path class="cls-39" d="M316.42,160.6l-.11,0L312,158.46l-5.3-3.79a.25.25,0,0,1,.29-.41l5.27,3.77,4.27,2.1a.24.24,0,0,1,.12.33A.27.27,0,0,1,316.42,160.6Z"/><path class="cls-39" d="M315.08,161.85l-.11,0-4.3-2.11h0c-.19-.09-.88-.56-4.23-3.14a.25.25,0,0,1-.05-.35.24.24,0,0,1,.35,0c1.47,1.13,3.89,3,4.13,3.08l4.32,2.12a.25.25,0,0,1,.12.34A.24.24,0,0,1,315.08,161.85Z"/><path class="cls-39" d="M314.54,164.24l-.11,0-4.31-2.11-.06,0-3.78-3.84a.25.25,0,0,1,.36-.35l3.74,3.81,4.27,2.09a.26.26,0,0,1,.12.34A.27.27,0,0,1,314.54,164.24Z"/><path class="cls-18" d="M425.71,180.46h0c-.28.39-2.29-.54-4.48-2.08-2-1.39-3.45-2.79-3.5-3.34a.17.17,0,0,1,0-.15c.27-.4,2.27.54,4.47,2.08S426,180.05,425.71,180.46Z"/><path class="cls-40" d="M401.66,243.69c-17.71-1.7-32.87,1.21-50.58-.49,8.5-19,4.55-26.33,14.24-47.37,8.43-.51,21.46-6.63,25.36.91C395.49,206,400.56,228.05,401.66,243.69Z"/><path class="cls-40" d="M396.82,162.51c-.69,10.81-5.44,36.62-5.44,36.62-.24,1.45-3.31,2.2-8.33,2.42a51.27,51.27,0,0,1-5.64-.07c-7.31-.47-12.45-1.35-13.17-3.23-.06-.14-2.68-26.42-3.51-40.91,3.13-.18,10.68.51,10.68.51v-5.21c0,.41,2.36.74,5.27.74s5.27-.33,5.27-.74v6.08C389.59,160,394.82,161.38,396.82,162.51Z"/><path class="cls-40" d="M367.52,171.33l-21.09,22.74-6.88-9.35.4-.6,8.21-12.46,7.51-11.39c2-2.94,6.17-3.75,10.18-2.36Z"/><path class="cls-40" d="M347.36,192.85c-5.44,7.88-11.17,2.75-13.72-1.22l-14.1-21.78.13-.11c.63,0,2.34-.9,4.2-2.29s3.38-2.92,3.41-3.45l14.44,18.09Z"/><path class="cls-18" d="M389.38,137.66c-1.23,1.85-5.49.05-7.43-1.78a3.59,3.59,0,0,1-.4-5.11c1-1,3.2-.23,5.25,1.47C389.27,134.3,390.16,136.5,389.38,137.66Z"/><path class="cls-18" d="M392.18,150a.84.84,0,0,0-.24-.65c-.49-.77-6.72-6.82-5.06-13.48,1.24-5-3.33-5.25-3.33-5.25s-5.26-2.44-5.52-2.44-5.39.92-5.39.92l-2.51,1.28-2.21,1.87.26,3.11s-.92,4.37.23,7.41c1,2.7-3.75,7.63-3.7,7.63a.69.69,0,0,0-.07.34c.11,1,2.47,1.61,6,1.24a58.49,58.49,0,0,1,13.22.07c3.47.53,6.39.69,6.69-.46a.94.94,0,0,0,0-.47C391.5,150.88,392.13,150.49,392.18,150Z"/><path class="cls-28" d="M390.52,151.84l-.1,0a.26.26,0,0,1-.13-.33s.37-1.06-1.34-1.83c-2.93-1.32-3.44-3.59-3.32-3.95a.26.26,0,0,1,.32-.16.25.25,0,0,1,.16.29c0,.32.48,2.21,3,3.37,1.84.82,1.78,2.07,1.6,2.48A.25.25,0,0,1,390.52,151.84Z"/><path class="cls-38" d="M382,142.35v10.29a.13.13,0,0,1,0,.06c-.22.38-2.49.68-5.26.68s-5.27-.33-5.27-.74V142.35Z"/><path class="cls-41" d="M382,148.86v3.78a.13.13,0,0,1,0,.06c-4.82-.51-6.26-3-6.26-3l4.14-1Z"/><path class="cls-38" d="M386.83,138.63c1.4,6-.82,11.41-5.26,12.46s-9.17-2.94-10.57-8.89,1.06-11.62,5.5-12.66S385.43,132.68,386.83,138.63Z"/><path class="cls-18" d="M370.78,141.1c0-.27,8.43-4.65,9.27-11.72l-6.64,1.44-1.91,1.51-1.85,2.29-.17,6.14Z"/><path class="cls-28" d="M371.24,140.36h0a.24.24,0,0,1-.21-.28,15.14,15.14,0,0,1,1.93-4.67.25.25,0,0,1,.35,0,.25.25,0,0,1,0,.34,15.87,15.87,0,0,0-1.77,4.36A.25.25,0,0,1,371.24,140.36Z"/><path class="cls-38" d="M371.48,139.47a3.15,3.15,0,1,1-4.61.95A3.32,3.32,0,0,1,371.48,139.47Z"/><path class="cls-40" d="M374,181.46c0,2.81-2.75,5.09-6.13,5.09s-6-2-6.51-4.75c-.51-3.05,1.64-12.67,6.17-11.29C370.75,171.5,374,178.65,374,181.46Z"/><path class="cls-38" d="M416.39,177.94a7.4,7.4,0,0,0,2.88,3.19,8.33,8.33,0,0,0,3.36,1.39l.79-1,1-1.3.6-.77,1.68-2.12-6-4.77-2.19,2.77L418,176l-.75.91Z"/><path class="cls-38" d="M426.08,167.51c.67-3.69.32-4.49-.1-4.3,0,0-3.51,5.49-4.06,6.3a11.42,11.42,0,0,0-1.7,4.2c-.14.55,1.77,3.4,2.67,3.13C425.73,176,425.37,171.76,426.08,167.51Z"/><polygon class="cls-38" points="423.32 179.57 432.96 175.07 428.1 169.12 420.55 172.68 423.32 179.57"/><path class="cls-38" d="M426.51,169.73c1.47-.79,3.63-1.85,5.14-2.62a11.41,11.41,0,0,0,2-1.66c.71-.66,1.44-1.3,2.18-1.94a.83.83,0,0,1,1.18,1.17,32.48,32.48,0,0,1-4.16,4.44c-1.75,1.07-3.31,2-5.06,3a1.37,1.37,0,1,1-1.32-2.4Z"/><path class="cls-38" d="M428.66,170.91c1.7-1.07,3.78-2.14,5.41-3.16,1.76-1.2,3.51-2.41,5.32-3.55a.85.85,0,0,1,1.16.26.84.84,0,0,1-.15,1.07c-1.59,1.43-3.23,2.8-4.86,4.17-1.88,1.39-3.55,2.36-5.47,3.55a1.37,1.37,0,1,1-1.41-2.34Z"/><path class="cls-38" d="M428.59,172.72c2.66-1.57,5.6-2.69,8-4.63.86-.61,1.73-1.22,2.6-1.81a.85.85,0,0,1,1.17.22.86.86,0,0,1-.11,1.07c-.75.74-1.52,1.47-2.29,2.19a23.44,23.44,0,0,1-5.31,3.81c-1.34.54-3.45,2.82-4.61,1a1.38,1.38,0,0,1,.53-1.85Z"/><path class="cls-38" d="M429.34,174c1.32-.56,2.8-1.13,4.13-1.66a7.68,7.68,0,0,0,2.8-1.61c.89-.86,1.79-1.73,2.7-2.56a.83.83,0,0,1,1.21,1.14c-.62.77-1.25,1.54-1.9,2.29a9.34,9.34,0,0,1-3.82,3c-1.29.62-2.72,1.33-4,1.92a1.37,1.37,0,0,1-1.1-2.51Z"/><path class="cls-39" d="M429.42,170.67a.26.26,0,0,1-.23-.14.25.25,0,0,1,.12-.34l4.3-2.12,5.24-3.74a.23.23,0,0,1,.34,0,.25.25,0,0,1-.05.35l-5.27,3.77-4.34,2.14Z"/><path class="cls-39" d="M430.75,171.91a.24.24,0,0,1-.22-.14.25.25,0,0,1,.11-.33l4.31-2.12.07,0c.18-.1,2.6-1.94,4.08-3.07a.25.25,0,0,1,.3.4c-3.36,2.57-4,3-4.23,3.14h0l-4.31,2.12Z"/><path class="cls-39" d="M431.3,174.3a.25.25,0,0,1-.11-.47l4.26-2.1,3.75-3.8a.25.25,0,0,1,.35,0,.25.25,0,0,1,0,.36l-3.77,3.83a.18.18,0,0,1-.07,0l-4.3,2.12Z"/><path class="cls-42" d="M363.61,133.45c.14-.17,6.81-6.59,10.07-7.65,1.84-.6,15,1.24,15.42,2.31.19.46-1.64,2-4.06,2.78-5,1.62-15.8,3-18,3.37S363,134.15,363.61,133.45Z"/><path class="cls-43" d="M386.67,132a35.74,35.74,0,0,0-18.58,4.24c-.35-1.31-.93-1.8-1.82-1.89,6.67-3.49,14-5.13,20.74-4.32C387,130,386.1,130.44,386.67,132Z"/><path class="cls-42" d="M374,127a.24.24,0,0,1-.25-.22,5.68,5.68,0,0,0-1.2-2.37,1.69,1.69,0,0,1-.22-.33.26.26,0,0,1,.16-.32.25.25,0,0,1,.31.14s.08.11.15.21a6,6,0,0,1,1.3,2.61.26.26,0,0,1-.22.28Z"/><path class="cls-40" d="M410.63,193.67l-9.71,6.91-2.29-5.19-6.44-14.68-4.62-10.54c.6-.17,6.13-8.79,6.26-8.79,3.44.58,6.3,3.25,7.74,7.91L406,181.06h0l4.49,12.08Z"/><path class="cls-17" d="M398.63,195.39l-4.75-10.84,1.09-7,0,0A125.92,125.92,0,0,0,398.63,195.39Z"/><path class="cls-19" d="M343.85,185.64a.26.26,0,0,1-.22-.13,17.79,17.79,0,0,0-1-1.53c-.38-.56-.86-1.2-1.39-1.91-3.66-4.88-10-12.7-10-12.78a.24.24,0,0,1,0-.35.25.25,0,0,1,.35,0c.07.08,6.38,7.91,10.05,12.79.53.73,1,1.38,1.4,1.93a18.76,18.76,0,0,1,1.06,1.58.26.26,0,0,1-.1.34Z"/><path class="cls-19" d="M368.47,187.31h0a8.42,8.42,0,0,1-7.18-4.7.25.25,0,0,1,.13-.32.24.24,0,0,1,.33.13,7.92,7.92,0,0,0,6.74,4.39.25.25,0,0,1,.24.26A.25.25,0,0,1,368.47,187.31Z"/><path class="cls-19" d="M387.44,188.85h0a8.42,8.42,0,0,1-7.18-4.7.23.23,0,0,1,.13-.32.25.25,0,0,1,.33.13,7.92,7.92,0,0,0,6.74,4.39.25.25,0,0,1,0,.5Z"/><path class="cls-40" d="M425.76,180.49l-14.95,20.14a6.71,6.71,0,0,1-4.67,2.76c-3.61.34-7.2-2.27-4.79-8.41L417.73,175c0,.55,1.53,2,3.5,3.34,2.19,1.54,4.2,2.47,4.48,2.08h0Z"/><path class="cls-19" d="M402.42,193.92a.27.27,0,0,1-.16-.06.25.25,0,0,1,0-.35l15.33-18.78a.25.25,0,0,1,.39.32l-15.33,18.78A.27.27,0,0,1,402.42,193.92Z"/><path class="cls-44" d="M368.74,144.05l-.08,0a2.31,2.31,0,0,1-1.21-1.51,1.64,1.64,0,0,1,.46-1.59,2.51,2.51,0,0,1,3-.22.26.26,0,0,1,.1.34.27.27,0,0,1-.35.1,2,2,0,0,0-2.38.13,1.13,1.13,0,0,0-.33,1.12,1.91,1.91,0,0,0,.88,1.16.25.25,0,0,1,.16.31A.26.26,0,0,1,368.74,144.05Z"/><path class="cls-44" d="M380.05,142a.25.25,0,0,1-.1-.48s.06,0,.8-.24a.73.73,0,0,0,.48-.41.77.77,0,0,0,0-.63,15.84,15.84,0,0,0-.85-1.64.22.22,0,0,1-.09-.25.25.25,0,0,1,.29-.19c.15,0,.22.05,1.1,1.86a1.24,1.24,0,0,1,0,1,1.23,1.23,0,0,1-.8.69l-.75.22Z"/><path class="cls-5" d="M376.86,142.68a10.44,10.44,0,0,0,4.45.41s-.38,2.59-2.38,2.35S376.86,142.68,376.86,142.68Z"/><path class="cls-45" d="M373.81,135.69a5.1,5.1,0,0,1,5.2-2.42.89.89,0,0,1-.1,1.77,10.09,10.09,0,0,0-4.24,1.15c-.42.35-1,.05-.86-.5Z"/><path class="cls-45" d="M385.69,136.1c-.52-.34-.71-.69-1.15-.9a6.73,6.73,0,0,0-1.13-.33.9.9,0,0,1-.65-1.09c.22-.82,1.16-.76,1.84-.57a2.48,2.48,0,0,1,1.85,2.24c.09.48-.28.91-.76.65Z"/><ellipse class="cls-18" cx="377.64" cy="138.69" rx="0.69" ry="0.96"/><ellipse class="cls-18" cx="383.96" cy="138.18" rx="0.69" ry="0.96"/><path class="cls-18" d="M401.47,243.27c-.71,1.24-4.46,2-9.39,2.48-.7.07-1.41.13-2.15.18-4.26.31-9.14.42-13.59.42h-1.78l-2.58,0-2.52,0-1.33,0a81.32,81.32,0,0,1-13.68-1.16c-.34-.07-.66-.16-1-.24a3.68,3.68,0,0,1-2.2-1.25,2,2,0,0,1-.14-.31,1.08,1.08,0,0,1,.65-1.46,11.38,11.38,0,0,1,4.28-.65h0c3.6-.1,8.81.25,14.49.43.84,0,1.7.06,2.55.07l1,0h2.19c5,0,9.81-.25,13.91-.39l2-.08C398.58,241.07,402.6,241.26,401.47,243.27Z"/><path class="cls-23" d="M364.78,307.86l4.85,22.64,2.6,8.61,1.43,4.77-2.39.84-1.48-3.52-.56-1.36-1.88,6.31-6.66,3.44-9.05-.13h0a2.13,2.13,0,0,1,1.27-2l7.81-3.46s.75-9.81,1-11.46l-6.45-21.28a26.49,26.49,0,0,0,4.88-1.31A24.64,24.64,0,0,0,364.78,307.86Z"/><path class="cls-46" d="M358.67,345.16a.24.24,0,0,1-.23-.15.25.25,0,0,1,.13-.33l2.71-1.16a.25.25,0,0,1,.33.13.26.26,0,0,1-.13.33l-2.72,1.16A.15.15,0,0,1,358.67,345.16Z"/><path class="cls-46" d="M361.61,333.43h0a.26.26,0,0,1-.22-.29c.19-1.34,2-2,3-2.28a.29.29,0,0,1,.34.16.23.23,0,0,1-.12.3l-.09,0c-1.55.42-2.51,1.1-2.62,1.88A.26.26,0,0,1,361.61,333.43Z"/><path class="cls-46" d="M365.42,323.05a.24.24,0,0,1-.24-.2l-2.76-13.76a.25.25,0,0,1,.2-.29.24.24,0,0,1,.29.2l2.76,13.75a.26.26,0,0,1-.2.3Z"/><path class="cls-38" d="M368.13,246.25l-12,22.71,8.68,38.9-.58.35a30.15,30.15,0,0,1-3.33,1.46l-.75.28a26,26,0,0,1-4.87,1.31l-13.08-38.47a13,13,0,0,1,.15-9.64l8.82-19.86.65-1.46a11.38,11.38,0,0,1,4.28-.65h0c3.6-.1,8.81.25,14.49.43Z"/><path class="cls-23" d="M389.23,312.39l-1.56,37h-2.76l-.29-5.28L382,349.37H367a2.23,2.23,0,0,1,1.76-2.18,47.87,47.87,0,0,0,5.48-1.33c-.06-.19,5.83-11.36,5.83-11.36l-1-22.11a25.55,25.55,0,0,0,5.07.41A24.59,24.59,0,0,0,389.23,312.39Z"/><path class="cls-46" d="M372.86,346.53a.26.26,0,0,1-.25-.22.25.25,0,0,1,.21-.28c1.32-.18,3.33-.45,3.47-.48a.25.25,0,0,1,.3.19.24.24,0,0,1-.18.29c-.14,0-2.73.39-3.52.49Z"/><path class="cls-46" d="M382,349.62a.27.27,0,0,1-.12,0,.25.25,0,0,1-.11-.33c5.85-11.25,6-11.31,6.07-11.36a.25.25,0,0,1,.33.11.24.24,0,0,1,0,.28c-.28.42-3.68,6.9-5.91,11.2A.26.26,0,0,1,382,349.62Z"/><path class="cls-46" d="M386.47,323.57h0a.25.25,0,0,1-.25-.25l.34-10.29a.26.26,0,0,1,.25-.25h0a.25.25,0,0,1,.24.26l-.34,10.29A.24.24,0,0,1,386.47,323.57Z"/><path class="cls-46" d="M379.67,335.52h-.07a.25.25,0,0,1-.17-.31c.5-1.66,3.77-1.25,3.91-1.23a.26.26,0,0,1,.22.28.26.26,0,0,1-.28.22c-.84-.11-3.06-.17-3.37.87A.25.25,0,0,1,379.67,335.52Z"/><path class="cls-38" d="M392.27,241.26l-.19,4.49L392,249l-2.72,63.41a24.63,24.63,0,0,1-5.06.41,25.51,25.51,0,0,1-5.06-.41l-3.33-62.69-.18-3.35-.25-4.64h1c5,0,9.81-.25,13.92-.39Z"/><path class="cls-5" d="M378.07,200.3c-3.41,0-14.52-.16-14.52-2.11a.5.5,0,0,1,1-.14c.68.53,5.65,1.25,13.54,1.25s12.85-.72,13.53-1.25a.51.51,0,0,1,.49-.36.5.5,0,0,1,.5.5C392.59,200.14,381.47,200.3,378.07,200.3Z"/><path class="cls-39" d="M320.84,164.53a.24.24,0,0,1-.23-.14,22.09,22.09,0,0,1-.75-5.78v-.18a.26.26,0,0,1,.23-.27.25.25,0,0,1,.27.22s0,.08,0,.2c.22,4,.53,5.23.7,5.6a.25.25,0,0,1-.12.33Z"/><path class="cls-39" d="M425,174.59a.18.18,0,0,1-.1,0,.25.25,0,0,1-.13-.33c.18-.37.49-1.59.7-5.6a1.17,1.17,0,0,1,0-.2.24.24,0,0,1,.28-.22.25.25,0,0,1,.21.28v.17a21.81,21.81,0,0,1-.74,5.78A.24.24,0,0,1,425,174.59Z"/><path class="cls-19" d="M393.58,186.71h0a.26.26,0,0,1-.21-.29l.92-5.86a8.08,8.08,0,0,1,2.95-5.09.25.25,0,1,1,.31.38,7.68,7.68,0,0,0-2.77,4.79l-.91,5.86A.26.26,0,0,1,393.58,186.71Z"/><path class="cls-19" d="M361.44,179.85h0a.26.26,0,0,1-.23-.28s.47-5.57-2.06-7.64a.24.24,0,0,1,0-.35.25.25,0,0,1,.35,0c2.75,2.25,2.27,7.84,2.25,8.08A.25.25,0,0,1,361.44,179.85Z"/><path class="cls-17" d="M348.16,171.66c-2.74,6.61-4.45,10.32-5.36,12.17-.38-.55-.86-1.2-1.39-1.92Z"/><path class="cls-17" d="M408.06,186.76l-4.15,5.08c.51-4.32,2-10.47,2-10.77Z"/></g><g id="_4" data-name="4"><path class="cls-18" d="M475.47,330.87a.16.16,0,0,1-.06.08c-.64.55-4.75-.68-9.45-2.87s-8.42-4.58-8.29-5.39c0,0,0-.05,0-.06.34-.74,4.6.5,9.52,2.79S475.82,330.13,475.47,330.87Z"/><path class="cls-30" d="M482.87,304.78,468.8,336.45l-3,6.68-23.3,9a3.2,3.2,0,0,1-.1-.42,3,3,0,0,1,1.54-3.06l2.33-1.26h0s10.57-5.17,15-19.57l10.61-29.09Z"/><polygon class="cls-47" points="520.76 249.86 504.58 271.76 499.38 282 492.45 295.64 475.75 328.51 459.64 321.13 485.85 256.86 518.1 226.44 520.76 249.86"/><path class="cls-48" d="M475.41,331a.16.16,0,0,0,.06-.08.36.36,0,0,1,0,.09Z"/><path class="cls-49" d="M479,324.82l-.05.07h0l-3.46,6c.35-.74-3.36-3.18-8.27-5.45s-9.18-3.53-9.52-2.79c0,0,0,0,0,.06h-.05c1.17-2.62,2-4.54,3.21-7l0-.1,0,0c.73-1,5.16.17,10,2.66S479.54,323.69,479,324.82Z"/><path class="cls-50" d="M460.87,315.55a.49.49,0,0,0,0,.11.35.35,0,0,1,0-.06Z"/><path class="cls-26" d="M484.06,313a.22.22,0,0,1-.13,0,.26.26,0,0,1-.1-.36c3.8-6.52,3.89-14.44,3.89-14.52a.26.26,0,0,1,.26-.26h0a.26.26,0,0,1,.26.26c0,.08-.09,8.14-4,14.79A.28.28,0,0,1,484.06,313Z"/><path class="cls-51" d="M513.32,295.51V351h41.07v-4.27l-1-1.14a12.54,12.54,0,0,0,1-1.8c0-.24-2.13-.86-2.13-.86L552,330.78l1.84-4.79-1.77-2.28,1.24-1.48-.92-1,2-1.06-4.55-2.3,4.55-3.85-1.49-2.19v-5.41a13.42,13.42,0,0,0,1.49-.79c0-.07-1.87-2.19-1.87-2.19l1.87-1.81-3.63-4.38,3.63-1.77v0Z"/><path class="cls-52" d="M552.74,345.76H517.23a.26.26,0,0,1-.25-.26.25.25,0,0,1,.25-.25h35.51a.26.26,0,0,1,.26.25A.26.26,0,0,1,552.74,345.76Z"/><path class="cls-52" d="M551.94,343.18H516.43a.26.26,0,0,1-.26-.26.26.26,0,0,1,.26-.25h35.51a.25.25,0,0,1,.25.25A.26.26,0,0,1,551.94,343.18Z"/><path class="cls-52" d="M553.37,326H517.86a.26.26,0,0,1-.26-.26.26.26,0,0,1,.26-.25h35.51a.25.25,0,0,1,.25.25A.26.26,0,0,1,553.37,326Z"/><path class="cls-52" d="M549.73,318.24H523.18a.26.26,0,1,1,0-.51h26.55a.26.26,0,1,1,0,.51Z"/><path class="cls-52" d="M552.55,307H526a.26.26,0,0,1-.26-.25.26.26,0,0,1,.26-.26h26.55a.26.26,0,0,1,.26.26A.26.26,0,0,1,552.55,307Z"/><path class="cls-52" d="M552.55,303.71H521.73a.26.26,0,0,1-.26-.25.26.26,0,0,1,.26-.26h30.82a.26.26,0,0,1,.26.26A.26.26,0,0,1,552.55,303.71Z"/><path class="cls-52" d="M551.94,321.72H525.38a.26.26,0,0,1-.25-.26.25.25,0,0,1,.25-.25h26.56a.25.25,0,0,1,.25.25A.26.26,0,0,1,551.94,321.72Z"/><path class="cls-52" d="M551.53,331.11h-31.1a.25.25,0,0,1-.25-.25.26.26,0,0,1,.25-.26h31.1a.26.26,0,0,1,.26.26A.26.26,0,0,1,551.53,331.11Z"/><path class="cls-26" d="M475.48,282.2h-.07a.27.27,0,0,1-.18-.33c0-.06,1.92-6.65,8.22-8.94a.27.27,0,0,1,.34.15.26.26,0,0,1-.16.34c-6,2.2-7.88,8.53-7.9,8.59A.26.26,0,0,1,475.48,282.2Z"/><path class="cls-51" d="M513.32,249.25l.35,53.85,40.72-1.42v-1.2l-1-1.14a12.16,12.16,0,0,0,1-1.81c0-.23-2.13-.86-2.13-.86L552,284.53l1.84-4.79-1.77-2.28L553.3,276l-.92-1,2-1.07-4.55-2.29,4.55-3.85-1.49-2.2v-5.4a15.34,15.34,0,0,0,1.49-.79c0-.07-1.87-2.19-1.87-2.19l1.87-1.81-3.63-4.38,3.63-1.77v0Z"/><path class="cls-52" d="M552.74,299.5H517.23a.25.25,0,0,1-.25-.25.26.26,0,0,1,.25-.26h35.51a.26.26,0,0,1,.26.26A.26.26,0,0,1,552.74,299.5Z"/><path class="cls-52" d="M551.94,296.92H516.43a.26.26,0,0,1-.26-.25.26.26,0,0,1,.26-.26h35.51a.26.26,0,0,1,.25.26A.25.25,0,0,1,551.94,296.92Z"/><path class="cls-52" d="M553.37,279.75H517.86a.26.26,0,0,1-.26-.25.26.26,0,0,1,.26-.26h35.51a.26.26,0,0,1,.25.26A.25.25,0,0,1,553.37,279.75Z"/><path class="cls-52" d="M549.73,272H523.18a.26.26,0,0,1-.26-.26.26.26,0,0,1,.26-.25h26.55a.26.26,0,0,1,.26.25A.26.26,0,0,1,549.73,272Z"/><path class="cls-52" d="M552.55,260.7H526a.26.26,0,0,1-.26-.25.26.26,0,0,1,.26-.26h26.55a.26.26,0,0,1,.26.26A.26.26,0,0,1,552.55,260.7Z"/><path class="cls-52" d="M552.55,257.46H521.73a.26.26,0,0,1-.26-.26.26.26,0,0,1,.26-.25h30.82a.26.26,0,0,1,.26.25A.26.26,0,0,1,552.55,257.46Z"/><path class="cls-52" d="M551.94,275.46H525.38a.25.25,0,0,1-.25-.25.26.26,0,0,1,.25-.26h26.56a.26.26,0,0,1,.25.26A.25.25,0,0,1,551.94,275.46Z"/><path class="cls-52" d="M551.53,284.86h-31.1a.25.25,0,0,1-.25-.25.26.26,0,0,1,.25-.26h31.1a.26.26,0,0,1,.26.26A.26.26,0,0,1,551.53,284.86Z"/><path class="cls-18" d="M517.45,290.59c.09.85-3.51,3.43-8.26,5.89s-9,4-9.58,3.34c0,0-.05,0-.05-.05-.38-.74,3.31-3.42,8.24-6s9.25-4,9.63-3.29A.1.1,0,0,1,517.45,290.59Z"/><path class="cls-30" d="M519.49,307.93l-.77,18.13a11.26,11.26,0,0,1-1.24,4.21c-.72,1.44-1.72,2.68-2.84,3a2.75,2.75,0,0,1-2.75-2.56l-.49-9.82h0l-.19-3.87A25.7,25.7,0,0,0,508,305.79c-3.37-6.06-8.54-15.36-9.13-16.2l11-4.2,6.79,15.85v0Z"/><path class="cls-53" d="M507.15,154.66c-.67,1.33-3.2,1.4-5.67.16s-3.91-3.32-3.24-4.65,3.21-1.4,5.67-.16S507.82,153.33,507.15,154.66Z"/><path class="cls-30" d="M459.38,161.13a3.15,3.15,0,0,1,.85,2.63l-2.09.8c-.78,1.18-3.28-1.63-4.79-3.65A12,12,0,0,0,447,154.8c-1-.43,1.29-2.41,3.19-2.8a3.35,3.35,0,0,1,3.22,1.41C456.51,157.58,459.38,161.13,459.38,161.13Z"/><path class="cls-30" d="M451.41,153.81a25.1,25.1,0,0,0-2.45-.71,5.39,5.39,0,0,0-1.12-.16h-.23s-.12,0,.16-.07a.78.78,0,0,0,.24-.2.76.76,0,0,0,.08-.11l0-.05a.66.66,0,0,0,.06-.2v-.07s0-.06,0,0a2.17,2.17,0,0,0,.09.48c.22.8.54,1.64.85,2.47,0,0,.95,2.5,1,2.5a.59.59,0,0,1-.34.76.58.58,0,0,1-.73-.27c-.43-.79-.85-1.59-1.24-2.41a18.63,18.63,0,0,1-1.17-2.67,1.83,1.83,0,0,1-.08-1.32c.23-.47,1.34-.68,1.8-.64a9.18,9.18,0,0,1,4.65,1.73,2.78,2.78,0,0,1-.05,1.17C452.75,154.52,451.92,154,451.41,153.81Z"/><path class="cls-30" d="M450.73,154.47c-.78-.08-1.72-.16-2.57-.21-.43,0-.87,0-1.27,0h-.44l.06,0a.94.94,0,0,0,.26-.14.81.81,0,0,0,.16-.2.41.41,0,0,0,.05-.09.94.94,0,0,0,.06-.18v-.07a.07.07,0,0,0,0,.05,1.41,1.41,0,0,0,0,.25,24.12,24.12,0,0,0,.71,2.48l.85,2.52h0a.59.59,0,0,1-1.08.45c-.4-.81-.79-1.62-1.14-2.45a24.69,24.69,0,0,1-1-2.6c0-.12-.07-.24-.1-.4s0-.18,0-.28a2,2,0,0,1,0-.24,1.23,1.23,0,0,1,.08-.26l.06-.13a1,1,0,0,1,.2-.22,1,1,0,0,1,.29-.17l.08,0h0l.07,0,.13,0,.22,0,.38,0c.5,0,.95,0,1.41,0,.94,0,1.78.07,2.78.19a1,1,0,0,1-.22,1.91Z"/><path class="cls-30" d="M454,164.34c-4.1-1.43-8.75-6.42-9.6-7.38-1-1.13.21-1.6,1.21-1.14,1.17.53,2.39.9,3.56,1.4s2.12.89,3.13,1.41a15.43,15.43,0,0,1,3.84,3.47C456.74,162.7,456,165,454,164.34Z"/><path class="cls-22" d="M452.12,158.66l-.09,0s-4.73-1.82-6.49-2.6a.25.25,0,0,1-.12-.33.24.24,0,0,1,.32-.12c1.75.77,6.43,2.57,6.47,2.59a.25.25,0,0,1,.15.32A.26.26,0,0,1,452.12,158.66Z"/><path class="cls-27" d="M505.81,270.13l-7.5,14.58c-4.16-9.29-10.65-23.82-12.45-27.82-.27-.59-.42-.95-.47-1l.7.48Z"/><path class="cls-22" d="M451.71,154.84a.27.27,0,0,1-.16-.06c-3.41-3-4.95-2.59-5.45-2.27l-.08,0a.25.25,0,0,1-.33-.14.26.26,0,0,1,.13-.32c.76-.47,2.53-.79,6.06,2.32a.25.25,0,0,1,0,.35A.27.27,0,0,1,451.71,154.84Z"/><path class="cls-25" d="M499.38,282l-6.93,13.65c-1.79-10.26-8-27.6-8-27.6L496.78,277Z"/><path class="cls-22" d="M452,153.12a.23.23,0,0,1-.15-.05s-2.18-1.59-3.38-1.7a.24.24,0,0,1-.22-.27.24.24,0,0,1,.27-.23c1.33.12,3.54,1.73,3.63,1.8a.25.25,0,0,1,.05.35A.23.23,0,0,1,452,153.12Z"/><polygon class="cls-30" points="465.1 174.05 454.03 164.21 457.61 159.81 469.49 168.66 465.1 174.05"/><path class="cls-47" d="M498.41,294.36l16.44-7.8-19.06-49.51-8.28-7.24c-12.41.65-13.78,2.63-15.44,5.93-1.29,2.55-.8,7.81,3,14.72Z"/><path class="cls-54" d="M507.77,170.18s3.54,2.21.77,4.59c-4.53,3.9-6.54,7.71-4.16,10.38,2.62,2.94,15.73-3.81,16.38-8.32s-6.71-9.93-6.71-9.93Z"/><path class="cls-47" d="M530,249.69l-4,.2-30.16,1.45-11.18.53-10.87-15.05c1.46-3.36,2.5-5.77,6.14-6.17l62-6.81,2.13,6.68A14.71,14.71,0,0,1,530,249.69Z"/><path class="cls-55" d="M509.87,186.13a2.75,2.75,0,0,1-2.75-1.83c-.62-1.77.31-4.38,2.94-5.7a4.93,4.93,0,0,0,3-3.92.26.26,0,0,1,.27-.25.25.25,0,0,1,.25.27,5.45,5.45,0,0,1-3.31,4.37c-2.38,1.19-3.24,3.51-2.69,5.06.42,1.19,1.6,1.71,3.15,1.38a.26.26,0,1,1,.11.51A4.56,4.56,0,0,1,509.87,186.13Z"/><path class="cls-56" d="M518.15,182.89l-4.66,16-2.39-.58-18.84-4.6-4.42-1.08a24.69,24.69,0,0,1-9.66-4.75l-19.81-15.95c-.76-.8-.46-3.91,1.35-6.47s4-4.12,5.07-3.59c0,0,0,0,0,0l22.71,15Z"/><path class="cls-32" d="M511.1,198.32l-18.84-4.6a54.7,54.7,0,0,0,16-2.57Z"/><polygon class="cls-47" points="544.41 232.04 517.03 238.37 516.79 210.94 536.33 206.42 539.51 216.49 541.13 221.63 544.41 232.04"/><polygon class="cls-30" points="517.73 190.16 507.19 170.44 512.71 166.58 526.64 179.89 517.73 190.16"/><path class="cls-56" d="M543.89,215.94s-2.22,3.08-10.54,5.17a55.53,55.53,0,0,1-6.21,1.17l-1.67.2c-13.21,1.46-20.7-1.54-20.89-2.32l1.61-8.07a34.55,34.55,0,0,0,.47-11.38,23.31,23.31,0,0,1,.25-6.76A23.81,23.81,0,0,1,520,176.2l2.61-1.28s8,1.4,13.06,15Z"/><path class="cls-49" d="M517.47,290.59h0a.1.1,0,0,0,0-.09c-.38-.74-4.7.73-9.63,3.29s-8.62,5.24-8.24,6c0,0,0,0,.05.05l-.05,0c-1.39-2.6-2.4-4.5-3.68-7a.21.21,0,0,1-.06-.1s0,0,0,0c-.36-1.22,3.37-4.09,8.46-6.49s9.89-3.53,10.43-2.36c0,0,0,.05,0,.08h0Q516.06,287.2,517.47,290.59Z"/><path class="cls-30" d="M513.6,170.61l-6.68.5c-6.68-.24-8.78-3.26-8.11-8a24.25,24.25,0,0,1,2.52-7.64c1.65-4,4.83-5.36,7.33-4.55l8.41,2.72Z"/><path class="cls-18" d="M502.82,159.61c-.25.5-.71.78-1,.62s-.36-.69-.11-1.19.71-.79,1-.63S503.08,159.1,502.82,159.61Z"/><path class="cls-57" d="M501.14,164.68H501a2,2,0,0,1-1.59-.89.26.26,0,0,1,.45-.27,1.49,1.49,0,0,0,1.18.64,1.75,1.75,0,0,0,1.5-.6.26.26,0,0,1,.36,0,.26.26,0,0,1,0,.37A2.26,2.26,0,0,1,501.14,164.68Z"/><path class="cls-53" d="M502.3,155.53a3.6,3.6,0,0,1,4,2.91.32.32,0,0,1-.26.36c-.47-.06-.82-.53-1.19-.73l-.86-.64a15.06,15.06,0,0,1-1.8-1.37.31.31,0,0,1,.13-.53Z"/><path class="cls-53" d="M514,157.42c-1.41,1.52-4.89.59-7.78-2.08s-4.09-6.08-2.68-7.6,4.9-.59,7.78,2.08S515.37,155.89,514,157.42Z"/><path class="cls-30" d="M499.86,162.79l-1.76-1.53a.92.92,0,0,1,.07-1.45l3.23-2.34Z"/><polygon class="cls-58" points="531.14 168.08 531.15 168.08 531.14 168.09 531.14 168.08"/><path class="cls-26" d="M479.21,237.32a.27.27,0,0,1-.25-.18c-1.76-4.89-3.77-4.43-3.8-4.43a.26.26,0,1,1-.13-.5c.1,0,2.5-.57,4.42,4.76a.26.26,0,0,1-.15.33Z"/><path class="cls-26" d="M526.16,232.7a.25.25,0,0,1-.19-.08c-5.48-5.85-9.78-5.7-10.59-5.61a.25.25,0,0,1-.29-.23.27.27,0,0,1,.23-.29c.84-.09,5.39-.26,11,5.77a.26.26,0,0,1,0,.37A.24.24,0,0,1,526.16,232.7Z"/><path class="cls-53" d="M512.73,183.15a5.86,5.86,0,0,1-.62.3A3.58,3.58,0,0,1,512.73,183.15Z"/><path class="cls-53" d="M542,188.12c-1.22,1.86-4.77,1.86-9,.3h0c-4.27-1.07-9.46-4.68-13.42-5.39-1.69-.31-2.94-.36-5.5,1.16a2.67,2.67,0,0,1-2.29.28c-2.88-.93-3.47-5.16-1.48-10.6a16.64,16.64,0,0,0,1.27-7.77c-.17-.26,0-2.18-.15-2.46-6.08-9.92-3.51-14.56.2-14.37,3,.17,8.81,1.19,10.95,10.76.24,1.08.58,2.12.84,3.14a19.14,19.14,0,0,0,8.73,11.47c.36.21.72.44,1.07.67C539.82,179.64,543.75,185.38,542,188.12Z"/><path class="cls-30" d="M513.25,165.5c-1.58.92-3.34.82-3.93-.21s.2-2.6,1.78-3.51,3.35-.82,3.94.21S514.83,164.59,513.25,165.5Z"/><polygon class="cls-30" points="545.43 246.81 538.62 248.51 534.33 233.84 542.85 231.72 545.43 246.81"/><path class="cls-30" d="M541.11,246.22c.22,2.47.44,5,.52,7.44-.4,2.33-.81,4.66-1.34,7a1,1,0,0,1-1.89-.26c.11-2.37.34-4.73.58-7.09v.31c-.31-2.36-.62-4.72-.85-7.09a1.5,1.5,0,0,1,3-.29Z"/><path class="cls-30" d="M542.77,247.26c.41,2.15.74,4.32,1.06,6.49a68.72,68.72,0,0,1-2.15,7.76,1,1,0,0,1-1.87-.44c.39-2.51.88-5,1.39-7.48l0,.57c-.48-2.11-1-4.22-1.36-6.34a1.5,1.5,0,0,1,2.95-.56Z"/><path class="cls-30" d="M544.85,246.6c.31,2.45.53,4.91.75,7.37a43.84,43.84,0,0,1-2.13,6,1,1,0,0,1-1.84-.55c.38-2,.86-3.89,1.35-5.82l-.05.56c-.38-2.41-.76-4.82-1.06-7.23a1.5,1.5,0,0,1,3-.37Z"/><path class="cls-30" d="M545.21,245.07c.71,2.79,1.33,5.6,1.95,8.42a1.18,1.18,0,0,1-.1.92c-.73,1.29-1.47,2.58-2.31,3.82a1,1,0,0,1-1.35.25,1,1,0,0,1-.37-1.1c.47-1.42,1-2.79,1.62-4.16l-.09.92c-.79-2.77-1.56-5.55-2.26-8.34a1.5,1.5,0,0,1,2.91-.73Z"/><path class="cls-18" d="M468.8,336.45l-3,6.68-23.3,9a3.2,3.2,0,0,1-.1-.42,3,3,0,0,1,1.54-3.06l2.33-1.26h0c.32-.09,5.42-3.08,13.31-6.34A60.63,60.63,0,0,0,468.8,336.45Z"/><path class="cls-30" d="M540.48,248.94c-3.18,1.36-6.92,2.73-10.35,1.65a.72.72,0,0,1-.39-.93.76.76,0,0,1,.46-.42,43.08,43.08,0,0,0,8.69-3.4,1.74,1.74,0,1,1,1.59,3.1Z"/><path class="cls-32" d="M533.35,221.11a55.53,55.53,0,0,1-6.21,1.17l-1.67.2-8.68-24.9,16.52,22Z"/><path class="cls-53" d="M512.11,183.45l-.08.05v0A.32.32,0,0,0,512.11,183.45Z"/><path class="cls-56" d="M548,238.57h0l-6.82-25.9a21.94,21.94,0,0,0-3-6.67l-14-20.87-15,5.69,18.56,24.79,8.51,27.54h0c.32.82,3.21.47,6.45-.79S548.34,239.39,548,238.57Z"/><path class="cls-18" d="M519.49,307.93l-.77,18.13a11.26,11.26,0,0,1-1.24,4.21c-.72,1.44-1.72,2.68-2.84,3a2.75,2.75,0,0,1-2.75-2.56l-.49-9.82c.68,6.94,4.79.18,5.24-5.17a138.46,138.46,0,0,0,0-14.42Z"/><path class="cls-30" d="M537.29,244a4.58,4.58,0,0,1-1.84,3.74L539,248l0-2.4Z"/><path class="cls-30" d="M452.52,159.08c-2.16-1.46-4.28-3-6.36-4.58-1.83-1.45-4.53-3.26-6-5.11-.68-2,3.48.9,4,1.21,3.14,2.15,6.58,4.52,9.55,6.87a1,1,0,0,1-1.18,1.61Z"/><path class="cls-30" d="M534.92,250.53s3.75-.59,4.09,2l1.49-3.83-.24-.62-1.49-.24-2.35.86Z"/><path class="cls-22" d="M450.58,158a.28.28,0,0,1-.15,0l-5.87-4.37a.24.24,0,0,1-.05-.35.25.25,0,0,1,.35,0l5.87,4.36a.25.25,0,0,1,0,.35A.23.23,0,0,1,450.58,158Z"/><path class="cls-22" d="M452.3,156.89a.25.25,0,0,1-.15,0l-5.88-4.36a.25.25,0,0,1,0-.35.25.25,0,0,1,.35-.06l5.88,4.37a.25.25,0,0,1,.05.35A.28.28,0,0,1,452.3,156.89Z"/><path class="cls-22" d="M540,261.33h0a.25.25,0,0,1-.21-.28l1.18-9.21a.26.26,0,0,1,.28-.21.25.25,0,0,1,.22.28l-1.19,9.2A.24.24,0,0,1,540,261.33Z"/><path class="cls-22" d="M541.62,261.33h-.06a.26.26,0,0,1-.18-.31l1.17-4.76.27-4.4a.24.24,0,0,1,.26-.23.26.26,0,0,1,.24.26l-.28,4.45-1.17,4.8A.25.25,0,0,1,541.62,261.33Z"/><path class="cls-22" d="M543.41,259.79h-.09a.25.25,0,0,1-.15-.32l1.38-3.78-.53-3.77a.25.25,0,1,1,.49-.07l.55,3.83a.27.27,0,0,1,0,.13l-1.4,3.83A.25.25,0,0,1,543.41,259.79Z"/><path class="cls-26" d="M507.72,268.31a.25.25,0,0,1-.24-.17c-1.06-2.74-6.11-15.28-7.07-16.91a25,25,0,0,0-3.09-4.23,12.4,12.4,0,0,0-4-3.05c-.27-.12-.4-.19-.41-.37a.27.27,0,0,1,.24-.28.24.24,0,0,1,.22.09l.17.09a12.83,12.83,0,0,1,4.19,3.16,25.63,25.63,0,0,1,3.16,4.33c1,1.75,6.24,14.75,7.11,17a.27.27,0,0,1-.15.34Z"/><path class="cls-25" d="M525.94,249.89l-25.31,1.21a24.66,24.66,0,0,0-3.12-4.28A114.14,114.14,0,0,0,525.94,249.89Z"/><path class="cls-37" d="M543.41,221.2a.26.26,0,0,1-.25-.18l-2.06-7.83c-1.27-4.83-5.62-11-6.92-12.79l-.06-.08a.25.25,0,0,1,.42-.28l0,.06c1.32,1.8,5.71,8.05,7,13l2.06,7.83a.25.25,0,0,1-.18.3Z"/><path class="cls-37" d="M506.56,200a.25.25,0,0,1-.25-.23c-.45-6.1,1.16-9.85,1.67-10.85a.26.26,0,0,1,.33-.15.24.24,0,0,1,.15.31.21.21,0,0,0,0,.07c-.49,1-2.06,4.61-1.62,10.58a.25.25,0,0,1-.23.27Z"/><path class="cls-37" d="M530.1,223.42a.26.26,0,0,1-.24-.18l-2.15-7-12.27-16.71a.25.25,0,1,1,.4-.3L528.13,216a.16.16,0,0,1,0,.07l2.17,7a.25.25,0,0,1-.16.31Z"/><path class="cls-37" d="M485.19,178.49a.28.28,0,0,1-.13,0,.24.24,0,0,1-.08-.34c0-.08,1.13-1.76,5.41-.92a.25.25,0,0,1-.09.49c-3.9-.76-4.89.67-4.9.69A.26.26,0,0,1,485.19,178.49Z"/><path class="cls-55" d="M514.22,184a2.64,2.64,0,0,1-1.84-.77c-1.23-1.15-2-3.74-.92-6.95a31.91,31.91,0,0,0,1.52-8.05,6.88,6.88,0,0,1,.12-1.06.26.26,0,1,1,.5.14c0,.13-.06.5-.1,1a32.81,32.81,0,0,1-1.54,8.18c-1,3-.33,5.36.77,6.4a2.18,2.18,0,0,0,2.43.43.26.26,0,0,1,.34.14.27.27,0,0,1-.14.34A3,3,0,0,1,514.22,184Z"/><path class="cls-55" d="M536.59,189.52a6.88,6.88,0,0,1-1.32-.12.26.26,0,1,1,.1-.51s2.39.47,3.79-.61a2.85,2.85,0,0,0,1.05-2.21c.26-4.38-7.28-8.54-12.79-11.58l-.34-.19c-5.44-3-6.52-9.78-6.54-9.85a.26.26,0,0,1,.22-.29.26.26,0,0,1,.3.22c0,.06,1.06,6.59,6.27,9.47l.34.18c5.94,3.28,13.35,7.36,13.06,12.07a3.38,3.38,0,0,1-1.25,2.6A4.76,4.76,0,0,1,536.59,189.52Z"/><path class="cls-55" d="M504.49,153.7a.25.25,0,0,1-.2-.1c-2.92-3.65-1.07-5.93-1-6a.26.26,0,1,1,.4.34c-.07.08-1.64,2.07,1,5.37a.27.27,0,0,1,0,.37A.34.34,0,0,1,504.49,153.7Z"/></g></g></g></svg>